<?xml version="1.0" encoding="UTF-8" standalone="no"?>
<svg
   version="1.1"
   width="1000"
   height="217.46568"
   id="svg39"
   viewBox="0 0 1000 217.46568"
   xmlns="http://www.w3.org/2000/svg"
   xmlns:svg="http://www.w3.org/2000/svg">
  <defs
     id="defs43" />
  <g
     id="Layer1000"
     transform="matrix(1.9847451,0,0,1.9847451,-332.93583,-435.37367)">
    <path
       d="m 259.7005,302.3478 c 1.6052,3.482 7.7965,16.5075 9.8603,20.6344 0.4782,-3.4062 -1.9241,-10.6743 -5.2047,-15.7436 -1.355,-1.6833 -2.8387,-3.2755 -4.4266,-4.7608 -0.0763,-0.0453 -0.1527,-0.0889 -0.229,-0.13 z m -57.3677,-2.183 c -7.0393,7.7291 -12.7022,18.5179 -11.8836,28.4918 h 7.7965 l 17.5268,-36.2294 c -4.8622,1.7789 -9.3516,4.4442 -13.4397,7.7376 z m 85.5516,-3.4232 -36.4391,-75.8995 h -32.5618 l -51.1361,107.8145 h 21.5581 c -2.3714,-12.344 1.1504,-19.145 6.9977,-28.5448 5.2049,-8.3676 12.5917,-14.6721 21.6274,-18.5803 1.2246,-0.5296 2.4679,-1.0103 3.7266,-1.4431 l 13.4983,-28.412 12.9634,25.7464 c 1.8264,0.205 3.6422,0.484 5.4381,0.8342 12.7663,2.4899 25.4414,8.7783 34.3274,18.4846 z"
       style="fill:#0033a1;fill-rule:evenodd"
       id="path12" />
    <path
       d="m 629.4814,274.0387 c 9.4359,0 17.0852,7.6492 17.0852,17.0851 0,9.4359 -7.6493,17.0851 -17.0852,17.0851 -9.4358,0 -17.0851,-7.6492 -17.0851,-17.0851 0,-9.4359 7.6493,-17.0851 17.0851,-17.0851 z m -2.7051,-16.6889 c 2.9811,-4.7717 13.988,-15.9914 15.3637,-19.0868 -24.0775,11.607 -31.4154,14.5732 -64.4359,17.1524 -4.1274,6.7061 -5.0447,6.3192 -13.7585,6.9642 v 17.5391 c 19.0326,-1.2896 20.8672,13.9281 16.0517,21.0212 -10.5482,8.2538 -23.3896,4.7717 -25.6826,-8.5116 l -24.9947,7.8668 c 2.981,13.7992 16.0517,28.8881 39.2119,28.6302 14.4463,0 21.7844,-3.869 30.498,-10.3173 10.7776,6.3194 16.5104,10.0593 32.1032,10.0593 26.1413,0 39.2119,-19.9895 40.3587,-38.4315 1.1465,-14.7018 -7.3379,-42.6872 -44.7155,-32.886 z"
       style="fill:#0033a1;fill-rule:evenodd"
       id="path14" />
    <path
       d="m 486.2688,244.4083 c 11.1762,0.2618 13.586,16.8611 -0.3945,18.9121 l -17.5505,-0.0382 v -18.8287 c 6.1912,0.1289 11.7536,-0.1743 17.945,-0.0452 z m 21.2667,36.1552 c 34.7995,-13.2395 25.1828,-58.392 -2.6565,-59.7535 -7.5671,-0.3867 -7.2036,0.9457 -11.102,4.5567 -16.9688,15.0888 -37.6068,25.7929 -60.0791,32.112 v 70.0279 h 34.3965 l 0.0649,-42.0529 c 6.4206,-1.0318 10.2541,2.4607 12.3179,6.0718 l 19.8605,37.1311 h 38.7088 c -3.2703,-7.8164 -16.0306,-33.2197 -20.9626,-39.1945 -6.65,-7.9959 -8.026,-6.5772 -10.5484,-8.8986 z"
       style="fill:#0033a1;fill-rule:evenodd"
       id="path16" />
    <path
       d="m 354.493,327.5703 c 15.3638,-1.9344 27.0585,-8.7694 37.1481,-15.8625 l 0.2294,-45.3956 -50.6895,0.0177 v 22.9854 h 21.1383 v 8.2319 c -9.8601,6.5772 -26.8589,9.7756 -36.0312,0.7481 -9.8964,-9.4038 -6.7072,-27.5667 -5.0449,-39.721 -7.3378,-0.2578 -28.585,0.4251 -34.2733,1.7729 -5.931,21.0882 4.28,49.2849 20.7841,59.3698 10.3581,6.3292 25.7983,10.5482 46.739,7.8533 z"
       style="fill:#0033a1;fill-rule:evenodd"
       id="path18" />
    <path
       d="m 287.7641,256.8978 c 11.0068,-2.4504 22.0137,-3.611 35.7722,-2.4504 4.8155,-13.2833 31.874,-14.9599 35.0843,2.4504 l 32.1033,-5.8034 c -0.6879,-9.5434 -12.612,-18.8289 -19.7206,-22.8268 -19.4912,-11.0909 -50.9066,-10.833 -66.4996,2.4504 -7.5672,6.4482 -14.9051,15.3467 -16.7396,26.1798 z"
       style="fill:#2670cb;fill-rule:evenodd"
       id="path20" />
    <path
       d="m 395.3037,328.6673 h 34.4782 v -70.016 c -8.3325,2.0198 -21.1674,4.2474 -34.4782,4.3908 z"
       style="fill:#0033a1;fill-rule:evenodd"
       id="path22" />
    <path
       d="m 533.2182,252.5782 24.3068,0.1289 c 0.6879,-6.7061 2.7517,-11.3488 9.8603,-11.4778 7.5672,-0.2579 10.3189,3.8689 11.2361,10.7041 4.8155,0 19.9499,-1.8055 24.0775,-3.4821 1.1465,-9.5434 -5.5034,-18.6999 -10.3189,-22.3109 -20.1792,-14.8309 -58.2445,-5.0296 -59.1618,26.4378 z"
       style="fill:#2670cb;fill-rule:evenodd"
       id="path24" />
    <path
       d="m 198.032,301.1871 c 34.8549,-32.1122 77.7358,0.9027 76.3599,27.4694 l 23.3895,-0.2579 c 1.8345,-47.201 -73.8375,-68.8671 -99.7494,-27.2115 z"
       style="fill:#2670cb;fill-rule:evenodd"
       id="path26" />
    <path
       d="m 395.3037,259.4869 c 9.8964,-0.4589 26.0461,-2.9352 34.4782,-5.2296 V 220.81 h -34.4782 z"
       style="fill:#2670cb;fill-rule:evenodd"
       id="path28" />
    <path
       d="m 433.698,253.223 c 17.4275,-4.5138 54.8049,-25.0191 59.3911,-32.3701 H 433.698 Z"
       style="fill:#2670cb;fill-rule:evenodd"
       id="path30" />
    <path
       d="m 607.0558,247.4196 c 15.593,-1.6765 44.2566,-17.7971 49.0721,-26.5667 h -30.9567 c -4.3569,9.2854 -11.4655,17.6681 -18.1154,26.5667 z"
       style="fill:#2670cb;fill-rule:evenodd"
       id="path32" />
  </g>
</svg>
