<?xml version="1.0" encoding="UTF-8" standalone="no"?>
<svg
   version="1.1"
   width="256.21552"
   height="90.929977"
   viewBox="0 0 256.21551 90.929977"
   id="svg153"
   sodipodi:docname="PDF1_SVG15.svg"
   inkscape:version="1.4.2 (f4327f4, 2025-05-13)"
   xmlns:inkscape="http://www.inkscape.org/namespaces/inkscape"
   xmlns:sodipodi="http://sodipodi.sourceforge.net/DTD/sodipodi-0.dtd"
   xmlns="http://www.w3.org/2000/svg"
   xmlns:svg="http://www.w3.org/2000/svg">
  <sodipodi:namedview
     id="namedview153"
     pagecolor="#ffffff"
     bordercolor="#000000"
     borderopacity="0.25"
     inkscape:showpageshadow="2"
     inkscape:pageopacity="0.0"
     inkscape:pagecheckerboard="0"
     inkscape:deskcolor="#d1d1d1"
     inkscape:zoom="1.0046394"
     inkscape:cx="141.34425"
     inkscape:cy="99.040513"
     inkscape:window-width="1920"
     inkscape:window-height="1009"
     inkscape:window-x="-8"
     inkscape:window-y="-8"
     inkscape:window-maximized="1"
     inkscape:current-layer="g153" />
  <defs
     id="defs1">
    <clipPath
       id="clip_0">
      <path
         transform="matrix(1,0,0,-1,0,568.0001)"
         d="M 0,0 H 425.9999 V 568.0001 H 0 Z"
         clip-rule="evenodd"
         id="path1" />
    </clipPath>
  </defs>
  <g
     clip-path="url(#clip_0)"
     id="g153"
     transform="translate(-100.03948,-144.59012)">
    <g
       id="g181">
      <path
         transform="matrix(0.1,0,0,-0.1,0,568.0001)"
         d="m 1341.7,3801.98 c 1.78,-14.83 -8.31,-27.89 -24.33,-27.89 h -65.86 c -18.4,0 -29.08,11.28 -30.86,28.48 l -2.96,43.91 h -80.7 l -14.24,-44.5 c -5.93,-18.39 -18.4,-27.89 -37.38,-27.89 h -65.87 c -16.61,0 -22.539,14.24 -17.2,29.08 l 152.49,372.63 c 7.12,18.39 20.77,27.89 40.35,27.89 h 59.33 c 19.58,0 30.27,-9.5 33.23,-27.89 z m -180.38,120.45 h 52.21 l -8.3,135.88"
         fill="#f15a22"
         id="path2" />
      <path
         transform="matrix(0.1,0,0,-0.1,0,568.0001)"
         d="m 1542.85,3801.98 c -7.12,-18.39 -20.17,-27.89 -39.75,-27.89 h -68.84 c -18.39,0 -30.85,11.87 -33.22,29.08 l -54,375 c -1.78,14.24 8.3,25.52 24.92,25.52 h 74.76 c 19.58,0 29.67,-8.9 30.86,-26.7 l 16.61,-234.38 79.51,233.19 c 6.53,18.39 19,27.89 38.57,27.89 h 65.86 c 16.03,0 23.75,-13.06 17.21,-27.89"
         fill="#f15a22"
         id="path3" />
      <path
         transform="matrix(0.1,0,0,-0.1,0,568.0001)"
         d="m 2180.07,4017.29 21.34,156.73 c 2.39,18.99 15.44,29.67 33.82,29.67 h 58.75 c 18.4,0 27.9,-10.68 25.52,-29.67 l -48.06,-369.07 c -2.37,-18.99 -15.43,-30.86 -33.83,-30.86 h -49.4 c -13.71,0 -26.14,8.04 -31.77,20.51 l -83.19,184.12 -21.36,-173.77 c -2.37,-18.99 -15.43,-30.86 -33.82,-30.86 h -59.34 c -17.21,0 -27.29,11.87 -24.91,30.86 l 48.06,367.88 c 2.37,16.62 15.42,30.86 32.63,30.86 h 38.56 c 19.59,0 35.02,-7.12 45.7,-20.77"
         fill="#f15a22"
         id="path4" />
      <path
         transform="matrix(0.1,0,0,-0.1,0,568.0001)"
         d="m 2619.74,4203.69 c 17.22,0 26.7,-13.65 24.92,-30.26 l -5.34,-40.94 c -2.36,-16.62 -16.02,-30.27 -33.23,-30.27 h -65.27 l -39.16,-297.27 c -2.37,-16.61 -16.02,-30.86 -33.23,-30.86 h -59.93 c -17.2,0 -27.29,14.25 -24.92,30.86 l 39.16,297.27 h -65.27 c -17.2,0 -27.29,13.65 -24.92,30.27 l 5.34,40.94 c 2.38,16.61 16.02,30.26 33.24,30.26"
         fill="#f15a22"
         id="path5" />
      <path
         transform="matrix(0.1,0,0,-0.1,0,568.0001)"
         d="m 2741.38,3875.55 h 148.34 c 17.21,0 26.7,-11.86 24.33,-29.06 l -5.34,-42.13 c -2.37,-17.22 -14.24,-30.26 -32.64,-30.26 h -237.34 c -17.21,0 -26.7,14.83 -24.33,31.44 l 48.65,369.08 c 2.38,16.61 14.84,29.07 32.05,29.07 h 237.34 c 17.21,0 27.3,-11.87 24.92,-29.07 l -5.93,-43.91 c -2.97,-19.58 -13.65,-29.08 -32.04,-29.08 h -148.34 l -8.31,-62.89 h 108.59 c 18.39,0 27.29,-11.87 24.92,-29.08 l -5.34,-42.13 c -2.97,-20.17 -13.65,-30.26 -33.23,-30.26 h -107.99"
         fill="#f15a22"
         id="path6" />
      <path
         transform="matrix(0.1,0,0,-0.1,0,568.0001)"
         d="m 1705.15,3601.3 c 0.04,-0.05 0.04,-0.1 0.07,-0.15 v 0.21 c -0.03,-0.02 -0.05,-0.04 -0.07,-0.06"
         fill="#04a8b4"
         id="path7" />
      <path
         transform="matrix(0.1,0,0,-0.1,0,568.0001)"
         d="m 1939.02,3798.56 c 0.84,4.87 -2.27,10.98 3.83,14.66 -4.32,4.94 0.25,9.98 -0.37,15.01 -0.62,5.19 -0.39,10.49 -0.17,15.73 0.46,11 4.67,21.47 5.08,32.52 0.97,25.95 1.47,51.9 0.22,77.87 -0.45,9.21 -0.45,18.44 -1.05,27.65 -0.82,12.6 -3.92,25.1 -2.69,37.81 0.02,0.03 0.04,0.07 0.05,0.08 -0.01,0.01 -0.03,0.04 -0.04,0.04 0,-0.02 -0.06,-0.22 -0.06,-0.22 -1.06,6.76 -3.96,13.88 -2.61,20.17 1.2,5.63 1.22,10.53 0.44,16.09 -3.56,25.16 -7.54,50.23 -13.9,74.98 -4.35,16.98 -11.28,33.66 -10.57,51.34 0.53,12.87 -8.63,19.5 -17.49,26.87 -2.43,2.03 -6.19,-0.27 -7.33,2.03 -2.33,4.78 -6.23,6.42 -11.38,7.35 -6.28,1.13 -11.67,4.68 -17.34,6.93 -7.39,2.93 -15.11,6.43 -23.29,7.7 -5.28,0.81 -10.62,2.39 -15.55,-2.22 -13.11,-12.2 -20.21,-27.76 -28,-42.78 -7.12,-13.77 -14.59,-27.36 -21.91,-41.03 -3.3,-6.17 -8.6,-10.97 -12.51,-16.69 -3.21,-4.71 -5.59,-10 -9.41,-14.2 -8.11,-8.91 -15.17,-18.48 -22.49,-27.9 -4.07,-5.24 -6.97,-11.37 -11.07,-16.3 -7.06,-8.49 -13.95,-17.2 -21.73,-25.23 -1.61,-1.65 -4.91,-2.23 -4.99,-4.01 -0.24,-5.62 -4.25,-4.75 -7.63,-4.31 -2.28,-2.07 2.67,-3.41 0.22,-4.7 -3.87,-2.03 -5.14,-5.44 -7.37,-8.57 -4.19,-5.86 -10.18,-10.6 -15.41,-15.82 0.77,1.59 1.67,3.17 1.13,5.6 -2.57,-2.34 -6.7,-3.39 -3.37,-7.44 -2.73,-2 -4.76,-4.79 -8.69,-5.36 -1.86,-0.26 -3.2,-1.85 -3.18,-3.86 0.01,-0.58 0.67,-0.72 1.34,-0.91 1.91,-0.49 2.1,-1.38 1.27,-1.47 -6.31,-0.72 -9.24,-4 -9.38,-9.7 0,-0.06 -0.42,-0.06 -0.55,-0.16 -3.82,-4.07 -8.56,-7.41 -12.31,-11.33 -2.55,-2.65 -6.8,-2.3 -6.85,-2.44 -2.18,-7.19 -2.18,-7.03 -9.02,-8.62 -1.34,-0.31 -3.3,-1.86 -3.09,-3.99 0.11,-1.15 0.32,-2.29 0.52,-3.43 0.54,-2.92 -1.07,-3.75 -3.55,-2.47 -5.2,2.68 -4.58,-0.63 -4.25,-3.36 0.5,-4 -5.93,-9.05 -10.99,-7.93 1.5,-3.4 -0.58,-5.91 -2.67,-7.75 -6.38,-5.58 -12.63,-11.16 -16.77,-18.43 -0.23,-0.4 -0.98,-0.53 -1.48,-0.79 -5.85,-3.01 -12.88,-4.74 -15.3,-11.51 -1.24,-3.48 -5.11,-4.11 -7.78,-5.01 -4.57,-1.54 -4.92,-1 -5.54,-5.44 -0.01,0 -0.01,0 -0.01,0.02 -0.33,-4.11 -2.94,-2.27 -5.88,-0.81 1.79,-8.1 -8.14,-8.38 -9.44,-14.35 -0.21,-0.94 -3.72,-1.24 -3.91,-2.18 -1.87,-8.81 -12.42,-9.64 -17.27,-16.33 -4.6,-6.33 -12.32,-11.08 -16.92,-18.02 -2.3,-3.46 -5.56,-7.31 -9.23,-8.06 -4.92,-1 -6.67,-4.12 -9.36,-6.81 -2.09,-2.09 -3.65,-4.71 -5.99,-6.5 -7.52,-5.8 -15.36,-11.16 -21.59,-18.31 -5.98,-6.86 -12.19,-13.38 -16.68,-21.35 -1.55,-2.78 -5.52,-4.75 -6.63,-8.52 -0.45,-1.52 -1.72,-0.84 -2.97,-0.04 -1.71,1.08 -2.47,-0.81 -3.54,-1.54 -0.94,-0.64 -0.44,-1.24 0.19,-1.88 1.77,-1.77 1.81,0.95 2.87,0.87 1.37,-0.11 3.02,0.5 3.7,-0.99 -4.64,-8.33 -14.67,-12.23 -18.62,-20.43 5.04,-5.45 7.65,0.89 11.88,1.66 -5.02,-3.52 -7.09,-9.2 -12.16,-12.58 7.35,2.65 14.83,5.07 18.2,12.63 8.09,-3.65 10.36,5.82 17.28,6.25 -0.27,-2.11 1.51,-4.65 -3.18,-4.59 -2.43,0.04 -2.09,-2.89 -3.1,-4.4 -0.5,-0.75 0.74,-1.26 1.46,-1.56 1.99,-0.84 2.48,1.03 3.51,1.78 5.7,4.18 11.33,8.43 17.18,12.81 1.03,-6.52 1.9,-12.64 -2.91,-19.11 4.43,1.53 5.27,5.38 8.96,4.67 -2.56,-9.54 -13.47,-13.19 -17.64,-21.94 2.09,-0.16 2.17,2.81 4.23,1.95 0.46,-1.31 -1.6,-2.26 -0.71,-3.51 24.16,12.04 41.54,31.7 61.75,47.51 2.64,-1.77 0.1,-3.73 3.04,-4.4 1.96,3.51 5.88,5.16 9.47,7.27 1.74,1.03 2.35,0.1 2.95,-0.8 0.72,-1.12 0.63,-2.71 -1.24,-2.14 -2.45,0.76 -2.65,-0.58 -2.67,-1.9 -0.07,-3.7 -2.45,-5.74 -5.37,-7.87 -2.09,-1.52 -3.3,-4.06 -4.91,-6.15 0.37,-0.3 0.73,-0.58 1.1,-0.88 2.94,3.48 10.6,0.89 10.94,7.87 0.03,0.78 1.53,1.39 2.62,0.59 4.54,-3.35 7.41,0.12 9.91,2.4 2.94,2.67 8.12,4.32 8.25,8.39 0.21,6.12 3.98,8.44 9.91,10.86 -1.09,-2.06 -3.62,-2.49 -2.46,-4.79 8.21,5.03 15.19,10.87 17.29,20.25 2.78,-1.25 0.83,-2.96 2.72,-3.7 70.47,53.66 135.76,112.44 197.39,175.23 2.27,-4.55 -2.06,-8.64 1.59,-12.26 0.34,-0.33 -0.59,-2.5 -1.48,-2.98 -6.6,-3.54 -7.33,-10.73 -6.32,-15.35 0.86,-3.94 0.42,-6.47 -1.27,-9.01 0.49,0.9 0.56,1.84 -0.75,2.95 -2.12,-1.47 -2.85,-3.15 -1.45,-5.34 -0.45,-0.61 -1.42,-1.59 -1.27,-1.76 3.9,-4.54 0.15,-9.08 0.12,-13.57 -0.02,-4.79 -2.74,-1.02 -5.27,-0.18 2.73,-4.04 -4.35,-7.36 0.58,-11.23 0.19,-0.15 -0.36,-2.41 -1.86,-2.65 -1.22,-0.19 -2.82,0.2 -2.31,-1.67 0.61,-2.11 2.7,0.42 4.02,-1.33 -4.61,-1.62 -1.2,-9.07 -8.36,-9.26 -0.69,-0.01 -0.46,-1.72 -0.13,-2.68 0.4,-1.16 0.87,-1.89 -0.26,-3.44 -1.29,-1.78 -0.62,-4.79 -0.8,-7.26 l -0.32,0.22 c -0.04,-0.12 -0.08,-0.24 -0.13,-0.36 0.04,0.02 0.09,0.02 0.13,0.04 0.77,-5.22 -3.43,-8.9 -3.75,-13.29 -2.79,0.15 -0.5,2.84 -4.63,2.77 3.87,-5.13 -2.47,-8.68 -0.4,-14.23 1.31,-3.51 -4.03,-7.35 -3.85,-11.84 0.01,-0.23 -0.58,-0.52 -0.94,-0.7 -3.37,-1.63 -3.56,-1.66 -2.99,-3.98 1.04,-4.25 0.57,-8.24 -1.24,-12.26 -2.79,-6.23 -7.06,-11.96 -7.85,-18.9 -0.12,-1.02 -0.08,-2.04 -1.32,-2.34 -1.69,-0.42 -1.42,1.72 -2.85,2 -0.59,-1.76 -3.43,-3.65 -0.72,-5.28 3.4,-2.05 2.22,-3.37 -0.25,-4.28 -5.64,-2.08 -1.69,-9.41 -7.48,-11.25 3.21,-6.66 -1.58,-12.38 -2.86,-18.37 -0.67,-3.18 -2.09,-6.95 -4.52,-10.14 -1.36,-1.8 -4.57,1.41 -3.76,-1.8 1.12,-4.49 0.46,-8.17 -3.86,-11.08 -3.12,-2.12 0.66,-6.01 -1.45,-8.39 -3.96,0.64 -1.96,3.88 -3.53,7.02 -1.15,-5.76 -2.8,-9.92 -3.77,-14.35 -0.77,-3.51 5.12,-13.06 -7.27,-10.5 3.43,-5.78 3.43,-5.78 -0.12,-9.14 -1.91,0.59 -0.36,2.98 -2.19,3.77 -1.09,-2.99 -1.33,-3.12 -0.62,-4.14 1.02,-1.47 1.59,-3.43 0.75,-4.44 -5.25,-6.28 -6.8,-13.81 -9.03,-21.18 -0.66,-2.16 -1.64,-5.22 -3.4,-5.89 -4.32,-1.65 -2.8,-3.89 -1.05,-6.45 -3.94,-0.83 -10.34,1.3 -7.11,-5.74 0.33,-0.72 -0.32,-1.91 -0.76,-2.78 -2.44,-4.72 -4.61,-9.64 -6.52,-14.46 -1.67,-4.23 -4.91,-5.17 -8.27,-7.01 1.86,-2.61 6.19,-5.65 2.83,-8.39 -5.64,-4.57 -9.3,-10.18 -13.13,-15.86 -1.4,-2.07 -2.31,-3.96 -2.69,-6.69 -1.05,-7.5 -7.39,-13.15 -9.86,-20.34 -0.52,-1.5 -3.49,-1.41 -3.9,-3.52 -1.78,-9.11 -7.77,-16.14 -13.43,-23.37 -0.97,-1.22 -1.86,-2.61 -2.23,-4.5 -0.8,-4.11 -0.84,-10.26 -5.72,-11.06 -5.94,-0.98 -5.1,-4.23 -5.71,-7.52 -0.23,-1.23 -0.71,-2.45 -1.07,-3.57 -1.48,-4.58 -8.21,-5.78 -8.54,-9.76 -0.43,-5.68 -6.12,-9.39 -4.87,-14.97 -1.97,-1.14 -2.71,1.45 -2.84,1.39 -4.42,-4.41 0.6,-12.2 -8.66,-12.73 -1.21,-0.07 -0.63,-1.65 -0.95,-2.5 -0.91,-2.54 -1.53,-6.84 -3.16,-7.19 -7.06,-1.54 -5.06,-6.47 -5.69,-10.51 -0.08,-0.51 -0.52,-0.96 -0.68,-1.23 -2.05,-0.82 -2.9,2.07 -4.32,1.09 -3.74,-3.41 1.24,-4.09 2.37,-6.45 -2.92,-0.58 -7.6,1.02 -6.74,-3.3 0.67,-3.38 -1.03,-4.41 -3.45,-5.69 -1.7,-0.9 -3.15,-2.29 -2.7,-4.27 0.67,-2.93 -2.98,-3.89 -3.56,-3.79 -4.98,0.82 -4.85,-1.16 -4.41,-4.82 0.64,-5.38 -1.26,-11.99 -6.18,-13.26 -5.19,-1.35 -3.89,-4.28 -5.58,-6.61 -2.29,-3.17 -0.92,-9.78 -8.43,-8.4 0.68,-7.21 -9.38,-10.57 -6.45,-17.87 -2.48,-1.63 -2.93,2.27 -5.38,0.93 1.65,-4.18 -1.16,-7.36 -2.73,-10.95 -2.63,-6.03 -7.34,-10.9 -10.52,-16.64 -1.64,-2.95 -2.19,-4.88 -2.36,-8 4.04,1.43 3.47,5.81 8.22,6.45 -5.71,-14.65 -21.24,-22.79 -26.12,-37.12 0.99,-0.07 2.37,0.2 3.24,-0.3 1.09,-0.64 -1.05,-2.71 1.44,-3.39 0.59,0.43 1.21,0.93 1.89,1.35 0.62,0.39 0.61,1.9 2.03,1.04 -2.6,-3.95 -2.6,-3.95 -2.57,-7.29 25.48,23.11 46.15,49.65 67.74,76.2 2.15,-4.23 -2.34,-6.71 -0.55,-9.89 -5.05,-2.21 -5.13,-2.34 -3.7,-6.03 3.42,0.83 0.8,4.87 3.7,6.01 3.83,1.77 6.7,4.34 7.8,8.27 0.66,2.38 2.34,3.82 4.25,5.46 4.13,3.58 9.29,7.24 10.96,11.84 2.04,5.61 5.32,9.93 9.61,13.59 7.12,6.05 10.85,14.23 16.64,21.13 4.89,5.82 7.24,13.17 11.15,19.65 2.88,4.78 9.37,6.8 10.02,12.93 0.19,1.89 0.33,4.17 1.92,5.95 6.66,7.44 10.19,17.27 19.74,22.49 3.15,1.73 2.18,3.98 1.18,6.34 2.22,0.34 3.74,-0.06 5.18,-0.78 0.13,-4.51 -4.17,-7.37 -5.08,-11.33 2.43,-1.24 1.75,2.75 4.02,1.37 -0.49,-5.75 -6.38,-8.49 -8.51,-13.53 -1.39,-3.27 -7.87,-4.44 -6.15,-10 0.01,-0.06 -0.76,-1.86 -2.18,-1.59 -0.78,0.16 -2.3,0.41 -1.92,-0.41 2.52,-5.47 -3.8,-8.35 -4.05,-12.93 -1.12,0.92 -2.23,1.83 -3.41,2.8 -1.4,-2.14 2.13,-3.63 -0.04,-6.07 -3.89,-4.41 -6.94,-9.48 -10.27,-14.3 -1,-1.44 -1.97,-2.99 0.11,-4.72 6.29,3.18 5.96,11.49 13.06,13.94 -5.56,-8.09 -8.96,-17.46 -17.41,-24.99 -0.04,3.94 -0.58,6.62 -5.81,8.91 4.24,-6.56 -0.66,-9.86 -2.32,-14.05 2.23,0.78 4.47,1.57 6.81,2.38 -2.13,-4.26 -5.83,-7.53 -7.03,-12.09 -0.93,-3.53 -0.56,-7.81 -6.45,-8.35 -1.3,-0.12 -2.1,-2.17 -1.28,-4 0.71,-1.59 0.99,-3.34 1.47,-5.08 -3.84,0.28 -3.89,0.3 -4.72,-0.96 -0.63,-0.96 -1.37,-2.56 -0.53,-3.07 3.88,-2.37 0.2,-3.64 -0.84,-2.99 -4.02,2.53 -2.59,-1.43 -3.71,-2.21 2.85,-1.88 -1.16,-4.72 1.66,-7.17 18.93,23.53 36.03,47.98 52.14,73.04 16.14,25.11 33.62,49.48 48.48,75.8 1.36,-1.5 2.1,-2.32 2.96,-3.28 0.13,8.67 6.66,14.97 7.74,22.76 3.57,0.11 3.47,-2.28 4.75,-4.25 0.55,3.16 4.96,5.54 -0.25,8.36 -1.52,0.81 -0.12,2.98 0.48,4.23 0.91,1.91 2.51,3.54 3.82,5.29 -0.34,-2.95 -0.67,-5.89 -1.01,-8.84 3.26,2.67 5.11,5.65 6.03,9.06 -1.59,-1.16 -3.3,-0.15 -4.96,-0.08 1.5,3.37 3.32,1.33 5.08,0.27 4.03,0.98 5,2.71 1.07,5.09 -2,1.21 -1.85,2.33 -0.79,3.8 0.51,0.73 1.06,1.43 1.51,2.02 2.2,-0.72 1.36,-2.98 2.69,-3.61 7.37,3.14 -1.58,7.13 0.8,11.07 1.18,-1.23 1.54,-2.85 3.29,-2.97 2.69,4.04 6.69,7.42 7.45,12.48 0,-0.01 0.02,-0.04 0.03,-0.05 1.38,1.17 2.76,2.38 4.14,3.59 -3.56,5.56 3.83,7.1 5.12,11.02 0.74,2.27 4.24,-0.66 6.99,-1.53 -2.72,-3.77 -6.24,-7.41 -1.69,-11.85 1.4,1.04 -0.27,2.39 0.37,3.64 0.79,1.58 1.82,1.9 3.52,1.55 2.59,-0.57 1.56,-2.54 0.97,-3.22 -4.42,-5.14 -5.71,-11.99 -10.75,-16.75 1.44,-0.97 -0.91,-2.6 1.18,-3.78 1.82,2.76 3.66,5.51 5.45,8.3 13.21,20.52 21.28,43.46 35.65,63.55 9.03,12.63 13.66,27.62 20.87,41.31 7.31,13.92 12.8,28.7 19.15,43.03 6.94,15.68 14.59,31.19 20.85,47.11 8.71,22.11 17.31,44.27 26.37,66.28 1.4,3.41 1.1,7.46 4.81,11.5 -0.66,-5.33 -1.9,-9.41 -1.51,-13.37 1.12,-11.49 -2.28,-22.55 -3.05,-33.86 -0.74,-10.93 -2.34,-21.8 -2.15,-32.85 0.07,-3.63 0.09,-7.59 -0.43,-10.86 -0.79,-4.91 -1.91,-10.07 -3.55,-14.98 -2.19,-6.55 -0.18,-13.49 -1.25,-20.16 -0.59,-3.73 -0.4,-6.73 5.34,-6.9 -3.97,-2.62 -4.3,-2.68 -3.91,-4.16 2.32,-8.83 2.11,-17.74 1.16,-26.61 -0.34,-3.12 3.5,-3.17 3,-6.66 1.61,2.33 1.16,4.92 4.14,3.99 1.81,-2.27 -1.06,-5.11 1.51,-7.4 3.75,1.22 2.92,5.47 6.04,7.52 5.07,3.34 5.88,-1.14 8.25,-2.82 2.99,2.98 0.63,9.57 7.65,9.65 2.73,-4.15 -2.34,-8.83 1.35,-12.54 2.63,0.14 1.07,3.82 4.01,3.14 1.74,-2.91 -1.81,-6.16 1.15,-9.21 0.83,1.83 -0.97,5.12 3.08,4.84 2.26,-2.97 -1.36,-6.17 0.61,-9.02 1.6,-0.43 1.4,2.79 3.75,0.89 -2.77,-7.16 -4,-14.62 -0.36,-23.66 5.27,11.93 5.15,23.73 9.95,34.35 1.71,-0.48 3.35,-0.93 4.97,-1.37 1.25,2.85 1.28,5.88 3.17,7.85 5.94,-3.03 5.28,-7.29 4.16,-11.82 -1.4,-5.65 -2.64,-11.37 -3.7,-17.1 -0.61,-3.29 2.75,-5.61 5.48,-3.54 1.53,1.17 3.56,-0.67 4.24,1.48 0.9,2.09 -3.39,1.82 -2.23,4.47 2.14,-0.13 3.41,0.59 4.42,3.13 2.32,5.84 2.7,12.05 4.67,18 2.44,7.44 7.01,14.21 7.94,22.13 0.45,3.83 0.59,7.67 1.76,11.51 1.92,6.32 4.71,12.32 6.63,18.53 1.83,5.86 0.09,12.48 2.91,18.44 1.89,3.97 1.06,8.5 1.86,12.74 1.46,7.69 2.61,15.58 3.95,23.33 z m -526.22,-47.45 c 2.18,1.81 3.11,2.58 4.43,3.69 0.11,-2.51 -1.3,-2.84 -4.43,-3.69 z m 13.75,19.84 c -2.03,1.14 -3.27,1.96 -2.42,3.59 0.42,0.8 1.4,0.88 2.19,0.5 2.25,-1.14 0.1,-2.41 0.23,-4.09 z m 29.21,-14.41 c 0.9,1.21 1.61,0.62 1.73,-0.65 0.05,-0.51 0.01,-1.03 0.01,-2.22 -1.49,1.19 -2.37,2.05 -1.74,2.87 z m 9.47,6.53 c -0.93,1.83 -1.34,2.64 -2.15,4.23 1.52,-1.21 3.22,-1.17 2.15,-4.23 z m 43.57,7.55 c -0.25,2.17 0.41,3.3 2.98,3.76 -0.44,-1.81 -0.71,-3.17 -2.98,-3.76 z m 35.16,121.46 c -0.82,-0.52 -1.46,0.72 -1.95,1.49 0.32,0.97 0.5,2.35 2.07,1.45 1.19,-0.69 0.64,-2.47 -0.12,-2.94 z m -72.7,-546.9 c 0.46,1.73 1.39,2.87 3.7,4.17 -0.6,-2.22 -0.93,-3.93 -3.7,-4.17 z m 9.68,27.49 c -1.73,4.3 2.29,4.98 3.04,8.07 2.78,-4.81 -1.68,-5.28 -3.04,-8.07 z m 11.2,14.97 c 0.63,3.65 2.45,6.63 5.84,9.49 0.97,-5.34 -5.02,-5.95 -5.84,-9.49 z m 109.25,75.79 c -1.82,1.84 -0.98,3.89 -0.79,5.87 4.41,-2.2 4.49,-2.76 0.79,-5.87 z m 30.25,74.16 c 0.35,-0.25 0.86,-0.4 0.94,-0.66 0.51,-1.78 -0.28,-2.75 -2.19,-3.13 -1.38,2.03 -0.13,2.91 1.25,3.79 z m -23.52,-63.65 c 0.11,4.04 2.69,4.9 5.18,5.82 -2.42,-0.98 -3.06,-3.37 -5.18,-5.82 z m 16.79,20.67 c -6.33,-3.56 -7.89,-9.81 -11.58,-14.83 -0.73,0.99 -1.55,2.01 -0.69,3.22 4.56,6.35 6.49,14.19 12.81,19.81 4.26,-3.12 1.58,-7.02 -0.54,-8.2 z m 4.56,13.95 c -1.02,1.95 0.46,2.32 1.99,3.5 0.29,-2.29 -0.46,-3.1 -1.99,-3.5 z m 7.2,40.28 c 2.92,-1.41 1.84,-2.76 0.72,-4.79 -1.65,2 -1.14,3.17 -0.72,4.79 z m -1.62,-32.58 c -0.89,2.17 0.09,3.69 2.27,5.65 0.38,-2.72 -1.19,-4.12 -2.27,-5.65 z m 8.69,41.01 c 1.79,0.35 2.75,-0.25 3.34,-2.45 -1.95,0.48 -2.83,1.13 -3.34,2.45 z m 1.11,-13.18 c -0.6,1.59 0.06,2.67 1.11,4.34 0.6,-2.02 0.18,-3.15 -1.11,-4.34 z m -1.76,-12.88 c 1,1.94 1.98,3.88 2.98,5.81 1.14,-2.89 -1.36,-4.11 -2.98,-5.81 z m 8.82,14.38 c -0.28,1.7 0.11,2.56 1.64,2.77 0.4,-1.23 0.06,-2.11 -1.64,-2.77 z m 9.49,14.97 c -0.22,2 -0.44,4 3.07,4.83 -1.29,-2.03 -2.18,-3.43 -3.07,-4.83 z m 40.08,105.7 c 0.43,-0.05 0.93,0.04 1.14,-0.15 1.8,-1.61 0.55,-2.88 -0.69,-4.86 -1.41,2.26 -1.21,3.63 -0.45,5.01 z m -3.09,-62.46 c 2.17,-1.9 1.43,-4.25 2.59,-6.02 -4.37,0.69 -5.08,2.58 -2.59,6.02 z m 15.3,11.82 c -1.33,3.15 2.23,5.24 1.1,7.83 3.22,-2.97 2.46,-5.35 -1.1,-7.83 z m 3.61,0.09 c 2.59,5.55 5.19,11.11 8.12,17.38 -3.86,-1.46 -2.61,-5.5 -5.69,-6.5 -1.68,4.41 -1.68,4.41 7.3,17.47 2.5,-11.11 -2.09,-20.18 -9.73,-28.35 z m 7.59,-5.05 c -2.76,3.57 -0.66,6.11 -0.48,9.42 1.59,-3.19 1.59,-3.19 4.66,-2.12 -1.43,-2.5 -2.62,-4.58 -4.18,-7.3 z m 43.54,353.97 c -1.51,3.56 -0.33,5.5 0.89,8.39 1.18,-3.21 -0.51,-5.08 -0.89,-8.39"
         fill="#04a8b4"
         id="path8" />
      <path
         transform="matrix(0.1,0,0,-0.1,0,568.0001)"
         d="m 1574.27,3430.94 c 0.02,0.04 0.04,0.08 0.06,0.12 -0.1,-0.04 -0.2,-0.07 -0.29,-0.1"
         fill="#04a8b4"
         id="path9" />
      <path
         transform="matrix(0.1,0,0,-0.1,0,568.0001)"
         d="m 1712.88,3597.99 c -0.33,3.25 -2.91,5.89 -1.65,9.24 -5.6,0.43 -0.3,-6.98 -5.87,-6.08 3.95,-5.05 3.94,-6.18 -0.01,-9.51 -2.22,1.64 0.85,3.02 0.26,4.67 -3.18,-3.18 -5.43,-7.85 -4.69,-9.65 1.13,-2.72 -3.65,-14.32 -6.4,-14.3 -5.41,0.05 -4.65,-3.6 -5.77,-6.4 -0.89,-2.28 1.07,-4.48 -0.36,-6.79 -5.69,-9.17 -9.49,-19.26 -15.8,-28.14 -1.29,-1.82 -3,-3.75 -1.43,-6.34 3.23,1.51 5.66,3.92 9.29,4.11 -0.47,1.84 -4.01,1.4 -2.72,3.62 1.54,2.67 2.31,5.67 4.63,8.03 3.1,3.14 6.87,6.05 6.5,11.05 -0.15,1.8 1.54,2.18 2.72,3.2 2.88,2.46 8.88,2.62 7.9,8.21 -0.28,-1.2 -0.96,-2.07 -2.75,-2.41 -0.64,2.64 1.32,3.86 2.96,5.2 -0.06,-0.96 -0.12,-1.91 -0.17,-2.87 0.68,1.17 3.39,1.04 2.36,3.17 -0.09,0.2 -1.17,0.01 -1.93,-0.06 1.6,4.03 2.37,8.69 5.14,11.85 1.77,2.03 0.25,6.12 4.5,6.36 0.88,4.63 3.8,8.69 3.29,13.84"
         fill="#04a8b4"
         id="path10" />
      <path
         transform="matrix(0.1,0,0,-0.1,0,568.0001)"
         d="m 1705.22,3601.15 c 0.06,-0.01 0.09,0.01 0.15,0 -0.07,0.08 -0.09,0.12 -0.16,0.21"
         fill="#04a8b4"
         id="path11" />
      <path
         transform="matrix(0.1,0,0,-0.1,0,568.0001)"
         d="m 1709.59,3584.15 c 0,-0.04 -0.02,-0.08 -0.04,-0.13 0.06,0.05 0.08,0.1 0.13,0.14 -0.04,0 -0.05,-0.01 -0.09,-0.01"
         fill="#04a8b4"
         id="path12" />
      <path
         transform="matrix(0.1,0,0,-0.1,0,568.0001)"
         d="m 1660.12,3507.59 c 1.58,-0.98 2.32,0 2.81,1.21 2.03,5 5.8,9.24 7.82,16.19 -5.93,-4.64 -7.91,-9.85 -10.54,-14.72 -0.62,-1.15 -1.58,-1.75 -0.09,-2.68"
         fill="#04a8b4"
         id="path13" />
      <path
         transform="matrix(0.1,0,0,-0.1,0,568.0001)"
         d="m 1568.04,3425.21 c -4.74,-7.06 -7.4,-13.77 -12.85,-18.9 5.83,1.54 13.19,12.12 12.85,18.9"
         fill="#04a8b4"
         id="path14" />
      <path
         transform="matrix(0.1,0,0,-0.1,0,568.0001)"
         d="m 1684.84,3569.69 c 0.07,0.05 0.15,0.05 0.22,0.11 -0.03,0.03 -0.07,0.05 -0.1,0.08 -0.02,0 -0.03,-0.02 -0.05,-0.02 -0.02,-0.06 -0.05,-0.11 -0.07,-0.17"
         fill="#04a8b4"
         id="path15" />
      <path
         transform="matrix(0.1,0,0,-0.1,0,568.0001)"
         d="m 1654.77,3495.92 c 4.93,6.54 5.08,7.08 2.9,10.31 -1.53,-3.21 -3.97,-5.89 -2.9,-10.31"
         fill="#04a8b4"
         id="path16" />
      <path
         transform="matrix(0.1,0,0,-0.1,0,568.0001)"
         d="m 1494.09,3741.74 c 2.88,2.01 6.2,3.62 7.57,6.98 -3.42,-1.52 -6.62,-3.24 -7.57,-6.98"
         fill="#04a8b4"
         id="path17" />
      <path
         transform="matrix(0.1,0,0,-0.1,0,568.0001)"
         d="m 1574.26,3430.94 c 0.01,0 -0.21,0.02 -0.21,0.02 0,-0.06 -0.01,-0.1 0,-0.16 0.07,0.05 0.15,0.09 0.21,0.14"
         fill="#04a8b4"
         id="path18" />
      <path
         transform="matrix(0.1,0,0,-0.1,0,568.0001)"
         d="m 1570.66,3424.96 c 2.36,1.61 3.93,3.18 3.39,5.84 -1.92,-1.36 -4.59,-2.32 -3.39,-5.84"
         fill="#04a8b4"
         id="path19" />
      <path
         transform="matrix(0.1,0,0,-0.1,0,568.0001)"
         d="m 1544.27,3377.1 c 0.43,-0.28 0.86,-0.56 1.29,-0.84 1.46,1.9 2.92,3.79 5.33,6.91 -4.65,-1.74 -5.72,-3.85 -6.62,-6.07"
         fill="#04a8b4"
         id="path20" />
      <path
         transform="matrix(0.1,0,0,-0.1,0,568.0001)"
         d="m 1464.54,3358.02 c 1.45,1.36 2.91,2.71 4.37,4.09 -0.3,0.31 -0.62,0.63 -0.94,0.94 -1.65,-1.12 -3.29,-2.25 -4.93,-3.37 0.49,-0.55 1,-1.11 1.5,-1.66"
         fill="#04a8b4"
         id="path21" />
      <path
         transform="matrix(0.1,0,0,-0.1,0,568.0001)"
         d="m 1945.91,4023.21 c -0.79,-1.32 -1.39,-2.32 -1.99,-3.31 0.65,-0.43 1.7,-1.28 1.81,-1.19 1.51,1.27 0.9,2.7 0.18,4.5"
         fill="#04a8b4"
         id="path22" />
      <path
         transform="matrix(0.1,0,0,-0.1,0,568.0001)"
         d="m 1944.91,4033.86 c -1.39,-2.16 -0.76,-3.03 0.77,-5.28 -0.34,2.4 -0.47,3.29 -0.77,5.28"
         fill="#04a8b4"
         id="path23" />
      <path
         transform="matrix(0.1,0,0,-0.1,0,568.0001)"
         d="m 1736.47,3870.85 c 1.67,0.18 1.91,1.23 2.25,2.17 -1.08,-0.32 -2.26,-0.59 -2.25,-2.17"
         fill="#04a8b4"
         id="path24" />
      <path
         transform="matrix(0.1,0,0,-0.1,0,568.0001)"
         d="m 1950.25,3971.43 c 0.13,-0.94 0.25,-1.82 0.37,-2.71 0.64,1.12 1.11,2.14 -0.37,2.71"
         fill="#04a8b4"
         id="path25" />
      <path
         transform="matrix(0.1,0,0,-0.1,0,568.0001)"
         d="m 1398.42,3741.38 c 2.23,0.34 2.47,1.69 2.7,3.39 -1.92,-0.62 -3.09,-1.39 -2.7,-3.39"
         fill="#04a8b4"
         id="path26" />
      <path
         transform="matrix(0.1,0,0,-0.1,0,568.0001)"
         d="m 1888.23,3671.36 c 0.53,0.68 3.15,1.53 0.56,2.73 -0.2,-0.96 -0.38,-1.85 -0.56,-2.73"
         fill="#04a8b4"
         id="path27" />
      <path
         transform="matrix(0.1,0,0,-0.1,0,568.0001)"
         d="m 1649.71,3491.82 c -0.47,-0.56 -1.41,-1.04 -0.7,-1.87 0.17,-0.21 1.2,-0.09 1.55,0.19 0.39,0.3 0.69,1.01 0.58,1.45 -0.19,0.75 -0.88,0.45 -1.43,0.23"
         fill="#04a8b4"
         id="path28" />
      <path
         transform="matrix(0.1,0,0,-0.1,0,568.0001)"
         d="m 3250.23,3868.18 c 17.31,0 23.46,-9.5 21.79,-20.12 l -0.57,-5.58 c -2.24,-17.32 -7.25,-32.96 -14.53,-48.05 l -155.87,-310.64 c -8.37,-16.2 -21.78,-24.58 -39.67,-24.58 h -62.58 c -15.65,0 -20.67,12.29 -13.96,25.14 l 149.17,288.29 h -124.03 c -18.44,0 -26.83,8.93 -24.03,27.38 l 5.59,40.78 c 2.79,17.88 8.93,27.38 30.73,27.38"
         fill="#04a8b4"
         id="path29" />
      <path
         transform="matrix(0.1,0,0,-0.1,0,568.0001)"
         d="m 3377.06,3454.73 c -89.95,0 -131.85,48.05 -131.85,153.09 0,171.52 54.75,260.36 186.04,260.36 89.4,0 131.3,-50.85 131.3,-157.56 0,-172.08 -54.19,-255.89 -185.49,-255.89 z m 12.85,98.89 c 17.32,0 31.29,11.18 42.46,33.53 11.74,22.9 17.32,60.9 17.32,115.09 0,44.69 -10.61,67.04 -31.28,67.04 -34.09,0 -60.34,-42.45 -60.34,-151.41 0,-43.02 10.61,-64.25 31.84,-64.25"
         fill="#04a8b4"
         id="path30" />
    </g>
  </g>
</svg>
