<svg xmlns="http://www.w3.org/2000/svg" xmlns:xlink="http://www.w3.org/1999/xlink" xmlns:inkscape="http://www.inkscape.org/namespaces/inkscape" version="1.1" width="375.66" height="128.68741" viewBox="0 0 375.66 128.68741">
<defs>
<clipPath id="clip_0">
<path transform="matrix(1,0,0,-1,0,128.68741)" d="M0 0H375.6613V128.68741H0Z" clip-rule="evenodd"/>
</clipPath>
</defs>
<g clip-path="url(#clip_0)">
<path transform="matrix(.1,0,0,-.1,0,128.68741)" d="M3165.61 527.883C3203.86 528.84 3235.96 521.949 3262.01 507.219 3288.05 492.43 3308.24 473.66 3322.59 450.809 3324.95 447 3326.87 443.191 3328.32 439.383 3329.73 435.574 3331.42 431.77 3333.33 427.965 3336.2 420.344 3338.45 411.656 3340.13 401.914 3341.82 392.164 3342.77 382.031 3343 371.609 3343.23 361.141 3342.66 350.891 3341.2 340.918 3339.8 330.895 3337.38 322.102 3334.06 314.48 3329.28 302.105 3323.04 290.227 3315.39 278.801 3305.83 265.016 3294.86 253.09 3282.43 243.121 3270 233.152 3257.12 223.344 3243.74 213.879 3239.91 211.473 3235.96 208.84 3231.92 205.98 3227.87 203.121 3223.94 200.551 3220.11 198.145 3209.59 191.48 3199.42 184.813 3189.63 178.148 3179.84 171.477 3170.16 164.598 3160.6 157.477 3157.29 155.07 3154.25 152.715 3151.66 150.367 3149.02 147.953 3146.26 145.605 3143.39 143.191 3142.94 142.746 3142.55 142.242 3142.32 141.789 3142.1 141.285 3141.48 140.844 3140.52 140.34 3137.66 137.984 3134.67 135.246 3131.59 132.156 3128.48 129.023 3125.96 125.609 3124.05 121.797 3123.59 120.848 3122.98 119.785 3122.25 118.605 3121.57 117.371 3121.41 115.586 3121.91 113.23 3122.86 110.824 3124.55 109.195 3126.91 108.238 3129.34 107.293 3131.69 106.566 3134.12 106.109H3137.66C3140.07 105.105 3142.83 104.77 3145.93 104.996 3149.02 105.273 3151.78 105.391 3154.14 105.391H3186.42 3295.36C3302 105.391 3310.16 105.5 3319.71 105.727 3329.28 105.945 3335.97 104.66 3339.8 101.805 3342.16 99.8984 3343.84 97.0391 3344.8 93.2383 3345.76 89.418 3346.32 85.0547 3346.61 80.0156 3346.82 75.0273 3346.82 70.0469 3346.61 65.0586 3346.32 60.0664 3346.21 55.4297 3346.21 51.1094 3346.21 48.2578 3346.32 45.1758 3346.61 41.8711 3346.82 38.5078 3346.44 35.6523 3345.54 33.3047 3345.03 28.5391 3342.66 24.9531 3338.34 22.5977 3335.47 20.6914 3331.75 19.7461 3327.25 19.7461H3313.98 3264.55 3071.74 3016.57C3012.23 19.7461 3007.62 19.6289 3002.56 19.3555 2997.55 19.125 2993.39 19.7461 2990.02 21.1484 2985.23 23.5508 2982.26 27.3594 2981.08 32.5703 2979.89 37.7813 2980.01 43.4961 2981.46 49.7109 2981.46 51.1094 2981.59 52.6758 2981.8 54.3633 2982.03 55.9883 2982.15 57.5586 2982.15 59.0039 2983.09 62.7617 2984.06 66.8516 2985.01 71.1133 2985.97 75.4219 2986.92 79.4531 2987.88 83.2578 2995.07 104.156 3004.13 122.527 3015.11 138.211 3027.08 154.844 3041.14 169.742 3057.39 182.793 3073.65 195.906 3090.13 208.613 3106.83 220.996 3120.22 230.008 3133.49 238.98 3146.65 247.773 3159.76 256.559 3173.04 265.695 3186.42 275.211 3189.74 277.629 3192.72 279.973 3195.37 282.391 3198 284.734 3200.76 287.152 3203.63 289.496 3210.27 294.762 3216.51 301.031 3222.25 308.426 3227.98 315.82 3232.48 323.551 3235.86 331.621 3236.82 333.969 3237.55 336.27 3238 338.398 3238.5 340.523 3239.17 342.82 3240.14 345.172 3241.09 348.984 3241.82 354.188 3242.33 360.852 3242.78 367.52 3242.55 373.238 3241.6 378 3241.09 380.406 3240.64 382.98 3240.14 385.836 3239.68 388.695 3238.96 391.328 3238 393.73 3231.3 410.82 3221.07 423.418 3207.18 431.539 3204.31 433.445 3201.21 434.965 3197.89 436.195 3194.52 437.367 3190.92 438.434 3187.15 439.383 3184.73 440.336 3182.2 440.672 3179.62 440.445 3176.97 440.227 3174.21 440.563 3171.35 441.512 3168.02 442.465 3164.2 442.574 3159.88 441.902 3155.6 441.176 3152 440.336 3149.13 439.383 3130.52 433.672 3116.63 423.418 3107.57 408.691 3103.29 402.023 3099.91 395.027 3097.56 387.633 3095.13 380.297 3092.78 372.281 3090.35 363.715 3088.95 357.551 3088.11 351.223 3087.88 344.836 3087.6 338.398 3084.89 333.523 3079.61 330.223 3077.25 328.762 3073.98 327.926 3069.94 327.699 3065.89 327.473 3061.73 327.359 3057.39 327.359H3020.83C3015.61 327.359 3010.94 327.473 3006.89 327.699 3002.84 327.926 2999.35 329.207 2996.48 331.621 2994.13 333.074 2992.43 335.656 2991.48 339.461 2990.52 343.266 2990.52 346.855 2991.48 350.156V356.594C2991.93 359.453 2992.32 362.422 2992.55 365.508 2992.77 368.582 2993.16 371.609 2993.61 374.469 2995.07 380.629 2996.26 386.672 2997.21 392.621 2998.17 398.605 2999.8 404.156 3002.22 409.418 3003.69 413.68 3005.09 417.711 3006.55 421.574 3007.96 425.32 3009.36 429.137 3010.83 432.941 3012.23 435.801 3013.91 438.77 3015.84 441.902 3017.75 444.988 3019.66 447.957 3021.57 450.809 3031.13 466.492 3042.5 479.484 3055.59 489.684 3068.76 499.934 3084.39 508.836 3102.55 516.453 3109.25 518.859 3115.95 520.656 3122.64 521.828 3129.34 523.012 3136.25 524.578 3143.39 526.484 3145.81 526.484 3148.18 526.59 3150.59 526.816 3152.96 527.047 3155.38 527.438 3157.74 527.883 3158.69 527.883 3159.98 527.773 3161.68 527.547 3163.36 527.273 3164.66 527.438 3165.61 527.883" fill="#ed037c"/>
<path transform="matrix(.1,0,0,-.1,0,128.68741)" d="M3554.82 527.883C3578.67 528.84 3599.7 526.316 3617.87 520.383 3636.04 514.438 3652.29 506.934 3666.58 497.91 3669.45 496.012 3672.2 494 3674.84 491.871 3677.49 489.684 3680.19 487.441 3683.05 485.086 3696.95 475.059 3707.69 461.285 3715.34 443.699 3716.29 440.84 3717.47 437.98 3718.93 435.133 3720.34 432.27 3721.53 429.137 3722.48 425.836 3725.35 417.258 3727.04 406.559 3727.49 393.73 3728 380.848 3727.04 369.707 3724.68 360.184 3720.8 346.352 3715.79 334.695 3709.6 325.176 3708.14 323.27 3706.73 321.645 3705.27 320.199 3703.87 318.797 3702.46 317.34 3701 315.938 3699.09 313.078 3697.62 311.176 3696.72 310.219 3689.52 305.457 3683.57 300.695 3678.79 295.941 3677.82 294.988 3676.87 293.922 3675.91 292.746 3674.95 291.516 3674.73 289.996 3675.18 288.098 3675.18 285.688 3677.09 283.105 3680.92 280.258 3684.29 277.844 3687.61 275.711 3690.99 273.809 3694.3 271.91 3697.9 269.777 3701.73 267.371 3717.93 255.5 3730.13 239.313 3738.28 218.863 3740.14 214.559 3741.61 209.965 3742.56 204.914 3743.52 199.938 3744.47 194.844 3745.43 189.574 3746.39 187.219 3746.5 184.59 3745.77 181.73 3745.09 178.867 3745.2 176.02 3746.16 173.16 3746.61 171.262 3746.73 168.629 3746.5 165.324 3746.27 162.012 3745.88 159.379 3745.43 157.477 3745.43 153.219 3745.2 150.082 3744.7 148.18 3743.75 144.375 3742.91 140.559 3742.22 136.75 3741.49 132.945 3740.65 129.133 3739.7 125.387 3730.64 98.2148 3717.82 77.0469 3701.34 61.8633 3684.85 46.6328 3663.71 33.7461 3637.95 23.2773 3632.66 21.375 3627.43 19.8555 3622.14 18.6836 3616.91 17.4961 3611.39 16.1602 3605.66 14.7578 3603.3 13.8008 3600.77 13.3008 3598.18 13.3008 3595.54 13.3008 3593.01 12.8555 3590.65 11.9023 3586.82 11.9023 3583.11 11.7891 3579.51 11.5156 3575.96 11.2891 3572.25 10.9531 3568.43 10.4492 3566.52 9.99609 3563.76 9.89063 3560.16 10.1172 3556.56 10.3359 3553.86 10.668 3551.95 11.168H3539.74C3538.34 11.625 3536.65 11.7891 3534.74 11.5156 3532.83 11.2891 3531.14 11.3984 3529.73 11.9023 3525.91 12.8555 3522.08 13.5273 3518.26 14.0313 3514.44 14.4844 3510.84 15.2148 3507.52 16.1602 3505.61 17.1133 3503.8 17.6211 3502.12 17.6211 3500.43 17.6211 3498.91 17.8477 3497.45 18.2891 3492.22 19.7461 3487.32 21.2539 3482.77 22.9414 3478.21 24.6172 3473.83 26.4102 3469.49 28.3164 3451.32 36.3789 3435.59 47.1914 3422.19 60.7383 3408.81 74.3555 3398.07 90.1523 3389.96 108.238 3387.55 113.457 3385.63 118.938 3384.23 124.656 3382.82 130.363 3381.14 136.309 3379.23 142.469 3378.27 144.875 3377.87 147.34 3378.16 149.973 3378.38 152.605 3378.05 155.07 3377.09 157.477 3376.08 160.781 3375.63 164.703 3375.63 169.234 3375.63 173.781 3376.08 177.695 3377.09 181 3379.96 187.219 3386.36 190.414 3396.43 190.641 3406.44 190.918 3416 191.027 3425.06 191.027 3428.44 191.027 3431.98 191.141 3435.8 191.359 3439.64 191.586 3443 191.254 3445.88 190.297H3453.75C3458.98 189.352 3462.59 188.176 3464.49 186.719 3468.32 184.363 3470.56 180.664 3471.3 175.688 3472.03 170.695 3473.32 165.539 3475.23 160.336 3477.65 153.672 3479.79 147.617 3481.7 142.125 3483.61 136.645 3486.48 131.324 3490.3 126.055 3498.91 113.23 3512.02 103.477 3529.73 96.8125 3532.6 95.8711 3535.48 95.2461 3538.34 95.0195 3541.21 94.8047 3544.02 94.1797 3546.89 93.2383H3550.49C3555.27 92.2813 3560.55 92.0508 3566.3 92.5078 3571.97 93.0117 3576.75 93.9648 3580.57 95.3633 3585.36 96.3086 3589.41 97.2695 3592.79 98.2148 3602.35 102.031 3610.72 107.176 3617.87 113.563 3625.01 120.004 3630.52 127.961 3634.34 137.48 3635.76 140.34 3636.88 143.418 3637.55 146.781 3638.29 150.082 3639.13 153.672 3640.09 157.477 3641.04 159.836 3641.6 163.637 3641.89 168.902 3642.11 174.117 3641.77 178.148 3640.82 181 3640.82 181.953 3640.65 182.91 3640.43 183.855 3640.19 184.813 3640.09 185.762 3640.09 186.719 3639.58 189.125 3639.13 191.586 3638.62 194.223 3638.18 196.855 3637.44 199.316 3636.48 201.723 3631.7 212.645 3625.4 221.105 3617.53 227.039 3609.61 232.984 3599.48 237.855 3587.04 241.723 3583.68 242.617 3580.24 243.121 3576.64 243.121 3573.09 243.121 3569.38 243.563 3565.56 244.582 3564.09 245.02 3562.58 245.25 3560.9 245.25H3556.96 3550.49C3549.08 245.754 3547.5 245.859 3545.82 245.645 3544.13 245.359 3542.84 245.477 3541.88 245.98 3538.06 246.926 3534.96 248.109 3532.6 249.555 3530.18 250.957 3528.5 253.09 3527.54 255.945 3526.59 258.352 3526.02 261.211 3525.79 264.516 3525.52 267.875 3525.41 271.406 3525.41 275.211 3525.41 281.43 3525.52 287.816 3525.79 294.484 3526.02 301.148 3527.32 306.414 3529.73 310.219 3531.14 312.117 3533.89 313.52 3537.95 314.48 3542 315.438 3546.43 316.164 3551.21 316.609 3556 317.109 3560.67 317.445 3565.16 317.73 3569.73 317.945 3573.43 318.508 3576.3 319.469 3589.69 323.27 3600.55 327.926 3608.92 333.406 3617.25 338.844 3623.83 347.801 3628.61 360.184 3629.57 363.043 3630.52 367.301 3631.48 373.012 3632.43 378.727 3632.43 383.934 3631.48 388.695 3630.52 392.5 3629.57 396.426 3628.61 400.516 3627.65 404.551 3625.97 408.246 3623.6 411.547 3615 426.277 3601.84 436.527 3584.18 442.238 3581.76 443.191 3579.51 443.699 3577.37 443.699 3575.23 443.699 3572.93 444.145 3570.57 445.098 3566.74 446.055 3562.08 446.273 3556.56 445.828 3551.11 445.324 3546.66 444.594 3543.35 443.699 3540.93 442.691 3538.9 442.129 3537.21 441.902 3535.58 441.625 3533.55 441.066 3531.14 440.109 3516.79 434.398 3505.61 425.32 3497.45 413.008 3494.58 408.691 3492.33 404.156 3490.65 399.449 3488.96 394.691 3487.44 389.641 3485.98 384.438 3484.57 379.172 3483.39 374.301 3482.43 369.816 3481.48 365.281 3479.05 361.813 3475.23 359.453 3473.83 358.508 3470.68 357.551 3465.95 356.594H3458.02C3455.66 356.09 3452.79 355.984 3449.48 356.262 3446.1 356.484 3443 356.594 3440.14 356.594 3432.49 356.594 3423.99 356.379 3414.72 355.875 3405.38 355.422 3398.29 357.051 3393.56 360.852 3391.65 362.313 3390.2 365.055 3389.23 369.086 3388.28 373.117 3388.28 377.043 3389.23 380.848 3390.2 383.262 3390.7 385.609 3390.7 388.027 3390.7 390.371 3391.14 392.727 3392.11 395.133 3393.56 400.848 3394.98 406.449 3396.43 411.941 3397.84 417.375 3399.75 422.75 3402.18 427.965 3412.18 450.809 3424.84 469.461 3440.14 483.973 3455.43 498.535 3475.23 510.297 3499.59 519.316 3504.88 521.219 3510.5 522.676 3516.46 523.625 3522.43 524.578 3528.5 525.527 3534.74 526.484 3538.56 526.93 3542 527.273 3545.14 527.547 3548.23 527.773 3551.45 527.883 3554.82 527.883" fill="#ed037c"/>
<path transform="matrix(.1,0,0,-.1,0,128.68741)" d="M1820.06 892.77C1820.06 768.074 1718.56 666.98 1593.34 666.98 1468.12 666.98 1366.61 768.074 1366.61 892.77 1366.61 1017.46 1468.12 1118.55 1593.34 1118.55 1718.56 1118.55 1820.06 1017.46 1820.06 892.77" fill="#ffffff"/>
<path transform="matrix(.1,0,0,-.1,0,128.68741)" d="M122.375 316.738C140.652 327.941 161.688 333.598 185.031 333.598 203.699 333.598 220.918 330.066 236.211 323.07 251.457 316.129 265.684 305.48 278.504 291.484 289.473 279.719 302.473 277.867 313.66 285.199 321.813 291.027 325.977 297.977 325.977 305.816 325.977 311.75 324.016 317.02 320.129 321.336 285.652 363.57 240.203 384.965 185.031 384.965 151.953 384.965 121.699 376.961 95.1484 361.105 68.6094 345.25 47.5703 323.07 32.6133 295.117 17.5938 267.227 10 235.297 10 200.238 10 166.066 17.9297 134.535 33.5625 106.59 49.2031 78.6875 71.0859 56.457 98.4648 40.375 125.801 24.3047 157.074 16.1836 191.555 16.1836 240.035 16.1836 280.813 31.1406 312.586 60.5977 317.539 65.0234 320.074 70.5742 320.074 77.0625 320.074 84.4531 316.637 91.0703 309.836 96.8945 299.492 105.234 285.711 104.738 274.066 94.8164 253.367 76.6758 225.578 67.4883 191.555 67.4883 166.863 67.4883 144.695 73.3164 125.582 84.7422 106.457 96.168 91.4375 112.129 80.8633 132.184 70.2305 152.297 64.8398 175.195 64.8398 200.238 64.8398 225.723 69.8945 248.969 79.9063 269.406 89.8633 289.625 104.148 305.598 122.375 316.738" fill="#172063"/>
<path transform="matrix(.1,0,0,-.1,0,128.68741)" d="M398.984 381.715C390.824 381.715 384.023 379.023 378.676 373.707 373.332 368.383 370.629 361.555 370.629 353.43V47.7148C370.629 39.4844 373.332 32.6992 378.676 27.4375 384.023 22.1211 390.824 19.4297 398.984 19.4297 407.199 19.4297 413.941 22.1211 419.059 27.4375 424.18 32.7578 426.77 39.5898 426.77 47.7148V353.43C426.77 361.492 424.18 368.328 419.059 373.652 413.941 379.023 407.199 381.715 398.984 381.715" fill="#172063"/>
<path transform="matrix(.1,0,0,-.1,0,128.68741)" d="M398.984 520.512C388.242 520.512 379.016 516.98 371.543 510.039 363.938 502.98 360.117 493.73 360.117 482.477 360.117 471.727 363.824 462.48 371.082 455.039 378.398 447.586 387.566 443.781 398.367 443.781 409.109 443.781 418.387 447.527 425.918 455.039 433.465 462.48 437.223 471.727 437.223 482.477 437.223 493.73 433.406 502.98 425.871 510.039 418.328 516.98 409.277 520.512 398.984 520.512" fill="#172063"/>
<path transform="matrix(.1,0,0,-.1,0,128.68741)" d="M656.242 67.4883C631.996 67.4883 609.734 73.375 589.984 85.0156 570.242 96.6719 554.492 112.75 543.246 132.855 532 152.906 526.258 175.816 526.258 200.906 526.258 225.953 532 248.852 543.246 268.906 554.551 289.066 570.301 305.035 589.984 316.406 609.613 327.832 631.891 333.598 656.242 333.598 689.82 333.598 718.789 322.844 742.352 301.727 765.922 280.559 780.035 253.109 784.316 220.457 784.316 218.832 784.531 217.488 784.988 216.426 785.371 213.008 785.602 207.801 785.602 200.906 785.602 175.867 779.871 153.016 768.563 132.855 757.367 112.797 741.734 96.6719 722.215 85.0156 702.645 73.375 680.426 67.4883 656.242 67.4883ZM840.434 505.953C840.434 514.016 837.852 520.848 832.734 526.168 827.613 531.543 820.863 534.238 812.656 534.238 804.5 534.238 797.699 531.543 792.355 526.219 787.008 520.906 784.316 514.066 784.316 505.953V323.402C769.684 341.328 751.516 355.891 730.199 366.754 706.297 378.859 679.645 384.965 651.012 384.965 617.484 384.965 586.727 376.84 559.563 360.77 532.336 344.688 510.629 322.402 494.984 294.496 479.355 266.605 471.426 235.129 471.426 200.906 471.426 166.629 479.582 134.98 495.719 106.926 511.805 78.8047 534.188 56.3984 562.145 40.375 590.152 24.3047 621.82 16.1836 656.242 16.1836 690.664 16.1836 722.332 24.3047 750.34 40.375 778.293 56.3984 800.68 78.7461 816.816 106.926 832.898 135.043 841.059 166.629 841.059 200.906V354.047C841.059 356.621 840.891 358.75 840.434 360.316" fill="#172063"/>
<path transform="matrix(.1,0,0,-.1,0,128.68741)" d="M1060.07 67.4883C1035.83 67.4883 1013.51 73.3164 993.816 84.7422 974.074 96.1094 958.324 112.129 947.078 132.242 935.836 152.234 930.094 175.145 930.094 200.238 930.094 225.328 935.836 248.242 947.078 268.234 958.324 288.395 974.074 304.473 993.816 316.07 1013.45 327.723 1035.78 333.598 1060.07 333.598 1084.37 333.598 1106.59 327.723 1126.05 316.07 1145.56 304.473 1161.2 288.348 1172.39 268.234 1183.7 248.125 1189.44 225.27 1189.44 200.238 1189.44 175.195 1183.7 152.344 1172.39 132.242 1161.2 112.129 1145.56 96.168 1126.05 84.7422 1106.54 73.3164 1084.31 67.4883 1060.07 67.4883ZM1154.18 360.77H1154.11C1126.05 376.84 1094.44 384.965 1060.07 384.965 1025.71 384.965 994.102 376.84 965.98 360.77 938.02 344.75 915.637 322.34 899.551 294.223 883.414 266.164 875.258 234.516 875.258 200.238 875.258 166.066 883.188 134.535 898.816 106.59 914.461 78.6875 936.23 56.457 963.395 40.375 990.441 24.3047 1021.27 16.1836 1054.84 16.1836 1083.59 16.1836 1110.25 22.2852 1134.03 34.3828 1155.29 45.1367 1173.46 59.6992 1188.14 77.7383V47.0391C1188.14 38.8672 1190.84 32.1406 1196.23 27.0469 1201.53 22.0117 1208.39 19.4297 1216.49 19.4297 1224.65 19.4297 1231.51 22.1172 1236.84 27.4414 1242.19 32.707 1244.89 39.2656 1244.89 47.0391V200.238C1244.89 234.516 1236.73 266.105 1220.65 294.223 1204.52 322.402 1182.12 344.75 1154.18 360.77" fill="#172063"/>
<path transform="matrix(.1,0,0,-.1,0,128.68741)" d="M1444.28 67.4883C1420.03 67.4883 1397.77 73.375 1378.02 85.0156 1358.28 96.6719 1342.53 112.75 1331.28 132.855 1320.04 152.906 1314.29 175.816 1314.29 200.906 1314.29 225.953 1320.04 248.852 1331.28 268.906 1342.59 289.066 1358.34 305.035 1378.02 316.406 1397.65 327.832 1419.93 333.598 1444.28 333.598 1477.86 333.598 1506.82 322.844 1530.38 301.727 1553.95 280.559 1568.07 253.109 1572.35 220.457 1572.35 218.832 1572.57 217.488 1573.02 216.426 1573.41 213.008 1573.64 207.801 1573.64 200.906 1573.64 175.867 1567.9 153.016 1556.6 132.855 1545.4 112.797 1529.77 96.6719 1510.25 85.0156 1490.68 73.375 1468.46 67.4883 1444.28 67.4883ZM1628.47 505.953C1628.47 507.559 1627.91 508.891 1627.7 510.398 1824.3 527.789 1979.03 692.5 1979.03 892.742 1979.03 906.805 1978.3 920.586 1976.83 934.191 1974.98 951.051 1960.7 963.828 1943.65 963.828H1943.48C1940.16 963.828 1614.74 958.336 1566.25 637.559 1563.5 619.41 1576.1 602.488 1594.32 599.746 1612.21 597.34 1629.53 609.547 1632.28 627.699 1664.35 839.98 1839.32 885.18 1912.27 894.754 1912.33 894.082 1912.33 893.414 1912.33 892.742 1912.33 717.594 1769.23 575.102 1593.36 575.102 1417.49 575.102 1274.35 717.594 1274.35 892.742 1274.35 1067.89 1417.49 1210.45 1593.36 1210.45 1655.52 1210.45 1714.57 1193.08 1765.98 1159.98 1719.29 1102.62 1586.45 974.688 1383.63 1061.28 1366.59 1068.34 1347.07 1060.67 1339.76 1043.81 1332.56 1026.89 1340.38 1007.34 1357.31 1000.12 1661.92 870.563 1839.27 1146.92 1841.07 1149.78 1850 1164.12 1846.74 1182.88 1833.46 1193.36 1764.51 1248.03 1681.49 1276.88 1593.36 1276.88 1380.65 1276.88 1207.64 1104.58 1207.64 892.742 1207.64 687.797 1369.79 520.336 1573.02 509.699 1572.86 508.402 1572.35 507.313 1572.35 505.953V323.402C1557.72 341.328 1539.55 355.891 1518.24 366.754 1494.33 378.859 1467.67 384.965 1439.05 384.965 1405.52 384.965 1374.76 376.84 1347.6 360.77 1320.37 344.688 1298.66 322.402 1283.02 294.496 1267.39 266.605 1259.46 235.129 1259.46 200.906 1259.46 166.629 1267.62 134.98 1283.75 106.926 1299.84 78.8047 1322.22 56.3984 1350.18 40.375 1378.18 24.3047 1409.86 16.1836 1444.28 16.1836 1478.7 16.1836 1510.37 24.3047 1538.37 40.375 1566.33 56.3984 1588.71 78.7461 1604.85 106.926 1620.94 135.043 1629.1 166.629 1629.1 200.906V354.047C1629.1 356.621 1628.93 358.75 1628.47 360.316" fill="#172063"/>
<path transform="matrix(.1,0,0,-.1,0,128.68741)" d="M1848.11 67.4883C1823.86 67.4883 1801.54 73.3164 1781.85 84.7422 1762.11 96.1094 1746.36 112.129 1735.11 132.242 1723.87 152.234 1718.13 175.145 1718.13 200.238 1718.13 225.328 1723.87 248.242 1735.11 268.234 1746.36 288.395 1762.11 304.473 1781.85 316.07 1801.48 327.723 1823.82 333.598 1848.11 333.598 1872.4 333.598 1894.62 327.723 1914.08 316.07 1933.59 304.473 1949.23 288.348 1960.42 268.234 1971.74 248.125 1977.47 225.27 1977.47 200.238 1977.47 175.195 1971.74 152.344 1960.42 132.242 1949.23 112.129 1933.59 96.168 1914.08 84.7422 1894.57 73.3164 1872.34 67.4883 1848.11 67.4883ZM1942.21 360.77H1942.14C1914.08 376.84 1882.47 384.965 1848.11 384.965 1813.75 384.965 1782.14 376.84 1754.01 360.77 1726.05 344.75 1703.67 322.34 1687.59 294.223 1671.45 266.164 1663.29 234.516 1663.29 200.238 1663.29 166.066 1671.22 134.535 1686.85 106.59 1702.49 78.6875 1724.26 56.457 1751.43 40.375 1778.47 24.3047 1809.3 16.1836 1842.87 16.1836 1871.62 16.1836 1898.28 22.2852 1922.07 34.3828 1943.32 45.1367 1961.5 59.6992 1976.17 77.7383V47.0391C1976.17 38.8672 1978.88 32.1406 1984.27 27.0469 1989.57 22.0117 1996.43 19.4297 2004.52 19.4297 2012.68 19.4297 2019.54 22.1172 2024.88 27.4414 2030.23 32.707 2032.93 39.2656 2032.93 47.0391V200.238C2032.93 234.516 2024.77 266.105 2008.68 294.223 1992.55 322.402 1970.15 344.75 1942.21 360.77" fill="#172063"/>
<path transform="matrix(.1,0,0,-.1,0,128.68741)" d="M2323.65 365.695C2298.67 378.914 2270.16 385.641 2238.83 385.641 2214.6 385.641 2191.76 380.93 2170.89 371.688 2152.45 363.457 2136.19 352.305 2122.58 338.531V353.43C2122.58 361.555 2120 368.383 2114.93 373.652 2109.8 379.027 2103.07 381.715 2094.85 381.715 2086.75 381.715 2079.89 379.027 2074.5 373.699 2069.15 368.328 2066.45 361.496 2066.45 353.43V47.0469C2066.45 38.9219 2069.15 32.1992 2074.54 27.0547 2079.95 22.0078 2086.75 19.4336 2094.85 19.4336 2103.01 19.4336 2109.76 22.0078 2114.88 27.1016 2120 32.1992 2122.58 38.9219 2122.58 47.0469V240.008C2122.58 257.09 2127.47 272.887 2137.14 286.941 2146.76 300.941 2160.15 312.152 2176.91 320.219 2193.73 328.219 2212.86 332.313 2233.61 332.313 2267.63 332.313 2295.48 322.348 2316.39 302.797 2337.27 283.188 2347.89 254.172 2347.89 216.527V47.0469C2347.89 39.3672 2350.59 32.7578 2355.94 27.4375 2361.33 22.125 2368.2 19.4336 2376.3 19.4336 2384 19.4336 2390.64 22.125 2396.04 27.4375 2401.39 32.7578 2404.08 39.3672 2404.08 47.0469V216.527C2404.08 251.535 2396.94 282.184 2382.76 307.559 2368.59 332.922 2348.68 352.477 2323.65 365.695" fill="#172063"/>
<path transform="matrix(.1,0,0,-.1,0,128.68741)" d="M2489.52 520.512C2478.77 520.512 2469.55 516.98 2462.07 510.039 2454.48 502.98 2450.65 493.73 2450.65 482.477 2450.65 471.727 2454.36 462.48 2461.62 455.039 2468.93 447.586 2478.1 443.781 2488.9 443.781 2499.64 443.781 2508.92 447.527 2516.45 455.039 2523.99 462.48 2527.77 471.727 2527.77 482.477 2527.77 493.73 2523.94 502.98 2516.4 510.039 2508.87 516.98 2499.81 520.512 2489.52 520.512" fill="#172063"/>
<path transform="matrix(.1,0,0,-.1,0,128.68741)" d="M2489.52 381.715C2481.36 381.715 2474.55 379.023 2469.21 373.707 2463.86 368.383 2461.17 361.555 2461.17 353.43V47.7148C2461.17 39.4844 2463.86 32.6992 2469.21 27.4375 2474.55 22.1211 2481.36 19.4297 2489.52 19.4297 2497.73 19.4297 2504.47 22.1211 2509.59 27.4375 2514.71 32.7578 2517.3 39.5898 2517.3 47.7148V353.43C2517.3 361.492 2514.71 368.328 2509.59 373.652 2504.47 379.023 2497.73 381.715 2489.52 381.715" fill="#172063"/>
<path transform="matrix(.1,0,0,-.1,0,128.68741)" d="M2746.77 67.4883C2722.54 67.4883 2700.21 73.3164 2680.52 84.7422 2660.78 96.1094 2645.02 112.129 2633.78 132.242 2622.53 152.234 2616.79 175.145 2616.79 200.238 2616.79 225.328 2622.53 248.242 2633.78 268.234 2645.02 288.395 2660.78 304.473 2680.52 316.07 2700.15 327.723 2722.48 333.598 2746.77 333.598 2771.07 333.598 2793.28 327.723 2812.75 316.07 2832.27 304.473 2847.9 288.348 2859.1 268.234 2870.4 248.125 2876.13 225.27 2876.13 200.238 2876.13 175.195 2870.4 152.344 2859.1 132.242 2847.9 112.129 2832.27 96.168 2812.75 84.7422 2793.23 73.3164 2771.02 67.4883 2746.77 67.4883ZM2907.35 294.223C2891.21 322.402 2868.83 344.75 2840.87 360.77H2840.81C2812.75 376.84 2781.14 384.965 2746.77 384.965 2712.41 384.965 2680.8 376.84 2652.68 360.77 2624.73 344.75 2602.34 322.34 2586.25 294.223 2570.12 266.164 2561.96 234.516 2561.96 200.238 2561.96 166.066 2569.88 134.535 2585.53 106.59 2601.16 78.6875 2622.93 56.457 2650.09 40.375 2677.15 24.3047 2707.97 16.1836 2741.55 16.1836 2770.29 16.1836 2796.95 22.2852 2820.73 34.3828 2842 45.1367 2860.16 59.6992 2874.85 77.7383V47.0391C2874.85 38.8672 2877.54 32.1406 2882.95 27.0469 2888.23 22.0117 2895.09 19.4297 2903.19 19.4297 2911.35 19.4297 2918.21 22.1172 2923.55 27.4414 2928.89 32.707 2931.59 39.2656 2931.59 47.0391V200.238C2931.59 234.516 2923.43 266.105 2907.35 294.223" fill="#172063"/>
</g>
</svg>