<?xml version="1.0" encoding="UTF-8"?>
<!-- Created with Inkscape (http://www.inkscape.org/) -->
<svg id="svg8" width="27.599865mm" height="19.784275mm" version="1.1" viewBox="0 0 27.599865 19.784275" xmlns="http://www.w3.org/2000/svg" xmlns:cc="http://creativecommons.org/ns#" xmlns:dc="http://purl.org/dc/elements/1.1/" xmlns:rdf="http://www.w3.org/1999/02/22-rdf-syntax-ns#" xmlns:xlink="http://www.w3.org/1999/xlink">
 <defs id="defs2">
  <linearGradient id="grad1-7" x1="74.517181" x2="245.43863" y1="923.64105" y2="923.64105" gradientTransform="scale(2.6009764 .38447099)" gradientUnits="userSpaceOnUse">
   <stop id="stop2-8" stop-color="#b5500b" offset="0"/>
   <stop id="stop4-4" stop-color="#f07c00" offset=".15"/>
   <stop id="stop6-7" stop-color="#f07c00" offset=".23"/>
   <stop id="stop8-8" stop-color="#ffcb00" offset=".48"/>
   <stop id="stop10-2" stop-color="#ffec00" offset="1"/>
  </linearGradient>
  <linearGradient id="grad2-6" x1="74.898613" x2="251.87135" y1="881.42273" y2="881.42273" gradientTransform="scale(2.5603762 .39056761)" gradientUnits="userSpaceOnUse">
   <stop id="stop17-0" stop-color="#f07c00" offset="0"/>
   <stop id="stop19-9" stop-color="#ffcb00" offset=".18"/>
   <stop id="stop21-5" stop-color="#ffec00" offset="1"/>
  </linearGradient>
  <linearGradient id="grad3-5" x1="91.537155" x2="268.98984" y1="931.17017" y2="931.17017" gradientTransform="scale(2.3842539 .41941842)" gradientUnits="userSpaceOnUse">
   <stop id="stop28-5" stop-color="#003912" offset="0"/>
   <stop id="stop30-5" stop-color="#003912" offset=".15"/>
   <stop id="stop32-4" stop-color="#5d6e0a" offset=".22"/>
   <stop id="stop34-1" stop-color="#006828" offset=".48"/>
   <stop id="stop36-8" stop-color="#b1c900" offset="1"/>
  </linearGradient>
  <linearGradient id="grad4-9" x1="93.171898" x2="279.30661" y1="876.60718" y2="876.60718" gradientTransform="scale(2.321533 .43074984)" gradientUnits="userSpaceOnUse">
   <stop id="stop43-6" stop-color="#003912" offset="0"/>
   <stop id="stop45-9" stop-color="#5d6e0a" offset=".15"/>
   <stop id="stop47-3" stop-color="#009035" offset=".38"/>
   <stop id="stop49-4" stop-color="#b1c900" offset="1"/>
  </linearGradient>
  <linearGradient id="grad8-83" x1="612.72272" x2="612.72272" y1="52.270145" y2="194.22028" gradientTransform="matrix(.98411744 0 0 2.5798495 -268.52513 -134.84909)" gradientUnits="userSpaceOnUse">
   <stop id="stop78-4" stop-color="#9d1012" offset="0"/>
   <stop id="stop80-0" stop-color="#e30016" offset=".3"/>
   <stop id="stop82-8" stop-color="#e30016" offset=".41"/>
   <stop id="stop84-5" stop-color="#9d1012" offset=".56"/>
   <stop id="stop86-2" stop-color="#e30016" offset="1"/>
  </linearGradient>
  <linearGradient id="grad6-05" x1="609.25671" x2="609.25671" y1="57.302689" y2="202.034" gradientTransform="matrix(.99021585 0 0 2.5639611 -268.52513 -134.84909)" gradientUnits="userSpaceOnUse">
   <stop id="stop58-6" stop-color="#ffcb00" offset="0"/>
   <stop id="stop60-4" stop-color="#e30016" offset=".08"/>
   <stop id="stop62-7" stop-color="#f07c00" offset=".32"/>
   <stop id="stop64-5" stop-color="#ffcb00" offset=".58"/>
   <stop id="stop66-1" stop-color="#e30016" offset=".78"/>
   <stop id="stop68-6" stop-color="#000200" offset=".94"/>
   <stop id="stop70-2" stop-color="#000200" offset="1"/>
  </linearGradient>
 </defs>
 <metadata id="metadata5">
  <rdf:RDF>
   <cc:Work rdf:about="">
    <dc:format>image/svg+xml</dc:format>
    <dc:type rdf:resource="http://purl.org/dc/dcmitype/StillImage"/>
   </cc:Work>
  </rdf:RDF>
 </metadata>
 <g id="layer1" transform="translate(-79.944334,-31.628834)">
  <g id="g527" transform="matrix(.0277901 0 0 .0277901 78.907999 31.628834)">
   <g id="Layer1001-3" transform="matrix(2.174866,0,0,2.174866,-379.77953,-299.34422)">
    <path id="path15-2" d="m638.3801 383.1229c-9.9064 14.4935-4.1962 9.7902-15.5624 18.3513-76.0115-10.6805-313.411-5.1394-419.6547 18.8998-14.4566 4.93-9.2593-31.5655-3.5129-49.6474 67.3687-7.2609 136.6197-17.0374 203.4322-15.44 83.6036-0.4677 179.484 16.9218 235.2978 27.8363z" fill="url(#grad1-7)"/>
    <path id="path26-2" d="m643.3831 356.9024c5.1467 9.8061-3.5832 29.5919-16.2546 40.0001-63.6481-19.7732-323.4189-9.2673-432.6522 16.4725-5.7818-20.2467-1.4305-40.6699 4.8685-56.9152 91.8534-11.3552 292.1426-20.7457 444.0383 0.4426z" fill="url(#grad2-6)"/>
    <path id="path41-0" d="m641.3401 409.4828c-9.4322 14.8892-3.9964 9.956-14.8161 18.9751-72.3361-7.5833-298.2683 7.6115-399.3866 35.9601-13.7597 5.5156-8.8024-31.173-3.3282-49.4796 64.1164-9.9975 130.0247-22.5859 193.609-23.7071 79.5648-3.868 170.8078 9.6127 223.9219 18.2515z" fill="url(#grad3-5)"/>
    <path id="path54-8" d="m647.4351 383.3764c4.0082 13.4239-4.7448 29.4183-16.8072 40.3368-60.5672-17.1744-307.7915 3.8926-411.7554 34.0627-5.4964-20.0014-1.349-40.5914 4.6506-57.0847 87.4193-15.0857 279.361-32.3139 423.912-17.3148z" fill="url(#grad4-9)"/>
   </g>
   <g id="Layer1000-0" transform="matrix(1.8668911,0,0,1.8668911,-30.890631,328.43869)" fill="#000000" stroke="#ffffff">
    <g id="Layer1001-6" fill="#000000" stroke="#ffffff">
     <path id="path56-2" d="m369.11314 85.528748 6.84562-43.056526c-4.39301 10.438671-9.67939 18.78159-15.82465 25.04305-6.45506 6.491312-13.84928 11.145196-22.21766 13.88542-8.33221 2.737899-21.39317 4.128056-39.10951 4.128056h-69.88645l14.63611-118.862215-38.06008 118.862215h-30.32154l-1.87717-119.08707-22.66979 119.08707h-38.58114l18.51362-80.4696818s15.53998-69.2260412 18.41752-80.0513492h52.469l0.45088 84.6701379 27.24628-84.6701379h52.24402l-10.68072 124.811201 19.84474-124.811201h33.96595c21.39074 0 37.19342 4.993434 47.32566 14.937189 8.35454 8.2008 13.26279 20.069138 14.75091 35.629301l8.03951-50.56649h41.4364c20.07935 0 34.52674 2.890128 43.30881 8.66957 8.82051 5.82023 13.212 15.236881 13.212 28.260294 0 10.54802-2.85154 19.103943-8.5945 25.632672-5.70541 6.4936376-14.30003 11.0351509-25.70866 13.5119386 8.40717 2.3293238 14.93719 6.4924747 19.51599 12.4227504 4.57778 5.931671 6.86724 13.137294 6.86724 21.543312 0 7.544007-1.5762 14.677235-4.7251 21.394333-3.15509 6.716285-7.58527 12.348032-13.32462 16.890707-5.25839 4.312938-11.48476 7.430363-18.61799 9.342629-7.16808 1.915867-16.69826 2.852825-28.63621 2.852825zm-52.62518-39.59409c0.29632 0.07368 0.59961 0.112371 0.93568 0.148742 0.33862 0.03858 0.82563 0.076 1.50125 0.076 2.62809 0 5.14369-0.637034 7.50683-1.879611 2.40195-1.235372 4.39148-2.961594 6.00511-5.177385 2.62436-3.487302 5.17738-10.656552 7.58166-21.465685 2.43948-10.8116875 3.64081-21.5818908 3.64081-32.278653 0-6.944395-1.12765-12.049384-3.33856-15.315552-2.25554-3.261168-5.85789-5.062226-10.85015-5.438149zm102.20498 6.041484c0.75066 0.149905 1.50135 0.263553 2.32687 0.338505 0.79066 0.0725 1.80257 0.11237 3.0778 0.11237 5.25083 0 9.26895-1.763524 12.00685-5.290802 2.74151-3.52844 4.12933-8.559524 4.12933-15.164481 0-5.066062-1.23549-8.855614-3.75212-11.373422-2.47807-2.514438-6.23137-3.788508-11.29511-3.788508h-1.31521zm9.90621-65.080457c0.56429 0.07728 1.2026 0.11237 1.83964 0.153506 0.67689 0.03509 1.69112 0.0738 3.08001 0.0738 4.99005 0 8.93195-1.427575 11.81976-4.242867 2.89129-2.816453 4.35406-6.64354 4.35406-11.4837 0-4.092847-1.16412-7.206668-3.45244-9.268955-2.3256-2.102143-5.70309-3.152518-10.16953-3.152518-0.37593 0-0.90186 0.03509-1.54006 0.110046-0.67446 0.076-1.16403 0.114695-1.42642 0.114695z" fill="#000000" fill-rule="evenodd" stroke="none"/>
    </g>
   </g>
   <path id="path76-8" d="m470.71224 12.07276c22.15952 116.62875-9.26126 156.35502-46.06063 189.29555-42.27457 37.84146-81.10807 98.94635-69.19832 181.78993-43.26967-137.31139-11.17902-201.8288 28.01665-234.56474 28.54614-23.8412 82.84136-42.13038 87.2423-136.52074z" fill="url(#grad6-05)" stroke-width="1.59338"/>
   <path id="path92-1" d="m469.08315 0c17.92272 118.45717-14.84175 162.62231-47.6403 192.89995-32.73529 30.21887-79.86029 82.60363-71.96299 173.31009-34.33811-131.96861-4.19475-180.59376 34.42348-218.70658 37.43004-36.93992 82.82145-64.00404 85.17981-147.50346z" fill="url(#grad8-83)" stroke-width="1.59338"/>
  </g>
 </g>
</svg>
