<?xml version="1.0" encoding="UTF-8" standalone="no"?>
<!-- Created with Inkscape (http://www.inkscape.org/) -->

<svg
   version="1.1"
   id="svg2"
   xml:space="preserve"
   width="1000"
   height="138.29312"
   viewBox="0 0 999.99999 138.29312"
   xmlns="http://www.w3.org/2000/svg"
   xmlns:svg="http://www.w3.org/2000/svg"><defs
     id="defs6"><clipPath
       clipPathUnits="userSpaceOnUse"
       id="clipPath18"><path
         d="M 0,595.276 H 841.89 V 0 H 0 Z"
         id="path16" /></clipPath><clipPath
       clipPathUnits="userSpaceOnUse"
       id="clipPath114"><path
         d="M 0,0 H 841.89 V 595.276 H 0 Z"
         id="path112" /></clipPath><clipPath
       clipPathUnits="userSpaceOnUse"
       id="clipPath134"><path
         d="M 0,0 H 841.89 V 595.276 H 0 Z"
         id="path132" /></clipPath></defs><g
     id="g2370"
     style="display:inline"
     transform="matrix(1.6332291,0,0,1.6332291,-416.66526,-312.60333)"><path
       d="m 279.90679,274.60334 v -25.77067 h 18.89867 c 19.14266,0 29.45066,-12.76133 29.45066,-27.97866 0,-15.33867 -10.308,-28.10133 -29.45066,-28.10133 h -43.688 v 81.85066 z m 550.22399,-28.528 c 6.37066,0 11.084,1.3 14.13866,3.9 3.056,2.60133 4.584,6.068 4.584,10.40133 0,2.81734 -0.72666,5.40667 -2.17866,7.768 -1.452,2.36267 -3.66134,4.248 -6.63067,5.656 -2.968,1.408 -6.64133,2.11334 -11.01867,2.11334 -3.20666,0 -6.38133,-0.39067 -9.524,-1.17067 -3.14133,-0.78 -5.83866,-1.88533 -8.09333,-3.31467 l 4.616,-9.68666 c 1.82,1.21333 3.82533,2.14533 6.01333,2.79466 2.18934,0.65067 4.388,0.976 6.59867,0.976 2.20933,0 3.976,-0.42266 5.29733,-1.268 1.32267,-0.84533 1.98267,-2.02533 1.98267,-3.54266 0,-1.51734 -0.64933,-2.66534 -1.94933,-3.44534 -1.30134,-0.78 -3.59734,-1.17066 -6.892,-1.17066 h -12.35067 l 2.276,-26.58667 h 28.992 v 9.94533 h -18.332 l -0.58533,6.63067 z m 37.27066,-16.576 v 45.504 h -12.872 v -35.55867 h -3.64666 v -9.94533 z m -571.78665,-2.264 h -15.708 v -12.88533 h 15.708 c 4.172,0 7.48533,2.08666 7.48533,6.504 0,4.29466 -3.31333,6.38133 -7.48533,6.38133 m 109.04133,47.368 h -28.10133 l -2.94534,-9.572 h -29.45066 l -2.94533,9.572 h -28.10134 l 30.18667,-81.85066 h 31.17066 z m -37.672,-31.16933 -8.1,-26.384 -8.09867,26.384 z m 71.24533,31.16933 v -60.25333 h 21.84267 v -21.59733 h -68.59733 v 21.59733 h 21.96666 v 60.25333 z m 98.12133,0 -14.848,-28.96 c 6.50267,-3.19067 14.72534,-10.676 14.72534,-24.78933 0,-15.33867 -10.308,-28.10133 -29.452,-28.10133 h -43.68667 v 81.85066 h 24.788 v -25.77067 h 8.95867 l 11.28933,25.77067 z m -33.37866,-47.368 h -15.09467 v -12.88533 h 15.09467 c 4.172,0 8.09866,1.964 8.09866,6.38133 0,4.54133 -3.92666,6.504 -8.09866,6.504 m 62.288,-34.48266 h -24.788 v 81.85066 h 24.788 z m 47.808,83.32399 c 23.53333,0 42.06533,-16.49466 44.51333,-38.84666 l -44.232,31.38533 -44.84267,-31.82 c 2.25334,22.59467 20.876,39.28133 44.56134,39.28133 m 44.35733,-46.68533 c -2.992,-21.652 -21.26667,-37.98933 -44.35733,-37.98933 -23.248,0 -41.616,16.53067 -44.41867,38.432 l 44.7,-31.71867 z m 43.33333,45.212 h -24.78933 v -60.25333 h -21.96534 v -21.59733 h 68.59734 v 21.59733 h -21.84267 z m 100.20666,0 -30.188,-81.85066 h -31.16933 l -30.188,81.85066 h 28.10134 l 2.94533,-9.572 h 29.452 l 2.94533,9.572 z m -37.67333,-31.16933 h -16.19867 l 8.1,-26.384 z"
       style="display:inline;fill:#00562e;fill-opacity:1;fill-rule:nonzero;stroke:none;stroke-width:1.33333"
       id="path122" /><g
       id="g2344"
       style="display:inline"><path
         d="m 613.28665,204.42201 h 10e-4 l 40.62534,28.828 v 0 l -40.62534,28.82933 h -10e-4 l -40.336,-28.82933 z"
         style="display:inline;fill:#ffe600;fill-opacity:1;fill-rule:nonzero;stroke:none;stroke-width:1.33333"
         id="path126" /><path
         d="m 615.49438,214.48908 c -10.15067,-1.20933 -19.36133,6.03733 -20.57067,16.18933 -1.20933,10.15067 6.03867,19.36134 16.18934,20.57067 10.15066,1.20933 19.36133,-6.03867 20.57066,-16.18933 1.20934,-10.15067 -6.03866,-19.36134 -16.18933,-20.57067"
         style="display:inline;fill:#001274;fill-opacity:1;fill-rule:nonzero;stroke:none;stroke-width:1.33333"
         id="path138" /><path
         d="m 631.28425,237.21841 c 0.112,-0.46667 0.19733,-0.94533 0.27467,-1.42667 -12.108,-8.008 -28.20534,-8.66933 -36.024,-8.06266 -0.12934,0.448 -0.25067,0.9 -0.34667,1.364 7.528,-0.668 24.00133,-0.152 36.096,8.12533"
         style="display:inline;fill:#ffffff;fill-opacity:1;fill-rule:nonzero;stroke:none;stroke-width:1.33333"
         id="path142" /></g></g></svg>
