<?xml version="1.0" encoding="UTF-8" standalone="no"?>
<!-- Created with Inkscape (http://www.inkscape.org/) -->

<svg
   version="1.1"
   id="svg768"
   xml:space="preserve"
   width="1534.406"
   height="762.15601"
   viewBox="0 0 1534.406 762.15601"
   sodipodi:docname="LogoPDT.svg"
   inkscape:version="1.1.1 (3bf5ae0, 2021-09-20)"
   xmlns:inkscape="http://www.inkscape.org/namespaces/inkscape"
   xmlns:sodipodi="http://sodipodi.sourceforge.net/DTD/sodipodi-0.dtd"
   xmlns="http://www.w3.org/2000/svg"
   xmlns:svg="http://www.w3.org/2000/svg"><defs
     id="defs772"><clipPath
       clipPathUnits="userSpaceOnUse"
       id="clipPath782"><path
         d="M 0,1080 H 1920 V 0 H 0 Z"
         id="path780" /></clipPath><linearGradient
       x1="0"
       y1="0"
       x2="1"
       y2="0"
       gradientUnits="userSpaceOnUse"
       gradientTransform="matrix(0,64.531395,64.531395,0,616.80676,539.02161)"
       spreadMethod="pad"
       id="linearGradient812"><stop
         style="stop-opacity:1;stop-color:#0040ac"
         offset="0"
         id="stop804" /><stop
         style="stop-opacity:1;stop-color:#008ede"
         offset="0.73161308"
         id="stop806" /><stop
         style="stop-opacity:1;stop-color:#008ede"
         offset="0.846052"
         id="stop808" /><stop
         style="stop-opacity:1;stop-color:#008ede"
         offset="1"
         id="stop810" /></linearGradient><linearGradient
       x1="0"
       y1="0"
       x2="1"
       y2="0"
       gradientUnits="userSpaceOnUse"
       gradientTransform="matrix(25.923792,25.923792,25.923792,-25.923792,622.63739,713.8573)"
       spreadMethod="pad"
       id="linearGradient834"><stop
         style="stop-opacity:1;stop-color:#b10042"
         offset="0"
         id="stop828" /><stop
         style="stop-opacity:1;stop-color:#b10042"
         offset="0"
         id="stop830" /><stop
         style="stop-opacity:1;stop-color:#ff0032"
         offset="1"
         id="stop832" /></linearGradient><linearGradient
       x1="0"
       y1="0"
       x2="1"
       y2="0"
       gradientUnits="userSpaceOnUse"
       gradientTransform="matrix(92.35347,92.35347,92.35347,-92.35347,544.28772,723.56818)"
       spreadMethod="pad"
       id="linearGradient856"><stop
         style="stop-opacity:1;stop-color:#b10042"
         offset="0"
         id="stop850" /><stop
         style="stop-opacity:1;stop-color:#b10042"
         offset="0"
         id="stop852" /><stop
         style="stop-opacity:1;stop-color:#ff0032"
         offset="1"
         id="stop854" /></linearGradient><linearGradient
       x1="0"
       y1="0"
       x2="1"
       y2="0"
       gradientUnits="userSpaceOnUse"
       gradientTransform="matrix(38.582008,38.582008,38.582008,-38.582008,584.53766,683.96912)"
       spreadMethod="pad"
       id="linearGradient878"><stop
         style="stop-opacity:1;stop-color:#b10042"
         offset="0"
         id="stop872" /><stop
         style="stop-opacity:1;stop-color:#b10042"
         offset="0"
         id="stop874" /><stop
         style="stop-opacity:1;stop-color:#ff0032"
         offset="1"
         id="stop876" /></linearGradient><linearGradient
       x1="0"
       y1="0"
       x2="1"
       y2="0"
       gradientUnits="userSpaceOnUse"
       gradientTransform="matrix(44.722679,44.722679,44.722679,-44.722679,679.71179,730.84637)"
       spreadMethod="pad"
       id="linearGradient900"><stop
         style="stop-opacity:1;stop-color:#b10042"
         offset="0"
         id="stop894" /><stop
         style="stop-opacity:1;stop-color:#b10042"
         offset="0"
         id="stop896" /><stop
         style="stop-opacity:1;stop-color:#ff0032"
         offset="1"
         id="stop898" /></linearGradient><linearGradient
       x1="0"
       y1="0"
       x2="1"
       y2="0"
       gradientUnits="userSpaceOnUse"
       gradientTransform="matrix(36.085377,36.085377,36.085377,-36.085377,498.8223,627.31427)"
       spreadMethod="pad"
       id="linearGradient922"><stop
         style="stop-opacity:1;stop-color:#b10042"
         offset="0"
         id="stop916" /><stop
         style="stop-opacity:1;stop-color:#b10042"
         offset="0"
         id="stop918" /><stop
         style="stop-opacity:1;stop-color:#ff0032"
         offset="1"
         id="stop920" /></linearGradient><linearGradient
       x1="0"
       y1="0"
       x2="1"
       y2="0"
       gradientUnits="userSpaceOnUse"
       gradientTransform="matrix(85.721458,85.721458,85.721458,-85.721458,656.39526,621.8446)"
       spreadMethod="pad"
       id="linearGradient944"><stop
         style="stop-opacity:1;stop-color:#b10042"
         offset="0"
         id="stop938" /><stop
         style="stop-opacity:1;stop-color:#b10042"
         offset="0"
         id="stop940" /><stop
         style="stop-opacity:1;stop-color:#ff0032"
         offset="1"
         id="stop942" /></linearGradient><linearGradient
       x1="0"
       y1="0"
       x2="1"
       y2="0"
       gradientUnits="userSpaceOnUse"
       gradientTransform="matrix(63.180588,63.180588,63.180588,-63.180588,499.17056,702.41846)"
       spreadMethod="pad"
       id="linearGradient966"><stop
         style="stop-opacity:1;stop-color:#b10042"
         offset="0"
         id="stop960" /><stop
         style="stop-opacity:1;stop-color:#b10042"
         offset="0"
         id="stop962" /><stop
         style="stop-opacity:1;stop-color:#ff0032"
         offset="1"
         id="stop964" /></linearGradient><linearGradient
       x1="0"
       y1="0"
       x2="1"
       y2="0"
       gradientUnits="userSpaceOnUse"
       gradientTransform="matrix(89.812462,89.812462,89.812462,-89.812462,577.7218,634.08514)"
       spreadMethod="pad"
       id="linearGradient988"><stop
         style="stop-opacity:1;stop-color:#b10042"
         offset="0"
         id="stop982" /><stop
         style="stop-opacity:1;stop-color:#b10042"
         offset="0"
         id="stop984" /><stop
         style="stop-opacity:1;stop-color:#ff0032"
         offset="1"
         id="stop986" /></linearGradient><linearGradient
       x1="0"
       y1="0"
       x2="1"
       y2="0"
       gradientUnits="userSpaceOnUse"
       gradientTransform="matrix(54.082931,54.082931,54.082931,-54.082931,507.62271,538.77148)"
       spreadMethod="pad"
       id="linearGradient1012"><stop
         style="stop-opacity:1;stop-color:#ffd000"
         offset="0"
         id="stop1004" /><stop
         style="stop-opacity:1;stop-color:#ffd000"
         offset="0.18748985"
         id="stop1006" /><stop
         style="stop-opacity:1;stop-color:#ff8e00"
         offset="0.999732"
         id="stop1008" /><stop
         style="stop-opacity:1;stop-color:#ff8e00"
         offset="1"
         id="stop1010" /></linearGradient><linearGradient
       x1="0"
       y1="0"
       x2="1"
       y2="0"
       gradientUnits="userSpaceOnUse"
       gradientTransform="matrix(81.8134,81.8134,81.8134,-81.8134,658.0033,524.90613)"
       spreadMethod="pad"
       id="linearGradient1036"><stop
         style="stop-opacity:1;stop-color:#00dc3e"
         offset="0"
         id="stop1028" /><stop
         style="stop-opacity:1;stop-color:#00dc3e"
         offset="0.153948"
         id="stop1030" /><stop
         style="stop-opacity:1;stop-color:#00dc3e"
         offset="0.26838692"
         id="stop1032" /><stop
         style="stop-opacity:1;stop-color:#009145"
         offset="1"
         id="stop1034" /></linearGradient></defs><sodipodi:namedview
     id="namedview770"
     pagecolor="#ffffff"
     bordercolor="#666666"
     borderopacity="1.0"
     inkscape:pageshadow="2"
     inkscape:pageopacity="0.0"
     inkscape:pagecheckerboard="0"
     showgrid="false"
     width="1534.406px"
     inkscape:snap-object-midpoints="false"
     inkscape:snap-nodes="false"
     inkscape:snap-others="false"
     inkscape:snap-bbox="false"
     inkscape:bbox-nodes="false"
     inkscape:snap-bbox-midpoints="false"
     inkscape:snap-bbox-edge-midpoints="false"
     inkscape:snap-global="false"
     inkscape:zoom="0.32708333"
     inkscape:cx="1388.0255"
     inkscape:cy="707.7707"
     inkscape:window-width="1366"
     inkscape:window-height="736"
     inkscape:window-x="0"
     inkscape:window-y="0"
     inkscape:window-maximized="1"
     inkscape:current-layer="g774" /><g
     id="g774"
     inkscape:groupmode="layer"
     inkscape:label="Logo PDT"
     transform="matrix(1.3333333,0,0,-1.3333333,0,1440)"><g
       id="g1561"
       transform="translate(-384.5974,254.19123)"><g
         id="g776"><g
           id="g778"
           clip-path="url(#clipPath782)"><g
             id="g784"
             transform="translate(1535.4023,539.0217)"><path
               d="M 0,0 V -61.608 H -64.56 V -284.83 h -73.424 v 223.222 h -64.561 V 0 Z m -297.667,-81.862 c 0,12.237 -8.439,20.677 -20.677,20.677 h -43.885 v -162.037 h 43.885 c 12.238,0 20.677,8.44 20.677,20.677 z M -282.476,0 c 31.226,0 57.81,-25.739 57.81,-57.81 v -168.789 c 0,-32.492 -26.584,-58.231 -57.81,-58.231 H -435.651 V 0 Z m -260.032,-150.222 c 2.11,0 3.798,2.11 3.798,3.798 v 81.018 c 0,2.11 -1.688,4.221 -3.798,4.221 h -55.7 v -89.037 z M -497.357,0 c 17.301,0 32.07,-13.925 32.07,-32.069 v -146.424 c 0,-16.879 -14.769,-32.071 -32.07,-32.071 h -100.851 v -74.266 h -73.423 V 0 Z"
               style="fill:#0b3f7e;fill-opacity:1;fill-rule:nonzero;stroke:none"
               id="path786" /></g><g
             id="g788"
             transform="translate(748.3214,496.1768)"><path
               d="m 0,0 c 0,-12.977 -10.557,-23.535 -23.534,-23.535 h -41.264 v 22.997 c 0,0.645 -0.017,1.321 -0.053,2.064 -0.006,0.144 -0.016,0.287 -0.026,0.429 l -0.015,0.23 c -0.029,0.467 -0.063,0.932 -0.106,1.393 -0.024,0.25 -0.052,0.499 -0.08,0.752 -0.049,0.435 -0.104,0.868 -0.166,1.298 -0.035,0.249 -0.071,0.499 -0.111,0.743 -0.072,0.45 -0.153,0.896 -0.239,1.341 l -0.04,0.209 c -0.027,0.146 -0.055,0.292 -0.086,0.438 -0.131,0.627 -0.272,1.24 -0.423,1.833 l -0.027,0.11 c -0.154,0.597 -0.331,1.219 -0.54,1.9 -0.043,0.139 -0.088,0.276 -0.134,0.414 l -0.064,0.195 c -0.139,0.427 -0.281,0.851 -0.431,1.27 -0.077,0.215 -0.158,0.429 -0.259,0.695 -0.148,0.392 -0.302,0.781 -0.461,1.167 -0.094,0.228 -0.188,0.455 -0.286,0.684 -0.174,0.4 -0.355,0.796 -0.54,1.192 l -0.091,0.194 c -0.061,0.133 -0.123,0.266 -0.188,0.399 -0.256,0.526 -0.523,1.046 -0.823,1.605 l -0.066,0.126 c -0.296,0.544 -0.613,1.094 -0.966,1.679 -0.069,0.114 -0.14,0.226 -0.211,0.339 l -0.11,0.174 c -0.237,0.381 -0.477,0.758 -0.725,1.13 -0.015,0.023 -0.031,0.045 -0.046,0.068 h 48.577 C -10.557,23.533 0,12.976 0,0 m -23.534,-89.914 h -43.095 c 1.216,3.269 1.831,6.692 1.831,10.206 v 36.862 h 41.264 C -10.557,-42.846 0,-53.403 0,-66.38 0,-79.357 -10.557,-89.914 -23.534,-89.914 m 0,-66.379 H -124.98 c -12.977,0 -23.534,10.557 -23.534,23.533 0,12.977 10.557,23.534 23.534,23.534 h 101.446 c 12.977,0 23.534,-10.557 23.534,-23.534 0,-12.976 -10.557,-23.533 -23.534,-23.533 m -18.626,-66.381 h -82.82 c -12.977,0 -23.534,10.558 -23.534,23.535 0,12.976 10.557,23.534 23.534,23.534 h 82.82 c 12.977,0 23.534,-10.558 23.534,-23.534 0,-12.977 -10.557,-23.535 -23.534,-23.535 m -125.666,23.535 c 0,-8.462 2.433,-16.537 7.064,-23.535 h -70.541 c -15.322,0 -28.15,12.287 -28.063,27.609 0.056,9.862 -7.95,17.903 -17.799,17.903 h -65.892 c -0.749,0 -1.356,0.607 -1.356,1.356 v 155.771 c 0,0.748 0.607,1.355 1.356,1.355 h 64.38 v -20.869 c 0,-38.42 31.257,-69.677 69.677,-69.677 23.797,0 46.106,12.359 58.856,32.424 3.232,-5.639 7.275,-10.724 12.059,-15.166 -17.647,-5.655 -29.741,-22.044 -29.741,-40.792 0,-12.814 5.868,-25.072 15.791,-33.184 -9.923,-8.112 -15.791,-20.375 -15.791,-33.195 m -91.54,190.253 c 0,17.905 14.515,32.419 32.42,32.419 h 118.764 c 13.295,0 24.073,-10.777 24.073,-24.072 v -79.169 c 0,-3.722 -1.997,-7.145 -5.488,-9.055 -1.44,-0.788 -3.076,-1.151 -4.718,-1.151 v 0 c -24.858,0 -45.009,20.151 -45.009,45.009 v 18.393 c 0,1.688 -1.368,3.057 -3.056,3.057 h -13.199 c -1.688,0 -3.056,-1.369 -3.056,-3.057 v -12.249 c 0,-27.786 -22.243,-50.73 -49.583,-51.147 -13.589,-0.217 -26.406,4.939 -36.103,14.49 -9.702,9.554 -15.045,22.293 -15.045,35.869 z M 29.986,87.227 c 1.137,6.323 -0.852,12.847 -5.32,17.452 -3.692,3.805 -9.003,5.988 -14.571,5.988 H -3.05 c 18.427,15.562 28.908,38.004 28.908,62.235 0,15.164 -4.207,29.951 -12.172,42.813 1.899,6.594 2.861,13.408 2.861,20.264 0,40.369 -32.842,73.211 -73.211,73.211 -4.389,0 -8.806,-0.398 -13.139,-1.184 -16.767,13.951 -37.993,21.626 -59.852,21.626 -21.81,0 -43.017,-7.68 -59.802,-21.639 -4.353,0.795 -8.786,1.197 -13.19,1.197 -40.369,0 -73.211,-32.842 -73.211,-73.211 0,-2.982 0.184,-5.992 0.547,-8.955 -8.909,-14.105 -13.615,-30.405 -13.615,-47.174 0,-26.894 12.396,-52.425 33.376,-69.183 h -17.658 c -5.262,0 -10.171,-1.881 -13.823,-5.297 -4.977,-4.655 -7.229,-11.437 -6.024,-18.143 4.046,-22.512 17.571,-41.762 37.272,-53.198 -11.545,-7.768 -19.464,-19.761 -22.009,-33.397 h -82.875 c -1.688,0 -3.057,-1.369 -3.057,-3.057 V -193.42 c 0,-1.688 1.368,-3.056 3.056,-3.057 l 80.692,-0.012 c 0.731,0 1.34,-0.587 1.385,-1.336 1.495,-24.763 22.113,-44.16 46.937,-44.16 h 188.786 c 11.443,0 22.315,4.467 30.614,12.578 8.351,8.163 12.946,18.921 12.94,30.292 -0.005,9.535 -3.213,18.788 -9.072,26.294 16.657,6.287 27.698,22.116 27.698,40.061 0,12.82 -5.868,25.083 -15.79,33.195 9.922,8.109 15.79,20.368 15.79,33.185 0,12.818 -5.866,25.079 -15.785,33.191 9.917,8.077 15.643,19.892 15.782,32.717 0.166,15.288 -8.325,29.737 -21.83,37.498 17.053,11.656 28.843,29.813 32.507,50.201"
               style="fill:#0b3f7e;fill-opacity:1;fill-rule:nonzero;stroke:none"
               id="path790" /></g></g></g><g
         id="g792"><g
           id="g794"><g
             id="g800"><g
               id="g802"><path
                 d="m 616.787,599.83 c -10.552,0 -20.508,1.356 -27.343,3.723 v 0 c -2.572,-1.905 -5.281,-3.674 -8.059,-5.262 v 0 l 2.029,-1.371 c 0,0 10e-4,0 10e-4,0 v 0 c 15.78,-10.675 25.582,-29.077 25.582,-48.025 v 0 -9.873 h 15.58 v 9.873 c 0,20.282 10.329,38.712 27.652,49.373 v 0 c -2.792,1.595 -5.514,3.371 -8.1,5.285 v 0 c -6.834,-2.367 -16.789,-3.723 -27.342,-3.723"
                 style="fill:url(#linearGradient812);stroke:none"
                 id="path814" /></g></g></g></g><g
         id="g816"><g
           id="g818"><g
             id="g824"><g
               id="g826"><path
                 d="m 617.307,736.808 -0.098,-0.352 c -2.888,-10.712 2.232,-22.586 11.913,-27.623 v 0 c 8.636,-4.494 18.695,-2.337 23.918,5.128 v 0 c 0.112,0.161 0.226,0.328 0.338,0.5 v 0 c 2.848,4.371 3.478,9.863 1.727,15.068 v 0 c -2.971,8.833 -11.039,15.729 -20.073,17.159 v 0 c -1.14,0.18 -2.233,0.265 -3.275,0.265 v 0 c -7.97,10e-4 -13.015,-4.969 -14.45,-10.145"
                 style="fill:url(#linearGradient834);stroke:none"
                 id="path836" /></g></g></g></g><g
         id="g838"><g
           id="g840"><g
             id="g846"><g
               id="g848"><path
                 d="m 544.324,732.155 c 0,-3.056 0.193,-6.145 0.573,-9.197 v 0 c 7.872,15.097 20.046,27.289 35.268,35.307 v 0 c 14.676,7.729 31.063,10.938 47.404,9.29 v 0 c 6.693,12.13 16.609,22.044 28.72,28.719 v 0 c -11.376,6.691 -24.37,10.223 -37.623,10.223 v 0 c -40.992,0 -74.342,-33.349 -74.342,-74.342"
                 style="fill:url(#linearGradient856);stroke:none"
                 id="path858" /></g></g></g></g><g
         id="g860"><g
           id="g862"><g
             id="g868"><g
               id="g870"><path
                 d="m 594.793,743.81 c -0.029,-0.014 -0.06,-0.028 -0.091,-0.04 v 0 c -17.18,-7.08 -22.598,-22.71 -21.938,-34.977 v 0 c 0.645,-12.011 7.548,-26.655 24.985,-31.735 v 0 c 0.424,-0.125 0.853,-0.242 1.284,-0.354 v 0 c 15.029,-3.929 30.738,-0.089 42.24,10.27 v 0 c -0.922,-0.072 -1.844,-0.108 -2.752,-0.108 v 0 c -3.949,0 -7.873,0.641 -11.662,1.908 v 0 c -0.514,0.17 -1.029,0.352 -1.544,0.546 v 0 c -20.791,7.811 -32.54,30.729 -26.748,52.176 v 0 c 0.054,0.2 0.111,0.405 0.169,0.61 v 0 c 0.345,1.209 0.763,2.412 1.245,3.584 v 0 c -1.755,-0.553 -3.496,-1.184 -5.188,-1.88"
                 style="fill:url(#linearGradient878);stroke:none"
                 id="path880" /></g></g></g></g><g
         id="g882"><g
           id="g884"><g
             id="g890"><g
               id="g892"><path
                 d="m 647.491,763.067 c 9.507,-3.377 18.199,-8.341 25.844,-14.761 v 0 c 6.326,1.537 12.818,2.317 19.299,2.317 v 0 c 19.395,0 38.153,-6.937 52.912,-19.55 v 0 c 0.008,0.36 0.011,0.721 0.011,1.082 v 0 c 0,29.721 -24.179,53.9 -53.9,53.9 v 0 c -17.624,0 -34.095,-8.584 -44.166,-22.988"
                 style="fill:url(#linearGradient900);stroke:none"
                 id="path902" /></g></g></g></g><g
         id="g904"><g
           id="g906"><g
             id="g912"><g
               id="g914"><path
                 d="m 478.706,676.027 c 0,-6.016 0.777,-11.987 2.308,-17.751 v 0 c 2.407,-9.058 6.775,-17.752 12.634,-25.144 v 0 c 5.792,-7.307 13.172,-13.514 21.343,-17.95 v 0 c 9.208,-4.998 19.021,-7.799 28.379,-8.1 v 0 c 7.231,-0.23 14.064,0.795 20.309,3.054 v 0 c 2.057,0.743 3.881,1.567 5.572,2.516 v 0 c 1.039,0.585 1.992,1.177 2.896,1.802 v 0 c -15.702,10.667 -27.433,26.546 -33.08,44.787 v 0 c -24.08,2.164 -45.419,16.039 -57.289,37.214 v 0 c -2.038,-6.598 -3.072,-13.466 -3.072,-20.428"
                 style="fill:url(#linearGradient922);stroke:none"
                 id="path924" /></g></g></g></g><g
         id="g926"><g
           id="g928"><g
             id="g934"><g
               id="g936"><path
                 d="m 688.762,731.187 c 1.76,-2.598 3.392,-5.319 4.854,-8.095 v 0 c 10.454,-19.849 12.553,-42.581 5.91,-64.009 v 0 c -5.827,-18.795 -18.141,-34.987 -34.71,-45.66 v 0 c 8.617,-4.306 18.221,-6.579 27.818,-6.579 v 0 c 34.316,0 62.234,27.918 62.234,62.234 v 0 c 0,34.316 -27.918,62.234 -62.234,62.234 v 0 c -1.264,0 -2.564,-0.042 -3.872,-0.125"
                 style="fill:url(#linearGradient944);stroke:none"
                 id="path946" /></g></g></g></g><g
         id="g948"><g
           id="g950"><g
             id="g956"><g
               id="g958"><path
                 d="m 491.774,732.155 c 0,-25.864 18.339,-48.043 43.676,-52.923 v 0 c -0.189,3.288 -0.181,6.617 0.022,9.906 v 0 c -6.844,13.226 -10.459,28.09 -10.459,43.017 v 0 c 0,19.375 5.881,37.949 17.015,53.767 v 0 c -28.242,-1.891 -50.254,-25.363 -50.254,-53.767"
                 style="fill:url(#linearGradient966);stroke:none"
                 id="path968" /></g></g></g></g><g
         id="g970"><g
           id="g972"><g
             id="g978"><g
               id="g980"><path
                 d="m 671.244,697.271 c -4.832,-12.363 -13.197,-22.815 -24.192,-30.226 v 0 c -10.821,-7.295 -23.413,-11.15 -36.416,-11.15 v 0 c -5.542,0 -11.09,0.714 -16.49,2.126 v 0 c -0.608,0.159 -1.204,0.324 -1.797,0.495 v 0 c -17.982,5.239 -31.613,18.875 -36.746,36.648 v 0 c -2.669,-15.115 0.153,-30.694 8.012,-44.04 v 0 c 8.185,-13.9 21.161,-24.18 36.537,-28.947 v 0 c 16.474,-5.108 33.974,-3.482 49.278,4.578 v 0 c 15.303,8.061 26.543,21.573 31.65,38.046 v 0 c 5.116,16.502 3.501,34.007 -4.55,49.292 v 0 c -0.313,0.594 -0.642,1.193 -0.981,1.79 v 0 c -0.511,-6.35 -1.958,-12.605 -4.305,-18.612"
                 style="fill:url(#linearGradient988);stroke:none"
                 id="path990" /></g></g></g></g><g
         id="g992"><g
           id="g994"><g
             id="g1000"><g
               id="g1002"><path
                 d="m 474.773,587.533 c -0.136,0 -0.251,-0.029 -0.369,-0.171 v 0 c -0.188,-0.224 -0.145,-0.464 -0.131,-0.542 v 0 c 4.978,-27.697 29.054,-47.798 57.246,-47.798 v 0 h 58.167 v 9.873 c 0,21.304 -17.333,38.638 -38.638,38.638 v 0 z"
                 style="fill:url(#linearGradient1012);stroke:none"
                 id="path1014" /></g></g></g></g><g
         id="g1016"><g
           id="g1018"><g
             id="g1024"><g
               id="g1026"><path
                 d="m 682.526,587.533 c -21.305,0 -38.638,-17.334 -38.638,-38.638 v 0 -9.873 h 58.167 c 28.192,0 52.268,20.101 57.246,47.798 v 0 c 0.015,0.077 0.057,0.318 -0.131,0.542 v 0 c -0.118,0.142 -0.233,0.171 -0.369,0.171 v 0 z"
                 style="fill:url(#linearGradient1036);stroke:none"
                 id="path1038" /></g></g></g></g></g></g></svg>
