<?xml version="1.0" encoding="UTF-8" standalone="no"?>
<svg
   version="1.1"
   width="379.23499"
   height="165.02541"
   viewBox="0 0 379.23498 165.0254"
   id="svg111"
   sodipodi:docname="PDF1_SVG1.svg"
   inkscape:version="1.4.2 (f4327f4, 2025-05-13)"
   xmlns:inkscape="http://www.inkscape.org/namespaces/inkscape"
   xmlns:sodipodi="http://sodipodi.sourceforge.net/DTD/sodipodi-0.dtd"
   xmlns="http://www.w3.org/2000/svg"
   xmlns:svg="http://www.w3.org/2000/svg">
  <defs
     id="defs111" />
  <sodipodi:namedview
     id="namedview111"
     pagecolor="#ffffff"
     bordercolor="#000000"
     borderopacity="0.25"
     inkscape:showpageshadow="2"
     inkscape:pageopacity="0.0"
     inkscape:pagecheckerboard="0"
     inkscape:deskcolor="#d1d1d1"
     inkscape:zoom="0.67783225"
     inkscape:cx="146.05384"
     inkscape:cy="-11.064685"
     inkscape:window-width="1920"
     inkscape:window-height="1009"
     inkscape:window-x="-8"
     inkscape:window-y="-8"
     inkscape:window-maximized="1"
     inkscape:current-layer="svg111" />
  <path
     d="m 157.588,114.417 c 0,-1.864 -0.354,-3.656 -1.084,-5.366 -0.709,-1.664 -1.7,-3.151 -2.957,-4.441 -1.259,-1.293 -2.733,-2.293 -4.375,-3.023 -1.708,-0.758 -3.513,-1.106 -5.375,-1.106 -1.884,0 -3.695,0.342 -5.422,1.107 -1.635,0.724 -3.105,1.717 -4.364,2.997 -1.257,1.278 -2.221,2.778 -2.923,4.434 -0.729,1.72 -1.084,3.525 -1.084,5.398 0,1.872 0.355,3.677 1.084,5.397 0.702,1.656 1.666,3.156 2.923,4.434 1.259,1.28 2.729,2.273 4.364,2.998 1.727,0.763 3.538,1.106 5.422,1.106 1.862,0 3.667,-0.347 5.375,-1.106 1.642,-0.73 3.116,-1.73 4.375,-3.022 1.257,-1.291 2.248,-2.778 2.957,-4.442 0.73,-1.71 1.084,-3.501 1.084,-5.365 m 0,-20.646 V 74.584 c 0,-1.496 0.48,-2.827 1.532,-3.889 1.05,-1.062 2.384,-1.548 3.862,-1.548 1.465,0 2.781,0.504 3.836,1.536 1.082,1.055 1.588,2.403 1.588,3.915 v 39.833 c 0,6.868 -2.377,12.754 -7.218,17.582 -4.813,4.805 -10.622,7.271 -17.391,7.271 -6.784,0 -12.602,-2.444 -17.399,-7.289 -4.794,-4.846 -7.212,-10.724 -7.212,-17.578 0,-6.855 2.418,-12.732 7.212,-17.578 4.797,-4.846 10.615,-7.289 17.399,-7.289 5.08,0 9.696,1.388 13.791,4.221"
     fill="#478ecc"
     fill-rule="evenodd"
     id="path61"
     style="stroke-width:0.1" />
  <path
     d="m 338.825,104.709 c 0,-2.314 0.604,-4.48 1.867,-6.417 1.24,-1.906 2.844,-3.479 4.727,-4.736 1.992,-1.33 4.176,-2.297 6.462,-2.964 2.341,-0.681 4.735,-1.042 7.168,-1.042 7.586,0 13.808,3.218 18.822,8.916 l 0.015,0.019 0.016,0.02 c 0.767,0.964 1.116,2.092 1.116,3.326 0,1.498 -0.496,2.828 -1.55,3.889 -1.046,1.061 -2.363,1.562 -3.851,1.562 -1.07,0 -2.069,-0.314 -2.914,-0.99 -0.674,-0.544 -1.317,-1.132 -1.921,-1.75 -2.689,-2.729 -5.921,-4.061 -9.733,-4.061 -2.294,0 -9.361,1.465 -9.361,4.605 0,0.36 0.094,0.526 0.419,0.653 l 19.728,6.569 0.024,0.009 c 1.89,0.74 4.501,1.88 5.927,3.386 2.209,2.328 3.449,4.62 3.449,8.42 0,2.327 -0.613,4.494 -1.883,6.434 -1.248,1.904 -2.852,3.478 -4.727,4.746 -1.976,1.338 -4.153,2.31 -6.439,2.967 -2.325,0.67 -4.72,1.013 -7.137,1.013 -7.578,0 -13.824,-3.122 -18.83,-8.83 l -0.03,-0.03 -0.024,-0.032 c -0.744,-1.002 -1.139,-2.133 -1.139,-3.39 0,-1.497 0.496,-2.827 1.55,-3.888 1.046,-1.061 2.364,-1.563 3.851,-1.563 1.116,0 2.154,0.334 3.014,1.074 0.62,0.537 1.24,1.08 1.821,1.666 2.713,2.738 5.959,4.061 9.787,4.061 3.448,0 6.532,-0.993 8.934,-3.503 0.272,-0.304 0.372,-0.652 0.372,-1.058 0,-0.385 -0.132,-0.558 -0.472,-0.699 l -19.667,-6.566 -0.023,-0.008 c -1.968,-0.757 -4.401,-1.852 -5.92,-3.367 -2.24,-2.236 -3.448,-4.608 -3.448,-8.441"
     fill="#478ecc"
     fill-rule="evenodd"
     id="path62"
     style="stroke-width:0.1" />
  <path
     d="m 313.277,100.481 c -1.882,0 -3.688,0.342 -5.416,1.107 -1.636,0.723 -3.107,1.717 -4.363,2.996 -1.262,1.279 -2.223,2.779 -2.928,4.435 -0.729,1.72 -1.077,3.525 -1.077,5.398 0,1.872 0.348,3.677 1.077,5.396 0.705,1.657 1.666,3.157 2.928,4.435 1.256,1.28 2.727,2.273 4.363,2.997 1.728,0.764 3.534,1.106 5.416,1.106 1.868,0 3.673,-0.346 5.378,-1.106 1.642,-0.729 3.115,-1.729 4.379,-3.022 1.254,-1.291 2.246,-2.778 2.959,-4.441 0.729,-1.711 1.077,-3.502 1.077,-5.365 0,-1.865 -0.348,-3.656 -1.077,-5.367 -0.713,-1.663 -1.705,-3.15 -2.959,-4.44 -1.264,-1.293 -2.737,-2.293 -4.379,-3.023 -1.705,-0.758 -3.51,-1.106 -5.378,-1.106 m 24.611,13.933 c 0.023,6.866 -2.379,12.76 -7.215,17.584 -4.819,4.807 -10.616,7.285 -17.396,7.285 -6.78,0 -12.598,-2.443 -17.393,-7.289 -4.796,-4.845 -7.214,-10.724 -7.214,-17.577 0,-6.855 2.418,-12.732 7.214,-17.578 4.795,-4.847 10.613,-7.289 17.393,-7.289 6.78,0 12.593,2.467 17.396,7.285 2.309,2.316 4.147,4.993 5.386,8.037 1.239,3.044 1.82,6.254 1.829,9.542"
     fill="#478ecc"
     fill-rule="evenodd"
     id="path63"
     style="stroke-width:0.1" />
  <path
     d="m 253.578,95.812 c 3.87,-4.075 8.637,-6.262 14.35,-6.262 2.661,0 5.24,0.526 7.68,1.596 2.354,1.032 4.478,2.462 6.294,4.297 1.817,1.836 3.235,3.981 4.254,6.362 1.059,2.472 1.579,5.063 1.579,7.758 v 24.225 c 0,1.512 -0.529,2.84 -1.593,3.906 -1.047,1.05 -2.342,1.59 -3.817,1.59 -1.485,0 -2.803,-0.528 -3.851,-1.596 -1.05,-1.07 -1.558,-2.398 -1.558,-3.9 v -24.225 c 0,-1.207 -0.225,-2.37 -0.695,-3.479 -0.459,-1.08 -1.09,-2.06 -1.907,-2.898 -0.827,-0.85 -1.782,-1.498 -2.863,-1.976 -1.114,-0.492 -2.293,-0.729 -3.508,-0.729 -1.208,0 -2.359,0.237 -3.463,0.728 -1.069,0.476 -2.03,1.125 -2.86,1.957 -0.827,0.829 -1.467,1.792 -1.927,2.874 -0.476,1.123 -0.695,2.304 -0.695,3.523 v 24.225 c 0,1.505 -0.52,2.838 -1.575,3.903 -1.04,1.051 -2.337,1.593 -3.805,1.593 l -0.04,-0.002 -0.038,0.002 c -1.47,0 -2.767,-0.542 -3.806,-1.593 -1.055,-1.065 -1.576,-2.398 -1.576,-3.903 v -24.225 c 0,-1.219 -0.219,-2.4 -0.695,-3.523 -0.459,-1.082 -1.099,-2.045 -1.926,-2.874 -0.83,-0.832 -1.792,-1.481 -2.861,-1.957 -1.104,-0.491 -2.254,-0.728 -3.462,-0.728 -1.215,0 -2.394,0.237 -3.508,0.729 -1.08,0.478 -2.036,1.126 -2.863,1.976 -0.817,0.838 -1.449,1.818 -1.907,2.898 -0.47,1.109 -0.695,2.272 -0.695,3.479 v 24.225 c 0,1.502 -0.508,2.83 -1.558,3.9 -1.048,1.068 -2.366,1.596 -3.852,1.596 -1.474,0 -2.769,-0.54 -3.816,-1.59 -1.065,-1.066 -1.593,-2.394 -1.593,-3.906 v -24.225 c 0,-2.695 0.52,-5.286 1.578,-7.758 1.02,-2.381 2.438,-4.526 4.254,-6.362 1.816,-1.835 3.94,-3.265 6.295,-4.297 2.439,-1.07 5.019,-1.596 7.679,-1.596 5.712,0 10.479,2.187 14.35,6.262"
     fill="#478ecc"
     fill-rule="evenodd"
     id="path64"
     style="stroke-width:0.1" />
  <path
     d="m 207.444,110.526 c -0.447,-2.449 -1.944,-4.691 -3.754,-6.335 -1.259,-1.144 -2.734,-2.029 -4.377,-2.676 -1.707,-0.672 -3.512,-0.978 -5.375,-0.978 -1.884,0 -3.694,0.302 -5.42,0.979 -1.635,0.64 -3.105,1.52 -4.365,2.653 -1.431,1.287 -3.583,4.396 -3.938,6.357 z m 1.653,23.491 c -4.378,3.543 -9.468,5.266 -15.159,5.266 -6.784,0 -12.605,-2.439 -17.398,-7.289 -4.787,-4.845 -7.213,-10.728 -7.213,-17.577 0,-6.851 2.426,-12.733 7.213,-17.578 4.793,-4.851 10.614,-7.289 17.398,-7.289 6.777,0 12.581,2.487 17.393,7.3 4.107,4.106 7.217,10.121 7.217,16.047 0,1.512 -0.52,2.844 -1.601,3.901 -1.062,1.035 -2.362,1.55 -3.837,1.55 h -5.672 l 0.006,-0.036 h -27.229 c 0.355,1.961 2.507,5.071 3.938,6.357 1.26,1.133 2.73,2.012 4.365,2.653 1.726,0.676 3.536,0.979 5.42,0.979 1.863,0 3.668,-0.307 5.375,-0.978 1.309,-0.515 2.511,-1.181 3.582,-2.01 5.914,-4.573 12.369,3.711 6.202,8.704"
     fill="#478ecc"
     fill-rule="evenodd"
     id="path65"
     style="stroke-width:0.1" />
  <path
     d="m 93.654,100.481 c -1.884,0 -3.694,0.342 -5.42,1.107 -1.636,0.723 -3.105,1.717 -4.365,2.996 -1.258,1.279 -2.222,2.779 -2.923,4.435 -0.729,1.72 -1.083,3.525 -1.083,5.398 0,1.872 0.354,3.677 1.083,5.396 0.701,1.657 1.665,3.157 2.923,4.435 1.26,1.28 2.73,2.273 4.365,2.997 1.726,0.764 3.536,1.106 5.42,1.106 1.863,0 3.668,-0.346 5.375,-1.106 1.643,-0.729 3.118,-1.729 4.376,-3.022 1.257,-1.291 2.247,-2.778 2.958,-4.441 0.729,-1.711 1.081,-3.502 1.081,-5.365 0,-1.865 -0.352,-3.656 -1.081,-5.367 -0.711,-1.663 -1.701,-3.15 -2.958,-4.44 -1.258,-1.293 -2.733,-2.293 -4.376,-3.023 -1.707,-0.758 -3.512,-1.106 -5.375,-1.106 m 24.61,13.933 c 0.02,6.866 -2.383,12.76 -7.218,17.584 -4.817,4.807 -10.616,7.285 -17.392,7.285 -6.784,0 -12.601,-2.443 -17.398,-7.289 -4.795,-4.845 -7.213,-10.724 -7.213,-17.577 0,-6.855 2.418,-12.732 7.213,-17.578 4.797,-4.847 10.614,-7.289 17.398,-7.289 6.775,0 12.585,2.467 17.394,7.285 2.311,2.316 4.144,4.993 5.385,8.037 1.241,3.044 1.822,6.254 1.831,9.542"
     fill="#478ecc"
     fill-rule="evenodd"
     id="path66"
     style="stroke-width:0.1" />
  <path
     d="m 29.72,114.417 c 0,1.872 0.355,3.677 1.084,5.397 0.701,1.656 1.665,3.156 2.923,4.434 1.259,1.28 2.729,2.273 4.364,2.998 1.726,0.763 3.536,1.106 5.42,1.106 1.864,0 3.669,-0.347 5.376,-1.106 1.642,-0.73 3.117,-1.73 4.376,-3.023 1.257,-1.29 2.247,-2.777 2.958,-4.441 0.729,-1.71 1.082,-3.501 1.082,-5.365 0,-1.864 -0.353,-3.656 -1.082,-5.366 -0.711,-1.664 -1.701,-3.151 -2.958,-4.441 -1.259,-1.293 -2.734,-2.293 -4.376,-3.023 -1.707,-0.759 -3.512,-1.104 -5.376,-1.104 -1.884,0 -3.694,0.34 -5.42,1.105 -1.635,0.724 -3.105,1.717 -4.364,2.997 -1.258,1.278 -2.222,2.778 -2.923,4.434 -0.729,1.72 -1.084,3.525 -1.084,5.398 m 0,20.657 v 24.216 c 0,1.506 -0.512,2.851 -1.588,3.901 -1.056,1.032 -2.37,1.5348 -3.836,1.5348 -1.48,0 -2.812,-0.4858 -3.862,-1.5478 -1.052,-1.061 -1.533,-2.408 -1.533,-3.903 v -44.873 c 0,-6.859 2.414,-12.728 7.213,-17.578 4.794,-4.843 10.62,-7.274 17.397,-7.274 6.776,0 12.576,2.478 17.393,7.284 2.313,2.309 4.177,4.967 5.416,8.011 1.244,3.055 1.802,6.272 1.802,9.572 0,6.863 -2.382,12.757 -7.218,17.583 -2.329,2.324 -4.985,4.219 -8.021,5.477 -2.986,1.239 -6.149,1.807 -9.372,1.807 -5.08,0 -9.707,-1.363 -13.791,-4.21"
     fill="#478ecc"
     fill-rule="evenodd"
     id="path67"
     style="stroke-width:0.1" />
  <path
     d="m 370.587,164.446 c 0,0.1997 0.163,0.3798 0.38,0.3798 h 7.105 c 0.225,0 0.38,-0.1801 0.38,-0.3798 v -1.098 c 0,-0.2 -0.155,-0.38 -0.38,-0.38 h -5.408 v -11.742 c 0,-0.2 -0.179,-0.379 -0.38,-0.379 h -1.317 c -0.217,0 -0.38,0.179 -0.38,0.379"
     fill="#478ecc"
     fill-rule="evenodd"
     id="path68"
     style="stroke-width:0.1" />
  <path
     d="m 365.752,164.446 c 0,0.1997 0.178,0.3798 0.38,0.3798 h 1.316 c 0.203,0 0.381,-0.1801 0.381,-0.3798 v -13.22 c 0,-0.2 -0.178,-0.379 -0.381,-0.379 h -1.316 c -0.202,0 -0.38,0.179 -0.38,0.379"
     fill="#478ecc"
     fill-rule="evenodd"
     id="path69"
     style="stroke-width:0.1" />
  <path
     d="m 354.245,163.448 c 0.325,0.299 1.86,1.5766 4.293,1.5766 2.596,0 4.455,-1.6966 4.455,-3.7746 0,-2.435 -1.976,-3.534 -4.292,-4.473 -1.659,-0.678 -2.534,-1.377 -2.534,-2.515 0,-0.739 0.581,-1.798 2.254,-1.798 1.155,0 2.558,0.919 2.697,0.999 0.279,0.18 0.535,0.06 0.697,-0.2 0.163,-0.24 0.341,-0.519 0.504,-0.759 0.194,-0.3 0.039,-0.579 -0.124,-0.678 -0.201,-0.14 -1.697,-1.179 -3.696,-1.179 -3.169,0 -4.37,2.137 -4.37,3.695 0,2.316 1.596,3.374 3.634,4.233 1.976,0.819 3.014,1.577 3.014,2.776 0,1.018 -0.876,1.857 -2.255,1.857 -1.542,0 -3.076,-1.278 -3.192,-1.378 -0.225,-0.18 -0.504,-0.1 -0.682,0.159 -0.179,0.26 -0.341,0.56 -0.519,0.82 -0.202,0.339 -0.062,0.478 0.116,0.639"
     fill="#478ecc"
     fill-rule="evenodd"
     id="path70"
     style="stroke-width:0.1" />
  <path
     d="m 343.738,160.073 2.441,-5.473 h 0.1 l 2.457,5.473 z m -3.712,4.7524 h 1.256 c 0.24,0 0.402,-0.1597 0.465,-0.3 0.395,-0.9184 0.813,-1.8164 1.216,-2.7344 h 6.532 l 1.232,2.7344 c 0.086,0.1801 0.225,0.3 0.465,0.3 h 1.256 c 0.302,0 0.457,-0.2597 0.341,-0.5184 l -6.091,-13.439 c -0.062,-0.121 -0.24,-0.221 -0.341,-0.221 h -0.201 c -0.101,0 -0.279,0.1 -0.341,0.221 l -6.13,13.439 c -0.116,0.2587 0.039,0.5184 0.341,0.5184"
     fill="#478ecc"
     fill-rule="evenodd"
     id="path71"
     style="stroke-width:0.1" />
  <path
     d="m 329.767,157.636 v -4.853 h 3.556 c 1.302,0 2.434,1.078 2.434,2.376 0,1.379 -1.132,2.477 -2.434,2.477 z m -2.092,6.81 c 0,0.1993 0.155,0.3794 0.38,0.3794 h 1.293 c 0.202,0 0.381,-0.1801 0.381,-0.3794 v -5.093 h 3.014 l 2.657,5.2923 c 0.039,0.0801 0.163,0.1801 0.318,0.1801 h 1.558 c 0.341,0 0.479,-0.3203 0.341,-0.5794 l -2.735,-5.073 c 1.735,-0.698 2.952,-2.216 2.952,-4.053 0,-2.376 -1.954,-4.274 -4.347,-4.274 h -5.432 c -0.225,0 -0.38,0.18 -0.38,0.38"
     fill="#478ecc"
     fill-rule="evenodd"
     id="path72"
     style="stroke-width:0.1" />
  <path
     d="m 317.524,156.917 v -4.193 h 2.697 c 1.278,0 2.053,0.838 2.053,2.057 0,1.197 -0.775,2.136 -2.053,2.136 z m -0.023,6.071 v -4.273 h 2.743 c 1.294,0 2.456,0.878 2.456,2.097 0,1.238 -0.945,2.176 -2.162,2.176 z m -2.015,1.458 c 0,0.2001 0.163,0.379 0.38,0.379 h 4.695 c 2.511,0 4.355,-1.617 4.355,-3.854 0,-1.837 -1.441,-2.816 -2.503,-3.255 0.946,-0.539 2.077,-1.637 2.077,-3.176 0,-2.096 -1.736,-3.694 -4.153,-3.694 h -4.471 c -0.217,0 -0.38,0.18 -0.38,0.38"
     fill="#478ecc"
     fill-rule="evenodd"
     id="path73"
     style="stroke-width:0.1" />
  <path
     d="m 297.609,157.756 c 0,-2.836 2.332,-5.212 5.168,-5.212 2.859,0 5.193,2.376 5.193,5.212 0,2.856 -2.334,5.172 -5.193,5.172 -2.836,0 -5.168,-2.316 -5.168,-5.172 m -1.998,0 c 0,3.994 3.177,7.169 7.166,7.169 4,0 7.191,-3.175 7.191,-7.169 0,-3.994 -3.191,-7.209 -7.191,-7.209 -3.989,0 -7.166,3.215 -7.166,7.209"
     fill="#478ecc"
     fill-rule="evenodd"
     id="path74"
     style="stroke-width:0.1" />
  <path
     d="m 282.027,157.636 v -4.853 h 3.553 c 1.299,0 2.438,1.078 2.438,2.376 0,1.379 -1.139,2.477 -2.438,2.477 z m -2.097,6.81 c 0,0.1993 0.159,0.3794 0.379,0.3794 h 1.298 c 0.2,0 0.38,-0.1801 0.38,-0.3794 v -5.093 h 3.015 l 2.656,5.2923 c 0.039,0.0801 0.16,0.1801 0.319,0.1801 h 1.559 c 0.339,0 0.478,-0.3203 0.339,-0.5794 l -2.736,-5.073 c 1.737,-0.698 2.956,-2.216 2.956,-4.053 0,-2.376 -1.957,-4.274 -4.354,-4.274 h -5.432 c -0.22,0 -0.379,0.18 -0.379,0.38"
     fill="#478ecc"
     fill-rule="evenodd"
     id="path75"
     style="stroke-width:0.1" />
  <path
     d="m 268.867,160.073 2.436,-5.473 h 0.1 l 2.457,5.473 z m -3.714,4.7524 h 1.258 c 0.239,0 0.399,-0.1597 0.46,-0.3 0.398,-0.9184 0.819,-1.8164 1.217,-2.7344 h 6.53 l 1.239,2.7344 c 0.08,0.1801 0.219,0.3 0.459,0.3 h 1.258 c 0.299,0 0.459,-0.2597 0.34,-0.5184 l -6.091,-13.439 c -0.06,-0.121 -0.24,-0.221 -0.34,-0.221 h -0.2 c -0.099,0 -0.279,0.1 -0.339,0.221 l -6.131,13.439 c -0.119,0.2587 0.04,0.5184 0.34,0.5184"
     fill="#478ecc"
     fill-rule="evenodd"
     id="path76"
     style="stroke-width:0.1" />
  <path
     d="m 253.643,162.928 v -10.184 h 2.636 c 2.934,0 5.071,2.137 5.071,5.072 0,2.955 -2.137,5.112 -5.071,5.112 z m -2.038,1.518 c 0,0.1997 0.16,0.3798 0.36,0.3798 h 4.594 c 3.854,0 7.009,-3.1348 7.009,-7.0098 0,-3.834 -3.155,-6.969 -7.009,-6.969 h -4.594 c -0.2,0 -0.36,0.179 -0.36,0.379"
     fill="#478ecc"
     fill-rule="evenodd"
     id="path77"
     style="stroke-width:0.1" />
  <path
     d="m 237.983,159.613 c 0,3.035 2.277,5.4124 5.412,5.4124 3.155,0 5.452,-2.3774 5.452,-5.4124 v -8.386 c 0,-0.2 -0.18,-0.38 -0.38,-0.38 h -1.338 c -0.22,0 -0.379,0.18 -0.379,0.38 v 8.286 c 0,1.978 -1.299,3.514 -3.355,3.514 -2.037,0 -3.315,-1.557 -3.315,-3.554 v -8.246 c 0,-0.2 -0.16,-0.38 -0.38,-0.38 h -1.337 c -0.2,0 -0.38,0.18 -0.38,0.38"
     fill="#478ecc"
     fill-rule="evenodd"
     id="path78"
     style="stroke-width:0.1" />
  <path
     d="m 219.833,164.366 c -0.039,0.2797 0.1,0.4598 0.379,0.4598 h 1.298 c 0.16,0 0.34,-0.141 0.36,-0.2801 l 1.438,-8.9257 h 0.08 l 3.614,9.1847 c 0.04,0.1211 0.18,0.2199 0.339,0.2199 h 0.36 c 0.18,0 0.3,-0.0988 0.34,-0.2199 l 3.594,-9.1847 h 0.06 l 1.478,8.9257 c 0.04,0.1391 0.199,0.2801 0.379,0.2801 h 1.299 c 0.279,0 0.418,-0.1801 0.359,-0.4598 l -2.457,-13.419 c -0.04,-0.16 -0.199,-0.3 -0.359,-0.3 h -0.319 c -0.14,0 -0.3,0.1 -0.34,0.22 l -4.153,10.204 h -0.08 l -4.175,-10.204 c -0.039,-0.12 -0.219,-0.22 -0.339,-0.22 h -0.319 c -0.16,0 -0.319,0.14 -0.36,0.3"
     fill="#478ecc"
     fill-rule="evenodd"
     id="path79"
     style="stroke-width:0.1" />
  <path
     d="m 9.713,56.979 c 2.978,-3.9 10.005,-13.446 14.32,-19.651 L 10.804,24.351 c -0.431,-0.373 -0.535,-1.065 -0.102,-1.558 0,0 5.009,-6.061 12.364,-6.061 4.445,0 7.959,1.428 10.36,3.716 l 6.18,6.182 c 2.466,-6.329 7.223,-9.898 13.896,-9.898 3.108,0 5.8,0.777 8.04,2.245 L 74.918,32.255 C 72.147,13.99 56.53,0 37.678,0 16.854,0 0,17.065 0,38.07 v 73.207 c 0,4.221 6.316,4.221 6.316,0 0,0 1.227,-11.036 10.614,-20.952 4.968,-5.247 9.657,-8.147 14.484,-10.181 L 8.695,57.624"
     fill="#27b34a"
     id="path80"
     style="stroke-width:0.1" />
  <path
     d="m 75.356,38.07 c 0,-1.977 -0.15,-3.919 -0.437,-5.815 L 61.542,18.977 c -2.24,-1.468 -4.931,-2.246 -8.04,-2.246 -6.672,0 -11.431,3.57 -13.896,9.899 l -6.179,-6.182 c -2.402,-2.288 -5.915,-3.717 -10.36,-3.717 -7.355,0 -12.364,6.062 -12.364,6.062 -0.433,0.493 -0.329,1.185 0.101,1.558 L 24.033,37.328 C 19.719,43.533 12.692,53.079 9.714,56.979 l -1.019,0.645 22.719,22.52 C 37.315,77.657 43.421,76.466 50.495,73.88 64.994,68.581 75.356,54.549 75.356,38.07"
     fill="#09a245"
     id="path81"
     style="stroke-width:0.1" />
  <path
     d="m 8.511,55.669 c 3.587,-4.697 12.736,-17.126 16.383,-22.689 0.803,-1.238 1.609,-2.97 1.609,-4.701 0,-2.346 -1.979,-4.451 -5.442,-4.451 -2.535,0 -4.823,1.793 -5.996,3.091 -0.495,0.494 -1.238,0.494 -1.731,0 L 9.561,23.088 C 9.13,22.716 9.067,21.976 9.5,21.483 c 0,0 5.009,-6.061 12.364,-6.061 8.842,0 14.035,5.628 14.035,12.489 0,3.277 -0.926,5.13 -2.411,8.034 -1.979,3.524 -7.048,10.139 -9.953,14.222 h 10.881 c 0.617,0 1.173,0.559 1.173,1.173 v 5.567 c 0,0.615 -0.556,1.173 -1.173,1.173 H 9.686 c -0.682,0 -1.175,-0.558 -1.175,-1.173"
     fill="#ffffff"
     id="path82"
     style="stroke-width:0.1" />
  <path
     d="m 58.172,37.058 c 0,-8.095 -2.102,-12.671 -5.872,-12.671 -3.773,0 -5.875,4.576 -5.875,12.671 0,8.165 2.102,12.676 5.875,12.676 3.77,0 5.872,-4.511 5.872,-12.676 m -21.699,0 c 0,-13.537 5.749,-21.636 15.827,-21.636 10.075,0 15.827,8.099 15.827,21.636 0,13.542 -5.752,21.641 -15.827,21.641 -10.078,0 -15.827,-8.099 -15.827,-21.641"
     fill="#ffffff"
     id="path83"
     style="stroke-width:0.1" />
</svg>
