<?xml version="1.0" encoding="UTF-8" standalone="no"?>
<!-- Created with Inkscape (http://www.inkscape.org/) -->

<svg
   width="205.50014mm"
   height="127.00001mm"
   viewBox="0 0 205.50014 127.00001"
   version="1.1"
   id="svg1"
   inkscape:version="1.4.2 (f4327f4, 2025-05-13)"
   sodipodi:docname="Progressistas logo.svg"
   xmlns:inkscape="http://www.inkscape.org/namespaces/inkscape"
   xmlns:sodipodi="http://sodipodi.sourceforge.net/DTD/sodipodi-0.dtd"
   xmlns="http://www.w3.org/2000/svg"
   xmlns:svg="http://www.w3.org/2000/svg">
  <sodipodi:namedview
     id="namedview1"
     pagecolor="#ffffff"
     bordercolor="#000000"
     borderopacity="0.25"
     inkscape:showpageshadow="2"
     inkscape:pageopacity="0.0"
     inkscape:pagecheckerboard="0"
     inkscape:deskcolor="#d1d1d1"
     inkscape:document-units="mm"
     inkscape:zoom="0.71891835"
     inkscape:cx="383.91008"
     inkscape:cy="285.84609"
     inkscape:window-width="1920"
     inkscape:window-height="1009"
     inkscape:window-x="-8"
     inkscape:window-y="-8"
     inkscape:window-maximized="1"
     inkscape:current-layer="layer1" />
  <defs
     id="defs1">
    <clipPath
       id="clip_2">
      <path
         transform="matrix(0.1,0,0,-0.1,0,850.394)"
         d="M 1533.05,1785.83 H 6970.8898 V 5677.84 H 1533.05 Z"
         id="path3" />
    </clipPath>
    <clipPath
       id="clip_3">
      <path
         transform="matrix(0.1,0,0,-0.1,0,850.394)"
         d="m 3649.46,2960.11 h 1703.3 v 1822.33 h -1703.3 z"
         id="path4" />
    </clipPath>
    <clipPath
       id="clip_4">
      <path
         transform="matrix(0.1,0,0,-0.1,0,850.394)"
         d="m 3649.46,2960.11 h 1703.3 v 1822.33 h -1703.3 z"
         id="path5" />
    </clipPath>
    <clipPath
       id="clip_5">
      <path
         transform="matrix(0.1,0,0,-0.1,0,850.394)"
         d="M 3649.46,2960.12 H 5352.75 V 4782.44 H 3649.46 Z"
         id="path6" />
    </clipPath>
    <clipPath
       id="clip_7">
      <path
         transform="matrix(0.1,0,0,-0.1,0,850.394)"
         d="M 1533.05,1785.83 H 6970.8898 V 5677.84 H 1533.05 Z"
         id="path8" />
    </clipPath>
  </defs>
  <g
     inkscape:label="Layer 1"
     inkscape:groupmode="layer"
     id="layer1"
     transform="translate(-158.22083,-72.760415)">
    <path
       d="m 162.56263,191.17793 c 0.62189,0 1.09207,-0.12978 1.41243,-0.38981 0.32,-0.25886 0.52225,-0.6215 0.60716,-1.08677 0.0807,-0.46074 0.006,-0.81621 -0.22452,-1.06715 -0.23056,-0.25019 -0.6566,-0.37547 -1.27847,-0.37547 h -1.82525 l -0.51697,2.9192 z m -0.58376,4.4618 c 0.62603,0 1.11055,-0.14942 1.45281,-0.44904 0.34226,-0.29962 0.5581,-0.70264 0.64753,-1.20828 0.089,-0.50528 0.0144,-0.9064 -0.2249,-1.20413 -0.23924,-0.29773 -0.67206,-0.44679 -1.29847,-0.44679 h -2.02034 l -0.57622,3.30824 z m -2.03355,-8.5753 h 3.36221 c 1.01546,0 1.77733,0.20903 2.28449,0.62714 0.50791,0.41811 0.68375,1.07244 0.52715,1.96261 -0.094,0.53736 -0.30338,0.97432 -0.62753,1.31206 -0.32415,0.33773 -0.69471,0.57583 -1.11055,0.7147 v 0.0268 c 0.4517,0.13848 0.79735,0.4015 1.03697,0.78866 0.23924,0.38716 0.30263,0.89395 0.19131,1.5196 -0.15698,0.89471 -0.58376,1.58827 -1.28186,2.08072 -0.6981,0.49168 -1.54601,0.7381 -2.54335,0.7381 h -3.56333"
       fill="#43b8ea"
       id="path17"
       style="stroke-width:0.0377351" />
    <path
       d="m 167.49764,189.76814 h 1.38224 l -0.094,0.85923 h 0.0404 c 0.21472,-0.28187 0.47962,-0.52904 0.79509,-0.7415 0.31546,-0.21282 0.65885,-0.31847 1.03016,-0.31847 0.094,0 0.19133,0.01 0.29208,0.0328 0.1004,0.023 0.16867,0.0434 0.20451,0.0608 l -0.23508,1.34904 c -0.0804,-0.0174 -0.16755,-0.0325 -0.26151,-0.0438 -0.094,-0.0114 -0.19924,-0.017 -0.31546,-0.017 -0.36717,0 -0.70113,0.1004 -1.003,0.30189 -0.30226,0.20149 -0.54716,0.45168 -0.73508,0.7513 l -0.84528,4.83237 h -1.49656"
       fill="#43b8ea"
       id="path18"
       style="stroke-width:0.0377351" />
    <path
       d="m 172.00625,195.52955 c 0.17659,0.21698 0.49545,0.3249 0.9562,0.3249 0.46527,0 0.90338,-0.15774 1.31545,-0.47245 0.41131,-0.31546 0.65092,-0.66112 0.7181,-1.03734 l 0.16075,-0.89885 h -1.34224 c -0.58603,0 -1.04564,0.10725 -1.37885,0.32188 -0.3332,0.21472 -0.53319,0.50792 -0.60036,0.87923 -0.063,0.37131 -0.006,0.66566 0.17095,0.88263 m -0.51019,-2.48298 c 0.65131,-0.39583 1.42148,-0.59583 2.31203,-0.60037 h 1.52337 l 0.0804,-0.44979 c 0.0717,-0.38906 0.028,-0.70528 -0.13093,-0.9498 -0.15887,-0.24339 -0.48414,-0.36527 -0.97621,-0.36527 -0.4966,0 -0.87018,0.10041 -1.12073,0.30187 -0.25056,0.20076 -0.3981,0.43849 -0.44264,0.71094 l -0.007,0.0608 h -1.48299 l 0.007,-0.0608 c 0.10297,-0.58566 0.45659,-1.08716 1.06036,-1.50261 0.60413,-0.41584 1.34638,-0.62414 2.22788,-0.62414 0.88112,0 1.53204,0.20074 1.95278,0.60376 0.42038,0.40226 0.55698,1.01092 0.40906,1.82525 l -0.57017,3.23466 c -0.0495,0.29017 -0.0729,0.56451 -0.0706,0.82187 0.003,0.25697 0.028,0.48187 0.0773,0.67395 l -0.0204,0.10797 h -1.4626 c -0.0404,-0.10797 -0.0695,-0.24982 -0.0872,-0.42641 -0.0181,-0.17698 -0.0181,-0.34981 0,-0.52037 -0.2015,0.28188 -0.51018,0.53282 -0.92639,0.75206 -0.41584,0.21848 -0.9147,0.32867 -1.49621,0.32867 -0.67583,0 -1.21469,-0.18792 -1.61732,-0.56376 -0.40227,-0.37546 -0.53886,-0.92602 -0.40943,-1.65092 0.12979,-0.74263 0.51999,-1.31204 1.17092,-1.70752"
       fill="#43b8ea"
       id="path19"
       style="stroke-width:0.0377351" />
    <path
       d="m 178.90423,194.70731 -0.007,0.0539 c -0.0672,0.38452 0.0204,0.67093 0.26188,0.85885 0.2415,0.18754 0.59018,0.2815 1.04677,0.2815 0.4566,0 0.82791,-0.0906 1.11394,-0.27206 0.28604,-0.18113 0.45395,-0.41434 0.50301,-0.70037 0.0539,-0.29093 -0.0177,-0.51282 -0.21471,-0.6649 -0.19661,-0.15169 -0.66188,-0.31281 -1.39545,-0.48339 -0.7513,-0.17847 -1.30978,-0.43432 -1.6743,-0.76753 -0.3649,-0.3332 -0.49547,-0.78903 -0.39282,-1.36601 0.10297,-0.61281 0.43998,-1.11243 1.01017,-1.49959 0.57017,-0.38717 1.27845,-0.58037 2.12372,-0.58037 0.84113,0 1.48299,0.1951 1.926,0.58678 0.44264,0.39132 0.60641,0.92036 0.48981,1.58677 l -0.0143,0.0539 h -1.48262 l 0.02,-0.0804 c 0.0539,-0.31282 -0.0114,-0.55961 -0.1947,-0.7381 -0.1834,-0.17925 -0.50113,-0.26867 -0.95281,-0.26867 -0.44755,0 -0.7883,0.0803 -1.02338,0.2415 -0.23473,0.1615 -0.37472,0.36489 -0.41925,0.61056 -0.0404,0.2464 0.0468,0.44225 0.26151,0.58753 0.21472,0.14565 0.69132,0.30528 1.42941,0.47999 0.75583,0.17434 1.30601,0.43018 1.65091,0.76791 0.34414,0.33848 0.46302,0.81772 0.35585,1.43922 -0.12108,0.65773 -0.46226,1.18942 -1.02376,1.5943 -0.56111,0.40454 -1.32752,0.60754 -2.29845,0.60754 -0.96602,0 -1.67054,-0.20527 -2.11355,-0.61469 -0.44301,-0.40906 -0.60187,-0.96753 -0.4766,-1.67393 l 0.007,-0.0472"
       fill="#43b8ea"
       id="path20"
       style="stroke-width:0.0377351" />
    <path
       d="m 185.82863,187.08404 c 0.18566,-0.16527 0.42604,-0.24754 0.72112,-0.24754 0.29093,0 0.49999,0.0823 0.62753,0.24754 0.12751,0.16604 0.17132,0.36943 0.13093,0.61056 -0.0495,0.24225 -0.16565,0.44413 -0.34905,0.6079 -0.18338,0.16341 -0.42036,0.24491 -0.71131,0.24491 -0.29508,0 -0.50753,-0.0814 -0.63735,-0.24491 -0.13021,-0.16377 -0.17017,-0.36565 -0.1208,-0.6079 0.0399,-0.24113 0.15282,-0.44452 0.33886,-0.61056 m -0.55357,2.6841 h 1.50298 l -1.24147,7.06667 h -1.503"
       fill="#43b8ea"
       id="path21"
       style="stroke-width:0.0377351" />
    <path
       d="m 188.895,186.54028 h 1.49656 l -1.81883,10.29453 h -1.49619 z"
       fill="#43b8ea"
       id="path22"
       style="stroke-width:0.0377351" />
    <path
       d="m 194.83564,195.11673 c 0.21245,0.44716 0.62528,0.67093 1.23809,0.67093 0.41621,0 0.78942,-0.11281 1.12073,-0.33887 0.33094,-0.22565 0.58565,-0.48866 0.7649,-0.78828 l 0.47659,-2.7241 c -0.0762,-0.29584 -0.23622,-0.55623 -0.47999,-0.78188 -0.24377,-0.22603 -0.57622,-0.33886 -0.99658,-0.33886 -0.61283,0 -1.10603,0.22378 -1.47961,0.67094 -0.37319,0.44716 -0.61847,1.00677 -0.7347,1.67769 l -0.0536,0.27472 c -0.11667,0.67093 -0.0683,1.23055 0.14415,1.67771 m -1.62714,-1.926 c 0.1834,-1.03773 0.60715,-1.88979 1.2713,-2.55618 0.66451,-0.66642 1.44639,-1.00036 2.34561,-1.00036 0.47396,0 0.8664,0.0857 1.17771,0.25509 0.31095,0.1698 0.53999,0.39358 0.68792,0.67093 l 0.71093,-4.01956 h 1.48979 l -1.81847,10.29416 h -1.38224 l 0.10711,-0.88564 h -0.0399 c -0.21472,0.28641 -0.52037,0.52791 -0.91621,0.72488 -0.39585,0.19623 -0.83093,0.2951 -1.30489,0.2951 -0.91734,0 -1.58714,-0.33433 -2.01014,-1.00338 -0.42265,-0.66867 -0.54226,-1.52261 -0.35887,-2.56034"
       fill="#43b8ea"
       id="path23"
       style="stroke-width:0.0377351" />
    <path
       d="m 202.24344,193.44581 c -0.12537,0.70754 -0.066,1.28376 0.17772,1.73129 0.24378,0.44792 0.67886,0.67093 1.30527,0.67093 0.6215,0 1.13281,-0.22301 1.53317,-0.67093 0.40075,-0.44753 0.66339,-1.02375 0.78867,-1.73129 l 0.0536,-0.28905 c 0.1208,-0.70602 0.0592,-1.28412 -0.18452,-1.7343 -0.24377,-0.44943 -0.67433,-0.67396 -1.29168,-0.67396 -0.62187,0 -1.13507,0.22453 -1.54035,0.67396 -0.4049,0.45018 -0.66715,1.02828 -0.78828,1.7343 z m -1.48301,-0.25508 c 0.19246,-1.07772 0.66112,-1.95167 1.40565,-2.61996 0.74527,-0.66943 1.63392,-1.00337 2.6675,-1.00337 1.03318,0 1.80487,0.33394 2.31504,1.00337 0.50981,0.66829 0.66905,1.54224 0.47623,2.61996 l -0.0401,0.2147 c -0.19244,1.08301 -0.65998,1.95809 -1.40224,2.62751 -0.743,0.66904 -1.63091,1.00337 -2.66372,1.00337 -1.03394,0 -1.80676,-0.33433 -2.31883,-1.00337 -0.51244,-0.66942 -0.67169,-1.5445 -0.47999,-2.62751"
       fill="#43b8ea"
       id="path24"
       style="stroke-width:0.0377351" />
    <path
       d="m 212.61004,188.91646 c 0.14302,-0.82792 0.47961,-1.45281 1.00979,-1.87581 0.53018,-0.42264 1.1713,-0.63358 1.92261,-0.63358 0.1566,0 0.30866,0.009 0.45622,0.0261 0.14791,0.0177 0.28603,0.0454 0.41621,0.0812 l -0.27509,1.15432 c -0.0899,-0.0181 -0.18679,-0.0339 -0.29207,-0.0472 -0.10525,-0.0143 -0.21358,-0.0204 -0.32528,-0.0204 -0.37622,0 -0.68677,0.11053 -0.93281,0.33169 -0.24641,0.22189 -0.40715,0.55396 -0.483,0.99659 l -0.2351,1.30904 -0.0268,0.14754 -1.13395,6.44894 h -1.49658 z m -1.2347,0.85168 h 4.01955 l -0.19471,1.12074 h -4.01955 z"
       fill="#43b8ea"
       id="path25"
       style="stroke-width:0.0377351" />
    <path
       d="m 215.76017,189.76814 h 1.49658 l -0.79206,4.50936 c -0.094,0.53773 -0.0438,0.91922 0.15093,1.14412 0.19473,0.22642 0.50453,0.33963 0.92942,0.33963 0.36678,0 0.70943,-0.10112 1.02678,-0.30264 0.31773,-0.20076 0.57924,-0.46076 0.78527,-0.7781 l 0.86527,-4.91237 h 1.49656 l -1.24147,7.06667 h -1.38224 l 0.10711,-0.86602 h -0.0401 c -0.29547,0.30943 -0.64225,0.5532 -1.03998,0.7313 -0.3981,0.17925 -0.82074,0.26867 -1.26827,0.26867 -0.7117,0 -1.24603,-0.20905 -1.60413,-0.62714 -0.35773,-0.4185 -0.4498,-1.11736 -0.27509,-2.0977"
       fill="#43b8ea"
       id="path26"
       style="stroke-width:0.0377351" />
    <path
       d="m 223.30531,190.40625 0.0337,-0.20151 0.37585,-2.15392 h 1.48941 l -1.20753,6.90478 c -0.0582,0.31282 -0.0358,0.53584 0.0672,0.6679 0.10269,0.13164 0.27734,0.19775 0.52338,0.19775 0.1208,0 0.24037,-0.0143 0.35886,-0.0399 0.11852,-0.0272 0.24037,-0.0626 0.36565,-0.10796 l -0.20791,1.16149 c -0.1208,0.0532 -0.27811,0.10069 -0.4732,0.14034 -0.19434,0.0408 -0.40339,0.0612 -0.62754,0.0612 -0.56791,0 -0.99168,-0.16754 -1.27129,-0.50075 -0.27962,-0.3332 -0.3566,-0.85507 -0.2317,-1.56676 z m -1.08677,-0.63811 h 4.13352 l -0.19472,1.12074 h -4.13351 z"
       fill="#43b8ea"
       id="path27"
       style="stroke-width:0.0377351" />
    <path
       d="m 227.09959,189.76814 h 1.49658 l -0.79206,4.50936 c -0.094,0.53773 -0.0438,0.91922 0.15094,1.14412 0.1947,0.22642 0.50452,0.33963 0.92941,0.33963 0.36678,0 0.70905,-0.10112 1.02678,-0.30264 0.31773,-0.20076 0.57922,-0.46076 0.78527,-0.7781 l 0.86527,-4.91237 h 1.49656 l -1.24148,7.06667 h -1.38223 l 0.10711,-0.86602 h -0.0401 c -0.29547,0.30943 -0.64225,0.5532 -1.03998,0.7313 -0.39811,0.17925 -0.82111,0.26867 -1.26829,0.26867 -0.71168,0 -1.24601,-0.20905 -1.60411,-0.62714 -0.35772,-0.4185 -0.4498,-1.11736 -0.27509,-2.0977"
       fill="#43b8ea"
       id="path28"
       style="stroke-width:0.0377351" />
    <path
       d="m 234.51077,189.76814 h 1.38262 l -0.0943,0.85923 h 0.0404 c 0.21509,-0.28187 0.48,-0.52904 0.79509,-0.7415 0.31546,-0.21282 0.65924,-0.31847 1.03055,-0.31847 0.0936,0 0.19131,0.01 0.29169,0.0328 0.1004,0.023 0.16905,0.0434 0.2049,0.0608 l -0.23509,1.34904 c -0.0804,-0.0174 -0.16793,-0.0325 -0.2615,-0.0438 -0.0943,-0.0114 -0.19963,-0.017 -0.31548,-0.017 -0.36716,0 -0.70149,0.1004 -1.00337,0.30189 -0.30188,0.20149 -0.54716,0.45168 -0.73508,0.7513 l -0.84489,4.83237 h -1.49658"
       fill="#43b8ea"
       id="path29"
       style="stroke-width:0.0377351" />
    <path
       d="m 239.19107,193.44581 c -0.12522,0.70754 -0.066,1.28376 0.17735,1.73129 0.24415,0.44792 0.67923,0.67093 1.30526,0.67093 0.62188,0 1.13282,-0.22301 1.53357,-0.67093 0.40036,-0.44753 0.663,-1.02375 0.78865,-1.73129 l 0.0536,-0.28905 c 0.1208,-0.70602 0.0589,-1.28412 -0.18452,-1.7343 -0.24377,-0.44943 -0.67433,-0.67396 -1.29166,-0.67396 -0.62189,0 -1.13547,0.22453 -1.54035,0.67396 -0.4049,0.45018 -0.66717,1.02828 -0.7883,1.7343 z m -1.48299,-0.25508 c 0.19207,-1.07772 0.66112,-1.95167 1.40563,-2.61996 0.74527,-0.66943 1.63394,-1.00337 2.66713,-1.00337 1.03356,0 1.80524,0.33394 2.31542,1.00337 0.5098,0.66829 0.66905,1.54224 0.47622,2.61996 l -0.0404,0.2147 c -0.19206,1.08301 -0.6596,1.95809 -1.40223,2.62751 -0.74263,0.66904 -1.63053,1.00337 -2.66372,1.00337 -1.03358,0 -1.80639,-0.33433 -2.31884,-1.00337 -0.51206,-0.66942 -0.67167,-1.5445 -0.4796,-2.62751"
       fill="#43b8ea"
       id="path30"
       style="stroke-width:0.0377351" />
    <path
       d="m 253.14063,185.95689 1.05357,0.7849 -2.39581,1.90562 -0.67093,-0.65056 z m -5.03275,7.23384 c 0.19208,-1.0732 0.65094,-1.94564 1.37583,-2.61731 0.72451,-0.67093 1.57884,-1.00602 2.56297,-1.00602 0.98451,0 1.69243,0.31432 2.12411,0.94262 0.4317,0.62866 0.55132,1.48185 0.35887,2.56032 l -0.10754,0.5834 h -5.43538 l 0.19509,-1.08036 h 3.94559 l 0.0268,-0.15434 c 0.0849,-0.46943 0.0188,-0.86942 -0.19811,-1.19809 -0.21699,-0.32867 -0.5781,-0.49283 -1.08375,-0.49283 -0.6083,0 -1.10489,0.22943 -1.4898,0.68792 -0.38452,0.45885 -0.63734,1.03885 -0.7581,1.7411 l -0.0539,0.28867 c -0.12037,0.69319 -0.0592,1.26904 0.1849,1.7279 0.24339,0.45848 0.6966,0.68791 1.35885,0.68791 0.42489,0 0.80753,-0.0963 1.14753,-0.28905 0.33961,-0.19169 0.62829,-0.4181 0.86564,-0.67698 l 0.87886,0.73094 c -0.28642,0.36679 -0.7,0.69356 -1.24149,0.97998 -0.54114,0.28565 -1.15622,0.42943 -1.84526,0.42943 -1.11395,0 -1.91506,-0.33548 -2.4026,-1.00639 -0.48715,-0.67169 -0.63734,-1.54602 -0.44943,-2.62412"
       fill="#43b8ea"
       id="path31"
       style="stroke-width:0.0377351" />
    <path
       d="m 262.25216,191.17793 c 0.62187,0 1.09244,-0.12978 1.41244,-0.38981 0.31998,-0.25886 0.52225,-0.6215 0.60715,-1.08677 0.0807,-0.46074 0.006,-0.81621 -0.22453,-1.06715 -0.23056,-0.25019 -0.65659,-0.37547 -1.27847,-0.37547 h -1.82524 l -0.5166,2.9192 z m -0.58376,4.4618 c 0.62602,0 1.11055,-0.14942 1.45281,-0.44904 0.34225,-0.29962 0.55809,-0.70264 0.64753,-1.20828 0.0894,-0.50528 0.0144,-0.9064 -0.2249,-1.20413 -0.23925,-0.29773 -0.67206,-0.44679 -1.29847,-0.44679 h -2.01997 l -0.57659,3.30824 z m -2.03318,-8.5753 h 3.36184 c 1.01545,0 1.77731,0.20903 2.28486,0.62714 0.50753,0.41811 0.68338,1.07244 0.52678,1.96261 -0.094,0.53736 -0.30301,0.97432 -0.62753,1.31206 -0.32415,0.33773 -0.69471,0.57583 -1.11055,0.7147 v 0.0268 c 0.45168,0.13848 0.79734,0.4015 1.03696,0.78866 0.23925,0.38716 0.30264,0.89395 0.19133,1.5196 -0.15699,0.89471 -0.58377,1.58827 -1.28187,2.08072 -0.6981,0.49168 -1.54564,0.7381 -2.54336,0.7381 h -3.56295"
       fill="#43b8ea"
       id="path32"
       style="stroke-width:0.0377351" />
    <path
       d="m 267.18754,189.76814 h 1.38187 l -0.0936,0.85923 h 0.0404 c 0.21434,-0.28187 0.47962,-0.52904 0.79508,-0.7415 0.31547,-0.21282 0.65886,-0.31847 1.03017,-0.31847 0.094,0 0.19094,0.01 0.29207,0.0328 0.10041,0.023 0.1683,0.0434 0.20452,0.0608 l -0.23508,1.34904 c -0.0807,-0.0174 -0.16755,-0.0325 -0.26151,-0.0438 -0.0943,-0.0114 -0.19924,-0.017 -0.31583,-0.017 -0.3668,0 -0.70076,0.1004 -1.00263,0.30189 -0.30264,0.20149 -0.54717,0.45168 -0.73508,0.7513 l -0.84528,4.83237 h -1.49656"
       fill="#43b8ea"
       id="path33"
       style="stroke-width:0.0377351" />
    <path
       d="m 271.69615,195.52955 c 0.17659,0.21698 0.49545,0.3249 0.9562,0.3249 0.46527,0 0.90338,-0.15774 1.31545,-0.47245 0.41131,-0.31546 0.65093,-0.66112 0.7181,-1.03734 l 0.16075,-0.89885 h -1.34224 c -0.58603,0 -1.04564,0.10725 -1.37884,0.32188 -0.33321,0.21472 -0.53319,0.50792 -0.60037,0.87923 -0.063,0.37131 -0.006,0.66566 0.17095,0.88263 m -0.51019,-2.48298 c 0.65131,-0.39583 1.42148,-0.59583 2.31203,-0.60037 h 1.52337 l 0.0804,-0.44979 c 0.0717,-0.38906 0.0279,-0.70528 -0.13093,-0.9498 -0.15886,-0.24339 -0.48414,-0.36527 -0.97621,-0.36527 -0.49659,0 -0.87018,0.10041 -1.12073,0.30187 -0.25056,0.20076 -0.3981,0.43849 -0.44264,0.71094 l -0.007,0.0608 h -1.48299 l 0.007,-0.0608 c 0.10297,-0.58566 0.45659,-1.08716 1.06036,-1.50261 0.60413,-0.41584 1.34639,-0.62414 2.22788,-0.62414 0.88112,0 1.53204,0.20074 1.95279,0.60376 0.42037,0.40226 0.55697,1.01092 0.40905,1.82525 l -0.57017,3.23466 c -0.0495,0.29017 -0.0729,0.56451 -0.0706,0.82187 0.003,0.25697 0.028,0.48187 0.0773,0.67395 l -0.0204,0.10797 h -1.46261 c -0.0404,-0.10797 -0.0695,-0.24982 -0.0871,-0.42641 -0.0181,-0.17698 -0.0181,-0.34981 0,-0.52037 -0.20151,0.28188 -0.51019,0.53282 -0.9264,0.75206 -0.41584,0.21848 -0.9147,0.32867 -1.49621,0.32867 -0.67582,0 -1.21469,-0.18792 -1.61732,-0.56376 -0.40227,-0.37546 -0.53885,-0.92602 -0.40943,-1.65092 0.12979,-0.74263 0.51999,-1.31204 1.17092,-1.70752"
       fill="#43b8ea"
       id="path34"
       style="stroke-width:0.0377351" />
    <path
       d="m 278.59375,194.70731 -0.007,0.0539 c -0.0672,0.38452 0.0204,0.67093 0.26188,0.85885 0.24151,0.18754 0.59018,0.2815 1.04678,0.2815 0.45659,0 0.8279,-0.0906 1.11394,-0.27206 0.28603,-0.18113 0.45395,-0.41434 0.50338,-0.70037 0.0536,-0.29093 -0.0177,-0.51282 -0.21508,-0.6649 -0.19661,-0.15169 -0.66188,-0.31281 -1.39545,-0.48339 -0.75132,-0.17847 -1.30979,-0.43432 -1.67432,-0.76753 -0.36489,-0.3332 -0.49545,-0.78903 -0.39282,-1.36601 0.10297,-0.61281 0.44,-1.11243 1.01017,-1.49959 0.57019,-0.38717 1.27847,-0.58037 2.12375,-0.58037 0.8411,0 1.48298,0.1951 1.92599,0.58678 0.44264,0.39132 0.6064,0.92036 0.48981,1.58677 l -0.0143,0.0539 h -1.48261 l 0.02,-0.0804 c 0.0539,-0.31282 -0.0114,-0.55961 -0.19472,-0.7381 -0.18338,-0.17925 -0.50112,-0.26867 -0.95281,-0.26867 -0.44755,0 -0.78828,0.0803 -1.02338,0.2415 -0.23471,0.1615 -0.37471,0.36489 -0.41923,0.61056 -0.0404,0.2464 0.0468,0.44225 0.26151,0.58753 0.2147,0.14565 0.6913,0.30528 1.4294,0.47999 0.75584,0.17434 1.30601,0.43018 1.65091,0.76791 0.34415,0.33848 0.46301,0.81772 0.35584,1.43922 -0.12108,0.65773 -0.46225,1.18942 -1.02375,1.5943 -0.56112,0.40454 -1.32753,0.60754 -2.29845,0.60754 -0.96601,0 -1.67053,-0.20527 -2.11354,-0.61469 -0.44301,-0.40906 -0.60151,-0.96753 -0.4766,-1.67393 l 0.007,-0.0472"
       fill="#43b8ea"
       id="path35"
       style="stroke-width:0.0377351" />
    <path
       d="m 285.51853,187.08404 c 0.18567,-0.16527 0.42604,-0.24754 0.72112,-0.24754 0.29093,0 0.49999,0.0823 0.62753,0.24754 0.12751,0.16604 0.17132,0.36943 0.13093,0.61056 -0.0495,0.24225 -0.16565,0.44413 -0.34905,0.6079 -0.18338,0.16341 -0.42036,0.24491 -0.71131,0.24491 -0.29508,0 -0.50753,-0.0814 -0.63734,-0.24491 -0.13022,-0.16377 -0.17018,-0.36565 -0.1208,-0.6079 0.0399,-0.24113 0.15281,-0.44452 0.33885,-0.61056 m -0.55357,2.6841 h 1.50298 l -1.24148,7.06667 h -1.50299"
       fill="#43b8ea"
       id="path36"
       style="stroke-width:0.0377351" />
    <path
       d="m 288.58451,186.54028 h 1.49658 l -1.81883,10.29453 h -1.49621 z"
       fill="#43b8ea"
       id="path37"
       style="stroke-width:0.0377351" />
    <path
       d="m 293.90518,189.76814 h 1.38223 l -0.10069,0.87244 h 0.0404 c 0.29095,-0.3132 0.6298,-0.55848 1.01659,-0.73772 0.38716,-0.17925 0.79055,-0.26867 1.21129,-0.26867 0.47848,0 0.8766,0.0974 1.19433,0.29169 0.31773,0.19472 0.53018,0.49849 0.63734,0.90903 h 0.0337 c 0.34905,-0.41054 0.72828,-0.71431 1.13733,-0.90903 0.40943,-0.19434 0.84716,-0.29169 1.31243,-0.29169 0.72452,0 1.26036,0.20942 1.60677,0.6279 0.34678,0.41774 0.43547,1.1166 0.26528,2.09694 l -0.79206,4.47578 h -1.503 l 0.79848,-4.52294 c 0.0894,-0.51886 0.0461,-0.89356 -0.1305,-1.12451 -0.17698,-0.22981 -0.46905,-0.34527 -0.87584,-0.34527 -0.35811,0 -0.68904,0.0993 -0.9932,0.2981 -0.30489,0.2 -0.56338,0.46 -0.77847,0.78225 l -0.86602,4.91237 h -1.49583 l 0.79848,-4.51615 c 0.0894,-0.52376 0.0456,-0.90035 -0.13092,-1.1313 -0.1766,-0.22981 -0.47358,-0.34527 -0.88905,-0.34527 -0.35357,0 -0.6815,0.0985 -0.98337,0.29508 -0.30189,0.19699 -0.56037,0.45924 -0.77509,0.78527 l -0.86527,4.91237 h -1.49656"
       fill="#43b8ea"
       id="path38"
       style="stroke-width:0.0377351" />
    <path
       d="m 305.90912,195.52955 c 0.17659,0.21698 0.49545,0.3249 0.9562,0.3249 0.46566,0 0.90338,-0.15774 1.31545,-0.47245 0.41169,-0.31546 0.65092,-0.66112 0.7181,-1.03734 l 0.16113,-0.89885 h -1.34225 c -0.5864,0 -1.04601,0.10725 -1.37922,0.32188 -0.3332,0.21472 -0.53318,0.50792 -0.60036,0.87923 -0.063,0.37131 -0.006,0.66566 0.17095,0.88263 m -0.51019,-2.48298 c 0.65168,-0.39583 1.42148,-0.59583 2.31203,-0.60037 h 1.52337 l 0.0804,-0.44979 c 0.0717,-0.38906 0.0282,-0.70528 -0.13093,-0.9498 -0.15887,-0.24339 -0.48414,-0.36527 -0.97621,-0.36527 -0.4966,0 -0.86979,0.10041 -1.12073,0.30187 -0.25056,0.20076 -0.39812,0.43849 -0.44264,0.71094 l -0.007,0.0608 h -1.48299 l 0.007,-0.0608 c 0.10269,-0.58566 0.45621,-1.08716 1.05999,-1.50261 0.60413,-0.41584 1.34638,-0.62414 2.22788,-0.62414 0.88111,0 1.53204,0.20074 1.95278,0.60376 0.42038,0.40226 0.55698,1.01092 0.40906,1.82525 l -0.57017,3.23466 c -0.0495,0.29017 -0.0729,0.56451 -0.0702,0.82187 10e-4,0.25697 0.0275,0.48187 0.077,0.67395 l -0.0204,0.10797 h -1.46224 c -0.0404,-0.10797 -0.0695,-0.24982 -0.0876,-0.42641 -0.0181,-0.17698 -0.0181,-0.34981 0,-0.52037 -0.20151,0.28188 -0.51018,0.53282 -0.9264,0.75206 -0.41584,0.21848 -0.9147,0.32867 -1.49621,0.32867 -0.67582,0 -1.21469,-0.18792 -1.61732,-0.56376 -0.40226,-0.37546 -0.53886,-0.92602 -0.40942,-1.65092 0.12978,-0.74263 0.51998,-1.31204 1.17092,-1.70752"
       fill="#43b8ea"
       id="path39"
       style="stroke-width:0.0377351" />
    <path
       d="m 313.2403,187.08404 c 0.18528,-0.16527 0.42602,-0.24754 0.72112,-0.24754 0.29093,0 0.49999,0.0823 0.62753,0.24754 0.12751,0.16604 0.17132,0.36943 0.13093,0.61056 -0.0495,0.24225 -0.16566,0.44413 -0.34905,0.6079 -0.1834,0.16341 -0.42036,0.24491 -0.71131,0.24491 -0.29508,0 -0.50753,-0.0814 -0.63735,-0.24491 -0.13021,-0.16377 -0.17019,-0.36565 -0.1208,-0.6079 0.0401,-0.24113 0.15284,-0.44452 0.33887,-0.61056 m -0.55357,2.6841 h 1.50299 l -1.24186,7.06667 h -1.50262"
       fill="#43b8ea"
       id="path40"
       style="stroke-width:0.0377351" />
    <path
       d="m 315.85648,194.70731 -0.007,0.0539 c -0.0676,0.38452 0.02,0.67093 0.26188,0.85885 0.24152,0.18754 0.58981,0.2815 1.04679,0.2815 0.45658,0 0.8279,-0.0906 1.11355,-0.27206 0.28641,-0.18113 0.45434,-0.41434 0.5034,-0.70037 0.0539,-0.29093 -0.0181,-0.51282 -0.21472,-0.6649 -0.19697,-0.15169 -0.66187,-0.31281 -1.39582,-0.48339 -0.75131,-0.17847 -1.30979,-0.43432 -1.67431,-0.76753 -0.36453,-0.3332 -0.49547,-0.78903 -0.39282,-1.36601 0.10297,-0.61281 0.43998,-1.11243 1.01054,-1.49959 0.57018,-0.38717 1.27847,-0.58037 2.12336,-0.58037 0.84149,0 1.48337,0.1951 1.92638,0.58678 0.44225,0.39132 0.60603,0.92036 0.48943,1.58677 l -0.0143,0.0539 h -1.48223 l 0.02,-0.0804 c 0.0532,-0.31282 -0.0114,-0.55961 -0.19471,-0.7381 -0.1834,-0.17925 -0.50113,-0.26867 -0.95282,-0.26867 -0.44754,0 -0.78829,0.0803 -1.02338,0.2415 -0.23471,0.1615 -0.37471,0.36489 -0.41924,0.61056 -0.0404,0.2464 0.0464,0.44225 0.26151,0.58753 0.2147,0.14565 0.6913,0.30528 1.42902,0.47999 0.75622,0.17434 1.30678,0.43018 1.65093,0.76791 0.34451,0.33848 0.463,0.81772 0.35584,1.43922 -0.1208,0.65773 -0.46226,1.18942 -1.02338,1.5943 -0.5615,0.40454 -1.32753,0.60754 -2.29845,0.60754 -0.9664,0 -1.67054,-0.20527 -2.11392,-0.61469 -0.44264,-0.40906 -0.60113,-0.96753 -0.4766,-1.67393 l 0.007,-0.0472"
       fill="#43b8ea"
       id="path41"
       style="stroke-width:0.0377351" />
    <path
       d="m 325.24951,194.70731 -0.006,0.0539 c -0.0676,0.38452 0.02,0.67093 0.26188,0.85885 0.24113,0.18754 0.58979,0.2815 1.04639,0.2815 0.45698,0 0.82829,-0.0906 1.11395,-0.27206 0.28639,-0.18113 0.45432,-0.41434 0.50338,-0.70037 0.0539,-0.29093 -0.0181,-0.51282 -0.21509,-0.6649 -0.1966,-0.15169 -0.6615,-0.31281 -1.39545,-0.48339 -0.75131,-0.17847 -1.30979,-0.43432 -1.67431,-0.76753 -0.36453,-0.3332 -0.49547,-0.78903 -0.39282,-1.36601 0.10297,-0.61281 0.44,-1.11243 1.01055,-1.49959 0.57017,-0.38717 1.27846,-0.58037 2.12336,-0.58037 0.84149,0 1.48299,0.1951 1.92637,0.58678 0.44225,0.39132 0.60603,0.92036 0.48943,1.58677 l -0.0143,0.0539 h -1.48226 l 0.02,-0.0804 c 0.0532,-0.31282 -0.0114,-0.55961 -0.19471,-0.7381 -0.1834,-0.17925 -0.5015,-0.26867 -0.95282,-0.26867 -0.44753,0 -0.78828,0.0803 -1.02338,0.2415 -0.23471,0.1615 -0.37471,0.36489 -0.41924,0.61056 -0.0404,0.2464 0.0465,0.44225 0.26151,0.58753 0.21472,0.14565 0.69132,0.30528 1.42904,0.47999 0.75621,0.17434 1.30677,0.43018 1.65091,0.76791 0.34452,0.33848 0.46301,0.81772 0.35584,1.43922 -0.1208,0.65773 -0.46225,1.18942 -1.02338,1.5943 -0.5615,0.40454 -1.32752,0.60754 -2.29882,0.60754 -0.96602,0 -1.67017,-0.20527 -2.11355,-0.61469 -0.44301,-0.40906 -0.60112,-0.96753 -0.47659,-1.67393 l 0.007,-0.0472"
       fill="#43b8ea"
       id="path42"
       style="stroke-width:0.0377351" />
    <path
       d="m 330.56715,193.19073 c 0.19246,-1.0732 0.65094,-1.94564 1.37583,-2.61731 0.72451,-0.67056 1.57884,-1.00602 2.56336,-1.00602 0.98412,0 1.69204,0.31432 2.12372,0.94299 0.43169,0.62829 0.55132,1.48187 0.35887,2.55995 l -0.10711,0.5834 h -5.43575 l 0.19509,-1.07999 h 3.94559 l 0.0268,-0.15471 c 0.0849,-0.46943 0.0188,-0.86904 -0.19773,-1.19809 -0.21735,-0.32867 -0.57847,-0.49283 -1.08413,-0.49283 -0.60828,0 -1.10489,0.22943 -1.48978,0.68792 -0.38452,0.45885 -0.63735,1.03922 -0.7581,1.7411 l -0.0536,0.28905 c -0.1208,0.69281 -0.0592,1.26866 0.18452,1.72752 0.2434,0.45848 0.69659,0.68791 1.35885,0.68791 0.4249,0 0.80753,-0.0963 1.14752,-0.28868 0.33962,-0.19206 0.6283,-0.4181 0.86565,-0.67735 l 0.87885,0.73094 c -0.28641,0.36679 -0.69999,0.69395 -1.2411,0.98036 -0.54151,0.28566 -1.15659,0.42942 -1.84564,0.42942 -1.11394,0 -1.91506,-0.33585 -2.40222,-1.00676 -0.48754,-0.67169 -0.63735,-1.54565 -0.4498,-2.62412"
       fill="#43b8ea"
       id="path43"
       style="stroke-width:0.0377351" />
    <path
       d="m 339.17644,195.11673 c 0.21244,0.44716 0.6298,0.67093 1.25167,0.67093 0.41132,0 0.78263,-0.11467 1.11394,-0.34528 0.33094,-0.23057 0.58376,-0.49357 0.7581,-0.78867 l 0.4766,-2.69089 c -0.0762,-0.30829 -0.23849,-0.57697 -0.48641,-0.80488 -0.2483,-0.22831 -0.58074,-0.34227 -0.99658,-0.34227 -0.61283,0 -1.10527,0.22378 -1.47658,0.67094 -0.37132,0.44716 -0.61509,1.00677 -0.73131,1.67769 l -0.0536,0.27472 c -0.11667,0.67093 -0.0683,1.23055 0.14414,1.67771 m -1.29846,2.60372 c 0.15207,0.20604 0.3947,0.39358 0.72828,0.56377 0.33283,0.1698 0.72339,0.2547 1.17093,0.2547 0.56375,0 1.04111,-0.16527 1.43242,-0.49659 0.39169,-0.33055 0.64112,-0.80942 0.74829,-1.43544 l 0.10083,-0.57094 c -0.24604,0.28641 -0.5551,0.51396 -0.92602,0.68113 -0.37132,0.16792 -0.7966,0.25207 -1.27508,0.25207 -0.89923,0 -1.56223,-0.33245 -1.98978,-0.99659 -0.42715,-0.66452 -0.54678,-1.51959 -0.35885,-2.56713 l 0.0404,-0.2147 c 0.18339,-1.04225 0.60489,-1.89545 1.26488,-2.55996 0.65961,-0.66413 1.43922,-0.99658 2.33845,-0.99658 0.47433,0 0.87696,0.0988 1.2079,0.29508 0.33094,0.19697 0.55471,0.43924 0.67132,0.7249 h 0.0404 l 0.20112,-0.88565 h 1.38224 l -1.19469,6.82441 c -0.1834,1.01998 -0.62943,1.80299 -1.33847,2.34901 -0.70943,0.54566 -1.54677,0.81848 -2.51279,0.81848 -0.59545,0 -1.12676,-0.0951 -1.5943,-0.2849 -0.46754,-0.19019 -0.84415,-0.43093 -1.13056,-0.7215"
       fill="#43b8ea"
       id="path44"
       style="stroke-width:0.0377351" />
    <path
       d="m 346.04083,189.76814 h 1.49658 l -0.79206,4.50936 c -0.094,0.53773 -0.0438,0.91922 0.15094,1.14412 0.19472,0.22642 0.50452,0.33963 0.92905,0.33963 0.36716,0 0.70942,-0.10112 1.02714,-0.30264 0.31773,-0.20076 0.57924,-0.46076 0.78527,-0.7781 l 0.86527,-4.91237 h 1.49658 l -1.24149,7.06667 h -1.38224 l 0.10711,-0.86602 h -0.0399 c -0.29547,0.30943 -0.64225,0.5532 -1.03998,0.7313 -0.39849,0.17925 -0.82113,0.26867 -1.26829,0.26867 -0.71168,0 -1.24601,-0.20905 -1.60412,-0.62714 -0.35773,-0.4185 -0.44981,-1.11736 -0.27547,-2.0977"
       fill="#43b8ea"
       id="path45"
       style="stroke-width:0.0377351" />
    <path
       d="m 353.45166,189.76814 h 1.38222 l -0.094,0.85923 h 0.0404 c 0.21471,-0.28187 0.47962,-0.52904 0.79508,-0.7415 0.31547,-0.21282 0.65885,-0.31847 1.03017,-0.31847 0.094,0 0.19132,0.01 0.29207,0.0328 0.10041,0.023 0.16868,0.0434 0.20452,0.0608 l -0.23508,1.34904 c -0.0804,-0.0174 -0.16755,-0.0325 -0.26151,-0.0438 -0.094,-0.0114 -0.19924,-0.017 -0.31547,-0.017 -0.36716,0 -0.70111,0.1004 -1.00299,0.30189 -0.30226,0.20149 -0.54717,0.45168 -0.73509,0.7513 l -0.84527,4.83237 h -1.49657"
       fill="#43b8ea"
       id="path46"
       style="stroke-width:0.0377351" />
    <path
       d="m 358.13157,193.44581 c -0.12522,0.70754 -0.066,1.28376 0.17773,1.73129 0.24377,0.44792 0.67885,0.67093 1.30489,0.67093 0.62187,0 1.13318,-0.22301 1.53354,-0.67093 0.40037,-0.44753 0.66339,-1.02375 0.78867,-1.73129 l 0.0536,-0.28905 c 0.1208,-0.70602 0.0592,-1.28412 -0.18453,-1.7343 -0.24377,-0.44943 -0.67432,-0.67396 -1.29167,-0.67396 -0.62187,0 -1.13545,0.22453 -1.54035,0.67396 -0.40489,0.45018 -0.66716,1.02828 -0.78829,1.7343 z m -1.48299,-0.25508 c 0.19207,-1.07772 0.66112,-1.95167 1.40563,-2.61996 0.74527,-0.66943 1.63393,-1.00337 2.6675,-1.00337 1.03319,0 1.80487,0.33394 2.31506,1.00337 0.50979,0.66829 0.66903,1.54224 0.47621,2.61996 l -0.0401,0.2147 c -0.19244,1.08301 -0.65998,1.95809 -1.40224,2.62751 -0.74299,0.66904 -1.63091,1.00337 -2.6641,1.00337 -1.03356,0 -1.80638,-0.33433 -2.31845,-1.00337 -0.51244,-0.66942 -0.67206,-1.5445 -0.47999,-2.62751"
       fill="#43b8ea"
       id="path47"
       style="stroke-width:0.0377351" />
    <g
       clip-path="url(#clip_2)"
       id="g61"
       transform="matrix(0.37735173,0,0,0.37735173,100.77054,-67.671786)">
      <path
         transform="matrix(0.1,0,0,-0.1,0,850.394)"
         d="m 1821.05,2300.13 c 83.35,0 143.54,46.6 155.08,112.04 l 0.32,1.78 c 12.95,73.5 -33.14,112.03 -115.57,112.03 h -128.16 l -39.82,-225.85 z m -190.66,270.65 c 5.54,31.39 34,55.58 65.36,55.58 h 191.79 c 146.95,0 223.67,-83.36 201.39,-209.73 l -0.3,-1.79 c -24.83,-140.7 -150.7,-214.18 -288.72,-214.18 h -124.55 l -26.71,-151.48 c -5.38,-30.46 -33.85,-54.65 -64.31,-54.65 -31.37,0 -51.3,24.19 -45.93,54.65"
         fill="#134472"
         id="path48" />
      <path
         transform="matrix(0.1,0,0,-0.1,0,850.394)"
         d="m 2163.54,2422.9 c 5.38,30.48 32.94,54.68 63.41,54.68 30.47,0 50.4,-24.2 45.02,-54.68 l -8.53,-48.37 c 35.53,59.14 90.02,103.95 137.53,103.95 34.04,0 49.81,-22.41 44.28,-53.78 -5.06,-28.68 -27.2,-47.51 -52.19,-51.99 -79.43,-13.42 -142.74,-72.57 -162.49,-184.62 l -24.66,-139.79 c -5.21,-29.6 -33.67,-53.79 -64.14,-53.79 -29.56,0 -49.65,23.3 -44.29,53.79"
         fill="#134472"
         id="path49" />
      <path
         transform="matrix(0.1,0,0,-0.1,0,850.394)"
         d="m 2803.07,2232.91 0.32,1.78 c 14.71,83.35 -33.18,152.37 -118.32,152.37 -86.93,0 -154.5,-68.12 -169.03,-150.55 l -0.31,-1.82 c -14.54,-82.43 33.32,-151.45 117.57,-151.45 87.82,0 155.41,68.13 169.77,149.67 m -396.09,0 0.32,1.78 c 23.84,135.34 151.15,247.36 296.33,247.36 145.17,0 232.38,-110.22 208.51,-245.54 l -0.32,-1.82 c -23.69,-134.42 -151,-246.46 -297.05,-246.46 -144.29,0 -231.5,110.27 -207.79,244.68"
         fill="#134472"
         id="path50" />
      <path
         transform="matrix(0.1,0,0,-0.1,0,850.394)"
         d="m 3357.9,2258.89 0.31,1.79 c 13.6,77.11 -40.69,129.96 -115.99,129.96 -75.27,0 -143.58,-51.98 -157.33,-129.96 l -0.32,-1.79 c -13.59,-77.05 37.13,-129.96 111.52,-129.96 75.29,0 148.22,52.91 161.81,129.96 m -394.69,-362.94 c -17.53,7.14 -26.51,22.41 -22.87,43 4.27,24.19 28.52,44.8 53.59,44.8 8.07,0 14.04,-1.77 18.95,-4.48 38.73,-24.2 83.87,-37.61 138.53,-37.61 96.79,0 158.5,50.16 175.27,145.16 l 6.46,36.75 c -48.43,-51.09 -104.03,-86.93 -182.01,-86.93 -111.13,0 -200.54,82.47 -176.04,221.36 l 0.31,1.8 c 24.66,139.81 144.05,222.25 254.28,222.25 79.75,0 122.57,-36.73 151.55,-80.66 l 3.97,22.43 c 5.2,29.57 33.68,53.75 63.23,53.75 30.48,0 50.41,-24.18 45.03,-54.66 l -57.67,-327.11 c -14.07,-79.76 -45.11,-138.94 -91.49,-178.37 -50.6,-43.02 -120.57,-63.63 -205.69,-63.63 -66.31,0 -122.93,14.36 -175.4,42.15"
         fill="#134472"
         id="path51" />
      <path
         transform="matrix(0.1,0,0,-0.1,0,850.394)"
         d="m 3602.8,2422.9 c 5.38,30.48 32.95,54.68 63.41,54.68 30.47,0 50.4,-24.2 45.02,-54.68 l -8.53,-48.37 c 35.53,59.14 90.03,103.95 137.53,103.95 34.07,0 49.82,-22.41 44.29,-53.78 -5.06,-28.68 -27.2,-47.51 -52.2,-51.99 -79.43,-13.42 -142.73,-72.57 -162.48,-184.62 l -24.66,-139.79 c -5.22,-29.6 -33.68,-53.79 -64.14,-53.79 -29.56,0 -49.65,23.3 -44.29,53.79"
         fill="#134472"
         id="path52" />
      <path
         transform="matrix(0.1,0,0,-0.1,0,850.394)"
         d="m 4200.27,2268.75 c 5.14,69.91 -26.43,124.59 -98.11,124.59 -66.32,0 -121.93,-51.08 -144.73,-124.59 z m -157,-280.52 c -137.11,0 -225.31,99.49 -199.56,245.57 l 0.31,1.79 c 23.87,135.35 139.35,246.46 274.68,246.46 150.54,0 203.13,-123.65 183.84,-232.99 -5.37,-30.5 -32.47,-52.01 -60.25,-52.01 h -296.62 c -1.94,-77.06 45.13,-120.07 115.04,-120.07 45.7,0 84.4,16.11 119.28,41.22 9.18,6.28 16.97,9.85 29.52,9.85 24.2,0 39.7,-18.82 35.27,-43.9 -2.36,-13.47 -10.7,-25.11 -20.18,-33.17 -49.81,-38.55 -107.85,-62.75 -181.33,-62.75"
         fill="#134472"
         id="path53" />
      <path
         transform="matrix(0.1,0,0,-0.1,0,850.394)"
         d="m 4306.26,2046.49 c -10.55,6.29 -17.13,19.72 -13.98,37.66 4.27,24.2 26.57,43.9 51.65,43.9 8.97,0 16.55,-2.68 22.2,-6.27 40.32,-30.47 85.14,-45.71 128.16,-45.71 46.6,0 76.96,19.74 82.49,51.08 l 0.31,1.79 c 6.49,36.77 -41.48,49.3 -94.04,66.34 -66.43,19.7 -139.34,48.38 -123.37,138.9 l 0.29,1.79 c 15.82,89.63 99.85,144.32 193.94,144.32 50.19,0 100.53,-14.37 141.96,-38.56 13.82,-8.05 22.04,-22.42 18.73,-41.21 -4.42,-25.12 -27.47,-43.94 -52.56,-43.94 -8.95,0 -14.01,1.8 -20.57,5.38 -35.05,19.72 -72.26,32.28 -105.42,32.28 -42.13,0 -69.79,-19.73 -74.53,-46.61 l -0.31,-1.79 c -6.16,-34.96 42.38,-49.28 94.79,-67.23 65.21,-21.49 137.63,-52.88 122.63,-138.02 l -0.32,-1.78 c -17.54,-99.47 -103.29,-148.79 -201.88,-148.79 -60.05,0 -122.14,18.83 -170.17,56.47"
         fill="#134472"
         id="path54" />
      <path
         transform="matrix(0.1,0,0,-0.1,0,850.394)"
         d="m 4714.92,2046.49 c -10.55,6.29 -17.13,19.72 -13.98,37.66 4.27,24.2 26.57,43.9 51.65,43.9 8.96,0 16.55,-2.68 22.2,-6.27 40.32,-30.47 85.14,-45.71 128.16,-45.71 46.6,0 76.96,19.74 82.49,51.08 l 0.31,1.79 c 6.48,36.77 -41.48,49.3 -94.04,66.34 -66.43,19.7 -139.34,48.38 -123.37,138.9 l 0.29,1.79 c 15.82,89.63 99.85,144.32 193.94,144.32 50.19,0 100.53,-14.37 141.96,-38.56 13.82,-8.05 22.04,-22.42 18.73,-41.21 -4.42,-25.12 -27.47,-43.94 -52.56,-43.94 -8.95,0 -14.01,1.8 -20.57,5.38 -35.05,19.72 -72.26,32.28 -105.42,32.28 -42.13,0 -69.79,-19.73 -74.53,-46.61 l -0.31,-1.79 c -6.16,-34.96 42.38,-49.28 94.79,-67.23 65.21,-21.49 137.63,-52.88 122.63,-138.02 l -0.33,-1.78 c -17.53,-99.47 -103.28,-148.79 -201.87,-148.79 -60.05,0 -122.14,18.83 -170.17,56.47"
         fill="#134472"
         id="path55" />
      <path
         transform="matrix(0.1,0,0,-0.1,0,850.394)"
         d="m 5229.14,2599.45 c 5.7,32.3 36.2,52.89 71.16,52.89 34.95,0 58.2,-20.59 52.52,-52.89 l -0.96,-5.36 c -5.68,-32.29 -36.36,-53.77 -71.32,-53.77 -34.95,0 -58.04,21.48 -52.36,53.77 z m -23.09,-176.55 c 5.38,30.48 32.97,54.69 63.43,54.69 30.47,0 50.41,-24.21 45.04,-54.69 l -66.07,-374.6 c -5.36,-30.49 -33.68,-53.8 -64.15,-53.8 -29.57,0 -49.66,23.31 -44.28,53.8"
         fill="#134472"
         id="path56" />
      <path
         transform="matrix(0.1,0,0,-0.1,0,850.394)"
         d="m 5323.41,2046.49 c -10.55,6.29 -17.12,19.72 -13.98,37.66 4.27,24.2 26.57,43.9 51.65,43.9 8.97,0 16.55,-2.68 22.21,-6.27 40.31,-30.47 85.13,-45.71 128.15,-45.71 46.6,0 76.96,19.74 82.49,51.08 l 0.31,1.79 c 6.49,36.77 -41.48,49.3 -94.04,66.34 -66.43,19.7 -139.34,48.38 -123.37,138.9 l 0.3,1.79 c 15.81,89.63 99.84,144.32 193.93,144.32 50.19,0 100.53,-14.37 141.96,-38.56 13.82,-8.05 22.04,-22.42 18.73,-41.21 -4.42,-25.12 -27.46,-43.94 -52.56,-43.94 -8.95,0 -14.01,1.8 -20.56,5.38 -35.06,19.72 -72.27,32.28 -105.43,32.28 -42.13,0 -69.79,-19.73 -74.53,-46.61 l -0.31,-1.79 c -6.16,-34.96 42.38,-49.28 94.79,-67.23 65.21,-21.49 137.64,-52.88 122.64,-138.02 l -0.33,-1.78 c -17.54,-99.47 -103.29,-148.79 -201.88,-148.79 -60.04,0 -122.14,18.83 -170.17,56.47"
         fill="#134472"
         id="path57" />
      <path
         transform="matrix(0.1,0,0,-0.1,0,850.394)"
         d="m 5793.37,2129.84 43.93,249.14 h -17.93 c -25.98,0 -42.95,20.62 -38.38,46.65 4.6,25.96 28.84,46.58 54.81,46.58 h 17.93 l 14.23,80.67 c 5.21,29.55 33.68,53.75 64.15,53.75 29.58,0 49.5,-24.2 44.28,-53.75 l -14.21,-80.67 h 85.12 c 26,0 43.86,-20.62 39.29,-46.58 -4.58,-26.03 -29.73,-46.65 -55.73,-46.65 h -85.11 l -40.95,-232.12 c -7.41,-42.1 11.08,-59.13 47.82,-59.13 12.57,0 23.77,2.68 27.37,2.68 24.2,0 42.24,-19.71 37.8,-44.83 -3.49,-19.7 -19.76,-35.83 -36.11,-42.11 -24.73,-8.04 -47.91,-12.54 -76.59,-12.54 -79.75,0 -130.05,34.95 -111.72,138.91"
         fill="#134472"
         id="path58" />
      <path
         transform="matrix(0.1,0,0,-0.1,0,850.394)"
         d="m 6414.18,2169.28 5.68,32.27 c -25.86,10.75 -61.19,18.82 -104.2,18.82 -69.9,0 -116.35,-29.57 -125.04,-78.89 l -0.3,-1.77 c -8.08,-45.7 27.68,-71.71 79.66,-71.71 71.68,0 133.62,41.23 144.2,101.28 m -330.39,-34.07 0.3,1.8 c 18.01,102.18 106.62,152.36 222.22,152.36 52.88,0 89.1,-8.05 123.77,-19.71 l 2.07,11.66 c 11.86,67.2 -23.06,103.06 -99.23,103.06 -41.23,0 -76.53,-7.19 -108.16,-18.83 -6.59,-1.8 -12.11,-2.67 -17.49,-2.67 -25.11,0 -42.23,19.69 -37.84,44.81 3.49,19.69 19.93,36.73 37.17,43 47.83,17.04 95.43,27.77 157.27,27.77 70.78,0 120.33,-18.78 147.49,-52.84 28.95,-34.07 36.24,-84.27 25.32,-146.1 l -41.08,-233.01 c -5.22,-29.6 -32.48,-51.99 -62.05,-51.99 -31.35,0 -49.07,21.5 -44.8,45.69 l 3.17,17.95 c -39.07,-38.55 -93.72,-69 -166.32,-69 -88.73,0 -158.58,51.05 -141.81,146.05"
         fill="#134472"
         id="path59" />
      <path
         transform="matrix(0.1,0,0,-0.1,0,850.394)"
         d="m 6559.24,2046.49 c -10.55,6.29 -17.13,19.72 -13.98,37.66 4.27,24.2 26.57,43.9 51.65,43.9 8.97,0 16.55,-2.68 22.2,-6.27 40.32,-30.47 85.14,-45.71 128.16,-45.71 46.6,0 76.96,19.74 82.49,51.08 l 0.31,1.79 c 6.49,36.77 -41.48,49.3 -94.06,66.34 -66.41,19.7 -139.32,48.38 -123.35,138.9 l 0.29,1.79 c 15.82,89.63 99.85,144.32 193.94,144.32 50.19,0 100.53,-14.37 141.96,-38.56 13.82,-8.05 22.04,-22.42 18.73,-41.21 -4.42,-25.12 -27.47,-43.94 -52.56,-43.94 -8.95,0 -14.01,1.8 -20.56,5.38 -35.06,19.72 -72.27,32.28 -105.43,32.28 -42.13,0 -69.79,-19.73 -74.53,-46.61 l -0.31,-1.79 c -6.16,-34.96 42.38,-49.28 94.79,-67.23 65.21,-21.49 137.63,-52.88 122.63,-138.02 l -0.32,-1.78 c -17.54,-99.47 -103.29,-148.79 -201.88,-148.79 -60.05,0 -122.14,18.83 -170.17,56.47"
         fill="#134472"
         id="path60" />
      <path
         transform="matrix(0.1,0,0,-0.1,0,850.394)"
         d="m 3942.09,4630.45 c 0,0 -17.84,-100.5 155.69,-100.47 0,0 387.4,42.86 403.78,-154.31 L 4371.38,3234.51 c 0,0 -60.74,-393.48 -517.32,-447.57 0,0 -260.92,-45.99 -194.27,215.65"
         fill="#183c6c"
         id="path61" />
    </g>
    <g
       clip-path="url(#clip_3)"
       id="g65"
       transform="matrix(0.37735173,0,0,0.37735173,100.77054,-67.671786)">
      <g
         opacity="0.899994"
         id="g64">
        <g
           clip-path="url(#clip_4)"
           id="g63">
          <g
             clip-path="url(#clip_5)"
             id="g62">
            <path
               transform="matrix(0.1,0,0,-0.1,0,850.394)"
               d="m 3940.09,4627.02 c 0,0 13.41,150.46 139.41,151.11 l 686.49,4.29 c 0,0 586.73,-36.94 586.73,-652.54 0,0 12.54,-416.34 -474.02,-732.65 0,0 -194.49,-137.76 -517.65,-111.58 -323.17,26.18 -454.77,-63.38 -711.59,-325.54"
               fill="#43b8ea"
               id="path62" />
          </g>
        </g>
      </g>
    </g>
    <g
       clip-path="url(#clip_7)"
       id="g68"
       transform="matrix(0.37735173,0,0,0.37735173,100.77054,-67.671786)">
      <path
         transform="matrix(0.1,0,0,-0.1,0,850.394)"
         d="m 3841.19,3138.07 c 0,0 229.89,155.13 526.2,79.02 l 9.1,67.43 c 0,0 -125.48,13.82 -241.92,-5.07 -116.43,-18.88 -217.55,-75.27 -293.38,-141.38"
         fill="#0f2444"
         id="path66" />
      <path
         transform="matrix(0.1,0,0,-0.1,0,850.394)"
         d="m 4713.38,4090.99 c -23.44,-13.35 -36.72,-20.22 -49.28,-24.15 -12.55,-3.93 -44.64,-8.59 -59.47,-5.3 -28.14,6.68 -49.01,38.18 -44,70.42 5.86,33.97 39.42,60.24 69.13,74.04 76.53,32.13 104.71,46.38 172.66,81.59 33.97,16.97 59.74,29.09 74.98,29.09 11.71,0 19.92,-8.48 21.09,-20.62 l -100.77,-589.72 c -7.02,-43.66 -46.84,-78.86 -89.03,-78.86 -41.01,0 -67.96,35.2 -60.94,78.86"
         fill="#ffffff"
         id="path67" />
      <path
         transform="matrix(0.1,0,0,-0.1,0,850.394)"
         d="m 4353.26,4090.99 c -23.43,-13.35 -36.72,-20.22 -49.28,-24.15 -12.55,-3.93 -44.64,-8.59 -59.45,-5.3 -28.16,6.68 -49.02,38.18 -44.02,70.42 5.86,33.97 39.42,60.24 69.15,74.04 76.52,32.13 104.69,46.38 172.64,81.59 33.97,16.97 59.75,29.09 74.98,29.09 11.72,0 19.93,-8.48 21.09,-20.62 L 4437.6,3706.34 c -7.02,-43.66 -46.84,-78.86 -89.03,-78.86 -41.01,0 -67.96,35.2 -60.92,78.86"
         fill="#ffffff"
         id="path68" />
    </g>
  </g>
</svg>
