<?xml version="1.0" encoding="UTF-8" standalone="no"?>
<svg
   width="800"
   height="232.64618"
   viewBox="0 0 800 232.64618"
   fill="none"
   version="1.1"
   id="svg54"
   sodipodi:docname="Logo_of_the_Democratic_Renewal_Party_(Brazil).svg"
   inkscape:version="1.4.2 (f4327f4, 2025-05-13)"
   xmlns:inkscape="http://www.inkscape.org/namespaces/inkscape"
   xmlns:sodipodi="http://sodipodi.sourceforge.net/DTD/sodipodi-0.dtd"
   xmlns:xlink="http://www.w3.org/1999/xlink"
   xmlns="http://www.w3.org/2000/svg"
   xmlns:svg="http://www.w3.org/2000/svg">
  <sodipodi:namedview
     id="namedview54"
     pagecolor="#ffffff"
     bordercolor="#000000"
     borderopacity="0.25"
     inkscape:showpageshadow="2"
     inkscape:pageopacity="0.0"
     inkscape:pagecheckerboard="0"
     inkscape:deskcolor="#d1d1d1"
     inkscape:zoom="0.50454546"
     inkscape:cx="489.54955"
     inkscape:cy="236.84685"
     inkscape:window-width="1920"
     inkscape:window-height="1009"
     inkscape:window-x="-8"
     inkscape:window-y="-8"
     inkscape:window-maximized="1"
     inkscape:current-layer="svg54" />
  <path
     d="m 28.950509,204.66254 c 0,6.97273 -5.317818,11.49091 -13.610691,11.49091 H 9.8360726 l -1.4131636,7.196 H 0.63210181 L 6.1358908,195.81163 H 17.775636 c 7.158618,0 11.174873,3.27273 11.174873,8.85091 z m -7.865164,0.66946 c 0,-2.32437 -1.617672,-3.38437 -4.332363,-3.38437 h -4.090655 l -1.617673,8.06982 h 4.648473 c 3.421273,0 5.392218,-1.65491 5.392218,-4.68545 z"
     fill="#1b3f7b"
     id="path1"
     style="stroke-width:1" />
  <path
     d="M 47.69309,218.01273 H 35.960363 L 32.7808,223.368 h -8.218473 l 17.664218,-27.53746 h 7.679273 l 6.656363,27.53746 h -7.753454 l -1.097091,-5.35527 z m -1.171272,-5.74546 -1.841091,-8.92509 -5.280364,8.92509 z"
     fill="#1b3f7b"
     id="path2"
     style="stroke-width:1" />
  <path
     d="m 79.544363,215.09345 4.685454,8.256 h -8.144 l -4.090545,-7.32618 h -3.941818 l -1.450546,7.32618 h -7.790909 l 5.504,-27.53782 h 11.769818 c 7.046909,0 11.100364,3.27273 11.100364,8.77637 0,5.07636 -2.826182,8.85091 -7.641818,10.50545 z m -4.574182,-13.14582 h -4.090545 l -1.654909,8.06982 h 4.648363 c 3.421455,0 5.429455,-1.65491 5.429455,-4.68545 0,-2.32437 -1.654909,-3.38437 -4.332364,-3.38437 z"
     fill="#1b3f7b"
     id="path3"
     style="stroke-width:1" />
  <path
     d="m 97.636363,201.98509 h -8.460364 l 1.264364,-6.17346 h 24.674177 l -1.26436,6.17346 h -8.42291 l -4.29527,21.36436 h -7.79091 z"
     fill="#1b3f7b"
     id="path4"
     style="stroke-width:1" />
  <path
     d="m 118.03382,195.81163 h 7.79091 l -5.50364,27.53782 h -7.79091 z"
     fill="#1b3f7b"
     id="path5"
     style="stroke-width:1" />
  <path
     d="m 131.36582,195.81163 h 11.95563 c 8.572,0 13.81528,4.444 13.81528,11.56546 0,9.76182 -7.084,15.97236 -17.19928,15.97236 h -14.09418 l 5.504,-27.53782 z m 8.832,21.32728 c 5.82,0 9.09236,-4.01637 9.09236,-9.29673 0,-3.66327 -2.324,-5.82 -6.80545,-5.82 h -4.57382 l -2.99382,15.11673 z"
     fill="#1b3f7b"
     id="path6"
     style="stroke-width:1" />
  <path
     d="m 159.55382,211.784 c 0,-9.55746 7.08436,-16.53018 17.19927,-16.53018 8.46036,0 13.68509,5.00181 13.68509,12.12327 0,9.55745 -7.08436,16.53018 -17.19927,16.53018 -8.46037,0 -13.70364,-5.00182 -13.70364,-12.12327 z m 23.01927,-3.92327 c 0,-3.66291 -2.36146,-6.136 -6.48946,-6.136 -5.392,0 -8.66472,4.40654 -8.66472,9.59418 0,3.66327 2.36145,6.136 6.48945,6.136 5.392,0 8.66473,-4.40655 8.66473,-9.59418 z"
     fill="#1b3f7b"
     id="path7"
     style="stroke-width:1" />
  <path
     d="m 223.87018,215.09345 4.68545,8.256 h -8.144 l -4.09054,-7.32618 h -3.94218 l -1.45018,7.32618 h -7.79091 l 5.504,-27.53782 h 11.76981 c 7.04691,0 11.10037,3.27273 11.10037,8.77637 0,5.07636 -2.82618,8.85091 -7.64182,10.50545 z M 219.296,201.94763 h -4.09055 l -1.65491,8.06982 h 4.64837 c 3.42109,0 5.42945,-1.65491 5.42945,-4.68545 0,-2.32437 -1.65491,-3.38437 -4.33236,-3.38437 z"
     fill="#1b3f7b"
     id="path8"
     style="stroke-width:1" />
  <path
     d="m 244.212,201.83636 -0.91091,4.64837 h 12.23454 l -1.13418,5.82 h -12.272 l -0.98545,5.0389 h 14.44763 l -1.26436,6.02437 H 232.25636 L 237.76,195.83054 h 21.56909 l -1.22727,6.02437 H 244.212 Z"
     fill="#1b3f7b"
     id="path9"
     style="stroke-width:1" />
  <path
     d="m 290.37963,195.81163 -5.50363,27.53782 h -6.41491 l -9.09237,-15.11709 -3.0309,15.11709 H 258.696 l 5.50363,-27.53782 h 6.41491 l 9.12946,15.07964 2.99382,-15.07964 z"
     fill="#1b3f7b"
     id="path10"
     style="stroke-width:1" />
  <path
     d="m 291.60727,211.784 c 0,-9.55746 7.08436,-16.53018 17.19927,-16.53018 8.46037,0 13.68509,5.00181 13.68509,12.12327 0,9.55745 -7.08436,16.53018 -17.19927,16.53018 -8.46036,0 -13.70364,-5.00182 -13.70364,-12.12327 z m 23.01927,-3.92327 c 0,-3.66291 -2.36145,-6.136 -6.48945,-6.136 -5.392,0 -8.66473,4.40654 -8.66473,9.59418 0,3.66327 2.36146,6.136 6.48946,6.136 5.392,0 8.66472,-4.40655 8.66472,-9.59418 z"
     fill="#1b3f7b"
     id="path11"
     style="stroke-width:1" />
  <path
     d="m 356.18363,195.81163 -17.27382,27.53782 h -7.67927 l -6.26618,-27.53782 H 332.96 l 3.94181,17.90619 11.2491,-17.90619 z"
     fill="#1b3f7b"
     id="path12"
     style="stroke-width:1" />
  <path
     d="m 371.22545,218.01273 h -11.73236 l -3.17928,5.35527 h -8.21854 L 365.76,195.83054 h 7.68 l 6.65454,27.53746 h -7.75273 l -1.09818,-5.35527 z m -1.18909,-5.74546 -1.84,-8.92509 -5.28182,8.92509 z"
     fill="#1b3f7b"
     id="path13"
     style="stroke-width:1" />
  <path
     d="m 404.43636,214.27563 4.61091,4.51819 c -3.10546,3.73745 -7.16,5.11309 -12.08727,5.11309 h -0.24 l -0.63273,1.45054 c 1.84,0.27891 2.74909,1.41309 2.74909,2.71455 0,2.82618 -2.71273,4.57418 -6.73091,4.57418 -1.48727,0 -2.95636,-0.35346 -3.90182,-0.83673 l 1.57818,-2.95636 c 0.63273,0.316 1.58182,0.55782 2.56728,0.55782 1.37454,0 2.00727,-0.55782 2.00727,-1.22728 0,-0.52072 -0.46545,-0.87381 -1.54182,-0.87381 h -1.54545 l 1.69454,-3.81164 c -6.13818,-1.30182 -9.87636,-5.74582 -9.87636,-11.73273 0,-9.55745 7.04727,-16.53018 17.27636,-16.53018 5.07637,0 9.20364,1.85964 11.17455,5.18764 l -5.63273,4.48109 c -1.30182,-2.08218 -3.31273,-3.23527 -6.06182,-3.23527 -5.35636,0 -8.89091,4.128 -8.89091,9.55745 0,3.7 2.51273,6.17309 6.73091,6.17309 2.47637,0 4.76,-0.94836 6.73091,-3.17964 z"
     fill="#1b3f7b"
     id="path14"
     style="stroke-width:1" />
  <path
     d="m 430.33454,218.01273 h -11.73091 l -3.18182,5.35527 h -8.21818 l 17.66546,-27.53746 h 7.68 l 6.65454,27.53746 h -7.75273 l -1.09818,-5.35527 z m -5.46545,-24.5251 h -3.66182 c 0.66909,-4.09054 2.74909,-6.26618 5.74545,-6.26618 2.82546,0 4.05091,2.39855 5.63273,2.39855 1.02182,0 1.76727,-0.78073 2.00727,-1.97091 h 3.66546 c -0.67273,3.97891 -2.71637,6.17309 -5.70909,6.17309 -2.99273,0 -4.05455,-2.43564 -5.63637,-2.43564 -1.05818,0 -1.76363,0.83673 -2.04363,2.08255 z m 4.29454,18.77964 -1.84,-8.92509 -5.28,8.92509 z"
     fill="#1b3f7b"
     id="path15"
     style="stroke-width:1" />
  <path
     d="m 442.23636,211.784 c 0,-9.55746 7.08364,-16.53018 17.2,-16.53018 8.45818,0 13.68364,5.00181 13.68364,12.12327 0,9.55745 -7.08364,16.53018 -17.2,16.53018 -8.45819,0 -13.70182,-5.00182 -13.70182,-12.12327 z m 23.01818,-3.92327 c 0,-3.66291 -2.36,-6.136 -6.48727,-6.136 -5.39273,0 -8.66546,4.40654 -8.66546,9.59418 0,3.66327 2.36,6.136 6.48728,6.136 5.39272,0 8.66545,-4.40655 8.66545,-9.59418 z"
     fill="#1b3f7b"
     id="path16"
     style="stroke-width:1" />
  <path
     d="m 491.30545,195.81163 h 11.95636 c 8.57091,0 13.81455,4.444 13.81455,11.56546 0,9.76182 -7.08364,15.97236 -17.2,15.97236 h -14.09455 l 5.50546,-27.53782 z m 8.81454,21.32728 c 5.81819,0 9.09091,-4.01637 9.09091,-9.29673 0,-3.66327 -2.32363,-5.82 -6.80363,-5.82 h -4.57455 L 494.84,217.13891 Z"
     fill="#1b3f7b"
     id="path17"
     style="stroke-width:1" />
  <path
     d="m 530.27636,201.83636 -0.90909,4.64837 h 12.23272 l -1.1309,5.82 h -12.27273 l -0.98546,5.0389 h 14.44728 l -1.26546,6.02437 h -22.06909 l 5.50182,-27.53746 h 21.57091 l -1.22909,6.02437 h -13.89091 z"
     fill="#1b3f7b"
     id="path18"
     style="stroke-width:1" />
  <path
     d="m 582.22909,195.81163 -5.4291,27.53782 h -7.19636 l 2.82546,-14.52182 -9.16728,11.80691 h -3.42182 l -5,-11.80691 -2.92,14.52182 h -7.15636 l 5.50182,-27.53782 h 6.34182 l 6.45091,15.93491 12.51272,-15.93491 z"
     fill="#1b3f7b"
     id="path19"
     style="stroke-width:1" />
  <path
     d="m 583.49454,211.784 c 0,-9.55746 7.08364,-16.53018 17.19636,-16.53018 8.46182,0 13.68728,5.00181 13.68728,12.12327 0,9.55745 -7.08364,16.53018 -17.2,16.53018 -8.45819,0 -13.70182,-5.00182 -13.70182,-12.12327 z m 23.01818,-3.92327 c 0,-3.66291 -2.36,-6.136 -6.49091,-6.136 -5.38909,0 -8.66182,4.40654 -8.66182,9.59418 0,3.66327 2.36,6.136 6.48728,6.136 5.39272,0 8.66545,-4.40655 8.66545,-9.59418 z"
     fill="#1b3f7b"
     id="path20"
     style="stroke-width:1" />
  <path
     d="m 616.79636,211.784 c 0,-9.55746 7.04727,-16.53018 17.27272,-16.53018 5.07637,0 9.20364,1.85963 11.17455,5.188 l -5.63273,4.48109 c -1.30182,-2.08255 -3.30909,-3.23528 -6.06182,-3.23528 -5.35636,0 -8.88727,4.12764 -8.88727,9.5571 0,3.7 2.50909,6.17309 6.73091,6.17309 2.47273,0 4.76,-0.94837 6.73091,-3.17964 l 4.61091,4.51855 c -3.10546,3.73709 -7.16,5.11309 -12.08727,5.11309 -8.45819,0 -13.85091,-4.92728 -13.85091,-12.12291 z"
     fill="#1b3f7b"
     id="path21"
     style="stroke-width:1" />
  <path
     d="m 665.39999,215.09345 4.68364,8.256 h -8.14182 l -4.09091,-7.32618 h -3.94182 l -1.4509,7.32618 h -7.79273 l 5.50545,-27.53782 h 11.77091 c 7.04727,0 11.09818,3.27273 11.09818,8.77637 0,5.07636 -2.82545,8.85091 -7.64,10.50545 z m -4.57454,-13.14582 h -4.09091 l -1.65455,8.06982 h 4.64728 c 3.42181,0 5.42909,-1.65491 5.42909,-4.68545 0,-2.32437 -1.65455,-3.38437 -4.33091,-3.38437 z"
     fill="#1b3f7b"
     id="path22"
     style="stroke-width:1" />
  <path
     d="m 693.60727,218.01273 h -11.73455 l -3.17818,5.35527 h -8.21818 l 17.66181,-27.53746 h 7.68 l 6.65819,27.53746 h -7.75637 l -1.09454,-5.35527 z m -1.17455,-5.74546 -1.84,-8.92509 -5.28,8.92509 z m 1.56364,-18.70545 h -5.54182 l 5.89454,-5.98691 h 7.71637 z"
     fill="#1b3f7b"
     id="path23"
     style="stroke-width:1" />
  <path
     d="m 713.44727,201.98509 h -8.46182 l 1.26545,-6.17346 h 24.67273 l -1.26546,6.17346 h -8.42181 l -4.29455,21.36436 h -7.79273 z"
     fill="#1b3f7b"
     id="path24"
     style="stroke-width:1" />
  <path
     d="m 733.84363,195.81163 h 7.78909 l -5.50182,27.53782 h -7.79273 z"
     fill="#1b3f7b"
     id="path25"
     style="stroke-width:1" />
  <path
     d="m 742.86181,211.784 c 0,-9.55746 7.04727,-16.53018 17.27273,-16.53018 5.07636,0 9.20363,1.85963 11.17454,5.188 l -5.63272,4.48109 c -1.30182,-2.08255 -3.30909,-3.23528 -6.06182,-3.23528 -5.35637,0 -8.88727,4.12764 -8.88727,9.5571 0,3.7 2.50909,6.17309 6.7309,6.17309 2.47273,0 4.76,-0.94837 6.73091,-3.17964 l 4.61091,4.51855 c -3.10545,3.73709 -7.16,5.11309 -12.08727,5.11309 -8.45818,0 -13.85091,-4.92728 -13.85091,-12.12291 z"
     fill="#1b3f7b"
     id="path26"
     style="stroke-width:1" />
  <path
     d="m 790.07272,218.01273 h -11.73455 l -3.17818,5.35527 h -8.21818 l 17.66182,-27.53746 h 7.68 l 6.65818,27.53746 h -7.75636 l -1.09455,-5.35527 z m -1.17091,-5.74546 -1.84364,-8.92509 -5.28,8.92509 z"
     fill="#1b3f7b"
     id="path27"
     style="stroke-width:1" />
  <path
     d="M 632.58181,173.22036 H 471.22545 l 84.69454,-72.55345 c 18.70546,-16.176365 28.57819,-27.797456 29.61819,-34.844729 0.65091,-4.481091 -0.0909,-8.088363 -2.21091,-10.840363 -2.13818,-2.751637 -5.32,-4.127637 -9.53818,-4.127637 -4.22182,0 -8.14546,1.598909 -11.23273,4.778546 -3.08727,3.179636 -5,7.363272 -5.76364,12.513818 l -0.63273,4.388 H 496.5309 C 499.87636,49.645454 509.19272,31.832654 524.47636,19.095891 539.75999,6.3590908 559.19272,0 582.76727,0 c 21.85091,0 38.71272,5.6339272 50.57818,16.901818 11.86182,11.267854 16.45454,26.124363 13.75636,44.532363 -2.15636,14.800727 -8.47636,27.370182 -18.92727,37.689454 -7.25091,7.233095 -16.56727,13.257455 -27.94546,18.073455 -7.69818,3.27236 -12.51272,4.90873 -14.39272,4.90873 h 54.22182 z"
     fill="url(#paint0_radial_117_437)"
     id="path28"
     style="fill:url(#paint0_radial_117_437);stroke-width:1" />
  <path
     d="m 793.91999,116.416 c -2.69454,18.42654 -12.4,33.04145 -29.13454,43.88145 -16.73455,10.84037 -37.91273,16.26982 -63.55637,16.26982 -15.32,0 -30.15636,-2.064 -44.5309,-6.192 -4.79637,-1.37564 -10.57819,-3.53273 -17.38546,-6.452 l 14.65091,-49.05054 c 5.70909,3.384 10.50545,5.83854 14.41091,7.36327 11.84364,4.90873 23.54182,7.36327 35.06909,7.36327 18.07273,0 27.76,-4.48145 29.06182,-13.42509 0.72363,-4.98291 -1.71273,-8.94364 -7.30909,-11.88145 -5.59637,-2.91891 -13.48,-4.388004 -23.63273,-4.388004 -9.12727,0 -19.48364,1.413094 -31.08727,4.257814 -3.92364,0.89273 -8.96364,2.39891 -15.11637,4.51855 L 685.87272,4.1278545 h 114.10909 l -6.93455,47.5074175 h -72.03272 l -4.92727,17.812727 c 3.60727,-1.097091 6.46909,-1.822181 8.58909,-2.194181 7.29091,-1.636 13.35272,-2.454182 18.16727,-2.454182 17.38545,0 30.81091,4.741454 40.27273,14.205454 9.46545,9.464364 13.05454,21.94073 10.78545,37.42945 z"
     fill="url(#paint1_radial_117_437)"
     id="path29"
     style="fill:url(#paint1_radial_117_437);stroke-width:1" />
  <path
     d="m 162.67745,65.171272 c -2.62145,17.199273 -9.68727,31.052 -21.21563,41.557458 -11.528,10.48691 -25.41782,15.73018 -41.66873,15.73018 H 68.220727 l -7.716364,50.724 H 0 L 25.640909,4.536909 h 82.147451 c 18.70546,0 33.20873,5.671091 43.50982,17.031964 10.28218,11.360836 14.09418,25.901308 11.39782,43.602399 z M 105.01818,63.34909 c 0.57636,-3.811636 -0.31636,-7.009818 -2.65891,-9.612727 -2.34291,-2.603273 -5.503998,-3.904727 -9.445816,-3.904727 h -13.648 L 74.728727,79.69309 h 11.063272 c 5.150546,0 9.445818,-1.468727 12.904,-4.406545 3.440001,-2.937818 5.559641,-6.935637 6.322181,-11.956 z"
     fill="url(#paint2_radial_117_437)"
     id="path30"
     style="fill:url(#paint2_radial_117_437);stroke-width:1" />
  <path
     d="M 486.22909,91.184363 C 482.47272,115.95127 471.8,135.79091 454.24727,150.75891 c -17.55273,14.968 -38.93455,22.44291 -64.18546,22.44291 H 312.04182 L 337.68291,4.5554909 h 63.088 c 31.75999,0 55.09454,7.9024001 70.04363,23.7257451 14.35636,15.135491 19.48727,36.109309 15.41455,62.921672 z m -60.28,-1.432 c 1.56,-10.300727 -0.16728,-18.314909 -5.22546,-24.078909 -5.04,-5.745455 -12.81091,-8.627636 -23.28,-8.627636 h -6.95272 l -9.98546,65.654912 h 5.66909 c 10.98909,0 19.97091,-2.88182 26.92364,-8.62764 6.97454,-5.74545 11.25091,-13.85236 12.85091,-24.339273 z"
     fill="url(#paint3_radial_117_437)"
     id="path31"
     style="fill:url(#paint3_radial_117_437);stroke-width:1" />
  <mask
     id="mask0_117_437"
     maskUnits="userSpaceOnUse"
     x="85"
     y="1"
     width="50"
     height="47">
    <path
       d="m 133.713,25.0757 c -1.033,6.8109 -3.968,12.2668 -8.795,16.383 -4.827,4.1162 -10.707,6.1718 -17.651,6.1718 H 85.8115 L 92.8628,1.25276 h 17.3492 c 8.734,0 15.151,2.17316 19.262,6.52458 3.948,4.16226 5.359,9.93006 4.239,17.30346 z m -16.577,-0.3938 c 0.429,-2.8327 -0.046,-5.0366 -1.437,-6.6217 -1.386,-1.58 -3.523,-2.3726 -6.402,-2.3726 h -1.912 l -2.746,18.0551 h 1.559 c 3.022,0 5.492,-0.7925 7.404,-2.3726 1.918,-1.58 3.094,-3.8094 3.534,-6.6933 z"
       fill="#ffffff"
       id="path32" />
  </mask>
  <g
     mask="url(#mask0_117_437)"
     id="g33"
     transform="scale(3.6363636)"
     style="stroke-width:0.275">
    <path
       d="M 113.265,7.83871 137.778,26.3284 107.64,44.8181 83.1271,26.3284 Z"
       fill="#006130"
       id="path33"
       style="stroke-width:0.275" />
  </g>
  <path
     d="m 307.82109,173.18291 h -69.33637 l -18.79854,-55.35382 -8.42291,55.35382 H 150.49854 L 176.13927,4.536909 h 79.56327 c 18.70546,0 33.33855,5.4108 43.88146,16.251018 10.54254,10.8216 14.54036,24.581163 12.01163,41.259709 -3.53272,23.20509 -15.95345,38.247634 -37.24363,45.127274 z M 252.20691,64.78109 c 1.50618,-9.948 -3.21673,-14.930909 -14.20582,-14.930909 h -7.97673 l -4.53673,29.861455 h 7.97673 c 5.15018,0 9.37127,-1.28291 12.68073,-3.867273 3.30982,-2.566182 5.33673,-6.266182 6.06182,-11.063273 z"
     fill="url(#paint4_radial_117_437)"
     id="path34"
     style="fill:url(#paint4_radial_117_437);stroke-width:1" />
  <mask
     id="mask1_117_437"
     maskUnits="userSpaceOnUse"
     x="0"
     y="1"
     width="135"
     height="47">
    <path
       d="M 41.6019,5.93144 C 38.7742,2.8072 34.7858,1.24765 29.6367,1.24765 H 7.05125 L 0,47.6253 h 16.6387 l 2.122,-13.9491 h 8.6824 c 4.469,0 8.2887,-1.4419 11.4589,-4.3258 3.1703,-2.8839 5.1134,-6.6933 5.8343,-11.4283 C 45.4778,13.0492 44.4346,9.05055 41.6019,5.93144 Z M 28.88,17.421 c -0.2097,1.3806 -0.7926,2.4749 -1.7386,3.2879 -0.951,0.8079 -2.1322,1.2118 -3.5486,1.2118 h -3.0424 l 1.2476,-8.2119 h 3.7532 c 1.084,0 1.9533,0.3579 2.5976,1.0738 0.6442,0.7158 0.8897,1.5953 0.7312,2.6436 z M 129.479,7.77223 C 125.373,3.4208 118.951,1.24765 110.217,1.24765 H 92.8679 L 85.8166,47.6253 h 21.4554 c 6.939,0 12.819,-2.0555 17.651,-6.1717 4.827,-4.1111 7.757,-9.5721 8.795,-16.3831 1.12,-7.3733 -0.291,-13.1412 -4.239,-17.30339 z M 117.136,24.6819 c -0.44,2.8788 -1.616,5.1082 -3.534,6.6934 -1.917,1.58 -4.387,2.3725 -7.404,2.3725 h -1.559 l 2.746,-18.0551 h 1.912 c 2.879,0 5.011,0.7926 6.402,2.3726 1.386,1.58 1.866,3.789 1.437,6.6217 z M 85.6837,17.0631 C 86.3791,12.4765 85.2797,8.69262 82.3805,5.71668 79.4812,2.74073 75.4571,1.24765 70.3131,1.24765 H 48.4332 L 41.382,47.6253 h 16.7103 l 2.3163,-15.2223 5.1696,15.2223 h 19.0675 l -9.204,-18.1522 c 5.8548,-1.8919 9.2705,-6.0286 10.242,-12.41 z m -16.3268,0.7517 c -0.1994,1.3243 -0.7568,2.3367 -1.6669,3.0424 -0.9102,0.7107 -2.076,1.0635 -3.4873,1.0635 h -2.1936 l 1.2476,-8.2119 h 2.1936 c 3.022,0 4.3259,1.3703 3.9066,4.106 z"
       fill="#ffffff"
       id="path35" />
  </mask>
  <g
     mask="url(#mask1_117_437)"
     id="g35"
     transform="scale(3.6363636)"
     style="stroke-width:0.275">
    <rect
       x="-4.1213398"
       y="-0.82835603"
       width="140.146"
       height="52.2785"
       fill="url(#pattern0_117_437)"
       id="rect35"
       style="stroke-width:0.275" />
  </g>
  <path
     d="M 411.87272,21.624618 501.0109,88.859999 391.41818,156.07673 302.28036,88.859999 Z"
     fill="url(#paint5_linear_117_437)"
     id="path36"
     style="fill:url(#paint5_linear_117_437);stroke-width:1" />
  <path
     d="m 443.72363,88.859999 c -3.53454,23.242181 -25.23273,42.077821 -48.47272,42.077821 -23.24364,0 -39.216,-18.83564 -35.68291,-42.077821 3.53272,-23.242181 25.232,-42.077818 48.47563,-42.077818 23.24,0 39.21455,18.835637 35.68,42.077818 z"
     fill="url(#paint6_linear_117_437)"
     id="path37"
     style="fill:url(#paint6_linear_117_437);stroke-width:1" />
  <path
     d="m 372.06181,66.379999 c 0.50182,0.03709 0.93091,-0.334545 1.00364,-0.818181 0.28,0.297454 0.72727,0.334909 1.04364,0.09309 0.35272,-0.260363 0.42545,-0.762545 0.16727,-1.09709 -0.26182,-0.353455 -0.76364,-0.427637 -1.09818,-0.167273 -0.14909,0.111636 -0.24,0.278909 -0.29818,0.446182 -0.16728,-0.204364 -0.40728,-0.353455 -0.68728,-0.372 -0.52,-0.03709 -0.98545,0.372 -1.02181,0.892727 -0.0364,0.520364 0.3709,0.985454 0.8909,1.022545 z m 13.61091,-7.995272 c 0.20364,-0.204728 0.20364,-0.520728 0,-0.706546 -0.20363,-0.204727 -0.52,-0.204727 -0.70545,0 -0.20364,0.204364 -0.20364,0.520364 0,0.706546 0.20364,0.204363 0.52,0.204363 0.70545,0 z m 0.11273,12.420727 c 0.28,-0.241818 0.29818,-0.650909 0.0727,-0.911273 -0.24,-0.278909 -0.65091,-0.297454 -0.90909,-0.07418 -0.16728,0.148728 -0.22546,0.353091 -0.20364,0.557818 -0.42909,-0.688 -1.22909,-1.115636 -2.08364,-1.004363 -1.00363,0.111636 -1.74909,0.892727 -1.88,1.841091 -0.10909,0.241454 -0.16727,0.520363 -0.18545,0.799272 -0.0546,1.283273 0.93091,2.38 2.23273,2.454546 1.28363,0.05564 2.37818,-0.929818 2.45454,-2.231273 0.0182,-0.409091 -0.0764,-0.781091 -0.24363,-1.134182 -0.0182,-0.111636 -0.0546,-0.223272 -0.0909,-0.334909 0.24,0.223273 0.61454,0.241818 0.87272,0.03745 z m -8.36727,7.195636 c 0.42545,0.632364 1.30182,0.799636 1.93454,0.353455 0.35273,-0.241819 0.55637,-0.632364 0.59273,-1.041455 0.31636,-0.03709 0.63273,-0.148727 0.93091,-0.334545 0.91273,-0.632364 1.13455,-1.896728 0.48364,-2.789091 -0.41091,-0.576364 -1.06182,-0.873818 -1.73091,-0.855273 0.28,-0.316 0.42909,-0.706545 0.42909,-1.152727 0,-0.241818 -0.0546,-0.446546 -0.14909,-0.650909 0.55636,-0.353455 0.96727,-0.948364 1.08,-1.654909 0.14909,-0.929819 -0.26182,-1.803637 -0.96728,-2.305455 0,-0.03745 0.0182,-0.09309 0.0364,-0.130182 0,0 0.0364,0 0.0364,-0.01891 0.41091,-0.297454 0.52,-0.873818 0.22546,-1.282909 -0.14909,-0.204363 -0.33455,-0.316 -0.56,-0.371636 -0.18546,-0.297455 -0.44728,-0.557818 -0.78182,-0.762546 -1.07637,-0.632 -2.47273,-0.260363 -3.08364,0.836728 -0.16727,0.297454 -0.26182,0.632363 -0.29818,0.948363 -0.41091,-0.09309 -0.83636,-0.05564 -1.24727,0.130182 -0.74182,0.372 -1.09818,1.171273 -0.96728,1.952364 -0.72363,0.278909 -1.13454,1.059636 -0.94545,1.822181 0.22182,0.818182 1.05818,1.32 1.89455,1.097091 0.1309,-0.03745 0.24363,-0.09309 0.35272,-0.148727 -0.0364,0.07418 -0.0727,0.148727 -0.0909,0.241455 -0.0945,0.502181 0.24,0.985454 0.74182,1.078545 0.50182,0.09309 0.98546,-0.241818 1.08,-0.743636 0.0909,-0.502182 -0.24363,-0.985455 -0.74545,-1.078546 -0.16728,-0.03709 -0.33455,0 -0.48364,0.03709 0.18546,-0.26 0.28,-0.557818 0.28,-0.873818 0.16727,-0.03709 0.33455,-0.07418 0.50182,-0.167273 0.0945,-0.03709 0.16727,-0.111636 0.26182,-0.167272 0.0909,0.483272 0.33454,0.910909 0.68727,1.245818 -0.18545,0.278909 -0.29818,0.632 -0.29818,0.985454 0,0.910909 0.76363,1.654909 1.65454,1.673455 -0.55636,0.557818 -0.74181,1.376 -0.46545,2.101091 -0.0182,0 -0.0364,0.01854 -0.0727,0.03709 -0.63273,0.427636 -0.8,1.301454 -0.35273,1.933818 z m 10.97091,-6.266182 c -1.00364,-0.409091 -2.13818,0.07455 -2.54909,1.078546 -0.40728,1.004 0.0764,2.138182 1.08,2.547273 1.00363,0.40909 2.13818,-0.07418 2.54545,-1.078182 0.41091,-1.004364 -0.0727,-2.138546 -1.07636,-2.547637 z m -0.74546,-2.491272 c 0,-0.428 -0.33454,-0.799637 -0.76,-0.818182 -0.42909,0 -0.8,0.334545 -0.81818,0.762182 0,0.427636 0.33455,0.799636 0.76,0.818181 0.42909,0.01855 0.8,-0.334545 0.81818,-0.762181 z m -5.20727,12.588 c -0.61091,0.03709 -1.07636,0.538909 -1.04,1.152727 0.0364,0.613454 0.53818,1.078545 1.15273,1.041091 0.61454,-0.03709 1.08,-0.539273 1.04,-1.152728 -0.0364,-0.613454 -0.53818,-1.078545 -1.15273,-1.04109 z m -6.80364,-5.187637 c 0.0364,-0.557818 -0.38909,-1.06 -0.94909,-1.097091 -0.55636,-0.03745 -1.05818,0.390182 -1.09454,0.948 -0.04,0.557819 0.38909,1.06 0.94545,1.097091 0.56,0.03745 1.06182,-0.390545 1.09818,-0.948 z m 6.58182,-8.944 c 0.61455,-0.111272 1.00364,-0.706545 0.89455,-1.301454 -0.11273,-0.613455 -0.70909,-1.004 -1.30182,-0.892364 -0.59636,0.111637 -1.00727,0.706546 -0.89455,1.301455 0.11273,0.613454 0.70546,1.004 1.30182,0.892363 z m -1.02182,12.030546 c 0.52,-0.186182 0.78182,-0.781091 0.59637,-1.301819 -0.18909,-0.520363 -0.78182,-0.780727 -1.30182,-0.594909 -0.52364,0.185819 -0.78182,0.781091 -0.59636,1.301455 0.18545,0.520727 0.78181,0.781091 1.30181,0.595273 z m -0.85454,5.596727 c -1.04364,0.09273 -1.80364,1.022545 -1.71273,2.063636 0.0946,1.041455 1.02182,1.803637 2.06546,1.710909 1.04,-0.09309 1.80363,-1.022909 1.70909,-2.064 -0.0909,-1.041454 -1.02182,-1.803636 -2.06182,-1.710545 z M 373.68,82.538181 c 0.37091,-0.576364 0.20363,-1.357455 -0.38909,-1.729455 -0.57819,-0.371636 -1.36,-0.204363 -1.73091,0.390546 -0.0364,0.056 -0.0727,0.130182 -0.0909,0.204727 -0.54182,-0.446545 -1.32,-0.520727 -1.95273,-0.111636 -0.0764,0.05564 -0.14909,0.111636 -0.22545,0.185818 -0.1091,-0.223273 -0.35273,-0.372 -0.6291,-0.353091 -0.29818,0 -0.54181,0.241455 -0.61454,0.520364 -0.8,-0.297455 -1.69455,0.07455 -2.00727,0.874182 -0.31637,0.799272 0.0727,1.710545 0.87272,2.026545 0.55637,0.223273 1.17091,0.09309 1.6,-0.278909 0.0909,0.390545 0.31637,0.762545 0.66909,1.004 -0.46545,0.688 -0.44727,1.617818 0.12728,2.268363 0.67272,0.781091 1.86182,0.892728 2.66182,0.204728 0.77818,-0.669455 0.8909,-1.859273 0.20363,-2.658909 -0.14909,-0.167273 -0.31636,-0.297455 -0.50182,-0.409091 0.20364,-0.372 0.24,-0.799637 0.14909,-1.171273 0.0909,-0.167636 0.16728,-0.353454 0.20364,-0.539273 0.57818,0.297455 1.28364,0.130182 1.63636,-0.427636 z m -0.65091,-4.76 c 0.0545,-0.874182 -0.61455,-1.636364 -1.48728,-1.692 -0.87272,-0.056 -1.63636,0.613455 -1.6909,1.487273 -0.0582,0.873818 0.61454,1.636363 1.48727,1.692 0.87273,0.056 1.63636,-0.613455 1.69091,-1.487273 z m 14.07636,-1.450545 c -0.94909,-0.539273 -2.15636,-0.222909 -2.71636,0.725091 -0.38909,0.687999 -0.33455,1.524727 0.0945,2.138545 -0.20363,0.371636 -0.18545,0.836727 0.11273,1.189818 0.37091,0.446182 1.02182,0.502182 1.46909,0.130182 0.16727,-0.130182 0.25818,-0.316 0.31273,-0.501818 0.57818,-0.07455 1.13454,-0.409091 1.45091,-0.966909 0.54182,-0.948364 0.22545,-2.157091 -0.72364,-2.714909 z M 439.9309,64.985454 c -0.42909,0.167273 -0.76363,0.446182 -0.98545,0.799636 -0.0182,-0.111636 -0.0582,-0.204727 -0.11273,-0.316 -0.29818,-0.502182 -0.93091,-0.650909 -1.43272,-0.353454 -0.50182,0.297454 -0.65091,0.929818 -0.35273,1.431636 0.29818,0.502182 0.93091,0.650909 1.43273,0.353455 0.0364,-0.01855 0.0727,-0.056 0.11272,-0.09309 -0.04,0.334545 0,0.688 0.12728,1.022545 0.44727,1.134546 1.74909,1.692364 2.88363,1.245818 0.0546,-0.01854 0.13091,-0.05564 0.18546,-0.09273 -0.53819,-1.376 -1.15273,-2.714909 -1.84,-3.997818 z m -2.26909,-3.644364 c -0.18545,-0.278909 -0.38909,-0.557818 -0.59636,-0.818182 0,0.185819 0.04,0.390546 0.16727,0.557819 0.11273,0.148727 0.26182,0.223272 0.42909,0.260363 z m -5.8,-0.111636 c 0,0 -0.13091,0 -0.20727,0 0.33455,-0.520727 0.39273,-1.189818 0.16727,-1.766182 0.0218,0 0.0582,0 0.0764,-0.01891 0.98545,-0.446182 1.45091,-1.543273 1.13454,-2.547273 0.10909,-0.09273 0.22182,-0.222909 0.33455,-0.353091 0.0182,-0.03745 0.0182,-0.056 0.0364,-0.09309 -0.93091,-0.873819 -1.89818,-1.710546 -2.93818,-2.473091 -0.11273,0.09309 -0.22182,0.167272 -0.29818,0.297454 -0.0364,0.056 -0.0545,0.111637 -0.0909,0.148727 -0.37455,0.260364 -0.56,0.725455 -0.42909,1.171637 0.0182,0.07418 0.0545,0.148727 0.0945,0.222909 -0.78181,0.576727 -1.08,1.654909 -0.65091,2.566182 -0.11272,0.05564 -0.22545,0.130182 -0.33454,0.204363 -0.87636,0.669455 -1.04364,1.933818 -0.37455,2.807637 0.39273,0.502181 0.96728,0.762545 1.54546,0.762545 -0.11273,0.204364 -0.20364,0.427636 -0.24364,0.669455 -0.14909,1.041091 0.56,2.008 1.6,2.175272 1.04,0.148728 2.00727,-0.557818 2.17455,-1.598909 0.14909,-1.041454 -0.55637,-2.008363 -1.59637,-2.175636 z m -3.45818,-6.861091 c 0.12727,0 0.25818,0.01855 0.40727,0 0.53819,-0.03709 0.98546,-0.316 1.28364,-0.706545 -1.73091,-1.264364 -3.58909,-2.361455 -5.56,-3.309819 -0.0945,0.130182 -0.16727,0.27891 -0.20364,0.427637 -0.68727,-0.204364 -1.43272,-0.05564 -2.00727,0.372 0.0727,-0.148727 0.10909,-0.316 0.0909,-0.502182 0,-0.129818 -0.0545,-0.26 -0.11273,-0.371636 0.28,-0.148728 0.41091,-0.446182 0.41091,-0.725091 -0.46545,-0.186182 -0.94909,-0.372 -1.43272,-0.557818 -0.20364,0.222909 -0.28,0.557818 -0.16728,0.855272 -0.38909,0.148728 -0.65091,0.539273 -0.61454,0.966909 0.04,0.520364 0.50182,0.910909 1.02545,0.873819 0.10909,0 0.20364,-0.03709 0.29455,-0.07455 -0.52,0.688 -0.61091,1.562182 -0.31273,2.305818 -0.20727,0.260364 -0.35636,0.576364 -0.39273,0.929818 0,0 -0.0182,0 -0.0364,-0.01891 -0.13091,-0.278909 -0.31636,-0.557818 -0.57818,-0.762181 -0.0364,-0.01855 -0.0727,-0.03709 -0.10909,-0.07455 0.40727,-0.557818 0.42545,-1.338545 0,-1.914909 -0.54182,-0.725091 -1.54546,-0.874182 -2.26909,-0.334909 -0.72728,0.539273 -0.87273,1.543273 -0.33455,2.268727 0.0364,0.05564 0.0909,0.111273 0.14909,0.167273 -0.0764,0.07418 -0.14909,0.148727 -0.22545,0.222909 -0.38909,0.483636 -0.48364,1.097091 -0.35273,1.673455 -0.8,0 -1.54182,0.46509 -1.80364,1.264363 -0.0545,0.167637 -0.0727,0.353455 -0.0909,0.520727 -0.16727,-0.576363 -0.68727,-1.022545 -1.32,-1.022545 -0.50181,0 -0.94909,0.260364 -1.21091,0.650545 -0.12727,-0.576363 -0.48363,-1.115636 -1.04,-1.468727 -0.31636,-0.204727 -0.6509,-0.316 -1.00363,-0.353454 0.24,-0.111273 0.44727,-0.26 0.65091,-0.427637 0.74182,-0.446182 1.15272,-1.264363 1.13454,-2.101091 0.20364,-0.07418 0.38909,-0.185818 0.53818,-0.334545 0.11273,-0.09309 0.20364,-0.223273 0.28,-0.334909 0.0364,0.03745 0.0727,0.07455 0.1091,0.09309 0.46545,0.353454 1.11636,0.260363 1.4509,-0.204364 0.35273,-0.465091 0.26182,-1.115636 -0.20363,-1.450545 -0.38909,-0.297455 -0.91273,-0.260364 -1.26546,0 -0.0727,-0.148728 -0.16727,-0.297455 -0.27636,-0.427637 -0.61455,-0.669454 -1.65818,-0.706545 -2.30545,-0.09273 -0.13091,0.130182 -0.24364,0.278909 -0.31637,0.427636 -0.39273,-0.07455 -0.81818,-0.03745 -1.22909,0.111273 -0.16727,0.056 -0.33454,0.149091 -0.48363,0.241818 0.0764,-0.278909 0.0364,-0.613454 -0.13091,-0.873818 -0.31637,-0.520727 -1.00364,-0.688 -1.52364,-0.353454 0,0 0,0 -0.0182,0 -0.20364,-0.632 -0.83637,-1.078182 -1.54182,-1.041091 -0.84,0.05564 -1.46909,0.781091 -1.41455,1.617818 0,0.204363 0.0727,0.390182 0.1491,0.576363 -0.18546,-0.111636 -0.39273,-0.186181 -0.61455,-0.204727 0.24364,-0.260363 0.41091,-0.613454 0.46545,-1.004 0.0945,-0.966909 -0.59636,-1.822182 -1.56363,-1.915272 -0.31637,-0.03709 -0.62909,0.03745 -0.90909,0.148727 -0.14909,-0.260364 -0.46546,-0.390182 -0.74546,-0.297455 -0.33454,0.111637 -0.52,0.465091 -0.40727,0.799637 0.0546,0.167272 0.16727,0.278909 0.29818,0.353091 -0.0764,0.167636 -0.13091,0.334909 -0.14909,0.520727 -0.0945,0.966909 0.59273,1.822182 1.56,1.915272 0.04,0 0.0582,0 0.0945,0 0,0 -0.0364,0.03709 -0.0364,0.05564 -0.0945,0.111636 -0.14909,0.241818 -0.18909,0.353454 -0.22182,-0.204727 -0.50182,-0.372 -0.81818,-0.427636 -0.44364,-0.09309 -0.89091,0 -1.24364,0.260364 -0.14909,-0.148728 -0.31636,-0.260364 -0.50181,-0.334909 -0.4291,-1.059637 -1.61819,-1.598909 -2.67637,-1.189819 -0.89454,0.334546 -1.41454,1.208364 -1.36,2.119637 -0.0364,-0.03709 -0.0727,-0.07455 -0.13091,-0.09309 -0.50182,-0.316 -1.17091,-0.148727 -1.46545,0.353454 -0.20727,0.334546 -0.20727,0.725091 -0.04,1.059637 -0.10909,0.167636 -0.20364,0.334909 -0.25818,0.539272 -0.59637,0.07455 -1.06182,0.539273 -1.13455,1.152728 0,0.130182 0,0.241818 0,0.353454 -0.0582,0 -0.11273,-0.01855 -0.16727,-0.01855 -0.11273,0 -0.22546,0 -0.31637,0.03709 -0.35272,-0.372 -0.83636,-0.650909 -1.39636,-0.725091 -0.40727,-0.05564 -0.77818,0 -1.15273,0.148727 -0.35272,-0.594909 -1.04,-0.929818 -1.74545,-0.818182 -0.42909,0.07455 -0.8,0.278909 -1.06182,0.594909 0.0582,-0.222909 0.0582,-0.446181 0.0364,-0.669091 0.0946,-0.241818 0.1491,-0.520727 0.11273,-0.799636 -0.0545,-0.464727 -0.31636,-0.855273 -0.66909,-1.115636 -1.22545,0.650909 -2.43636,1.338545 -3.62545,2.101091 0,0.130181 0,0.241818 0.0182,0.372 0.18545,1.152727 1.26545,1.914909 2.41818,1.729091 0.53818,-0.09309 1.00364,-0.390546 1.32,-0.799637 -0.0364,0.186182 -0.0364,0.372 0,0.557818 0.13091,0.873819 0.89091,1.487637 1.72727,1.469091 0.18909,0.966909 0.96728,1.766182 2.01091,1.914909 1.30182,0.167637 2.47273,-0.743636 2.65818,-2.026545 0,-0.03709 0,-0.07455 0,-0.111636 0.33455,-0.130182 0.59273,-0.464728 0.61455,-0.855273 0.10909,0.05564 0.24,0.09309 0.38909,0.111636 0.50182,0.05564 0.96727,-0.185818 1.22545,-0.594909 0.0764,0 0.16728,0.03709 0.24364,0.03709 0.89091,0.03709 1.65455,-0.650909 1.70909,-1.543273 0,-0.204727 -0.0182,-0.390545 -0.0727,-0.576363 0.37091,0.167272 0.78182,0.222909 1.1891,0.148727 0.42909,0.316 1.02181,0.409091 1.56363,0.204364 0.10909,-0.03709 0.22182,-0.111637 0.31637,-0.167273 0.0545,0.05564 0.12727,0.111636 0.18545,0.167273 -0.0582,0.130181 -0.0946,0.278909 -0.0764,0.446181 0,0.465091 0.31636,0.836728 0.74545,0.966909 0.0182,0.372 0.13091,0.744 0.35273,1.097091 0.61454,0.929819 1.80363,1.264364 2.78909,0.818182 -0.0546,0.111637 -0.11273,0.223273 -0.14909,0.334546 -0.26182,0.892727 0.26182,1.822181 1.15273,2.082545 0.4109,0.111636 0.81818,0.07455 1.1709,-0.09273 0,0.05564 0,0.09273 0.0182,0.148727 0.0582,0.222909 0.20727,0.409091 0.37454,0.539273 -0.72727,0.148727 -1.34182,0.632 -1.63636,1.32 -0.0945,-0.185818 -0.24364,-0.353091 -0.41091,-0.502182 -0.68727,-0.557818 -1.70909,-0.446182 -2.26909,0.241818 -0.55637,0.688 -0.44364,1.710546 0.24363,2.268364 0.16728,0.130182 0.35273,0.223272 0.53819,0.297818 -0.0546,0.05564 -0.11273,0.09273 -0.14909,0.167273 -0.13091,0.148727 -0.20364,0.316 -0.28,0.501818 -0.53819,-0.278909 -1.20728,-0.111273 -1.54182,0.409091 -0.35273,0.557818 -0.20364,1.282909 0.35272,1.654909 0.44728,0.297454 1.02182,0.241818 1.41455,-0.09309 0.10909,0.167636 0.24,0.316364 0.40727,0.446545 0.89455,0.706546 2.19637,0.557819 2.90182,-0.334909 0.42909,-0.557818 0.53818,-1.245818 0.35273,-1.877818 1.22909,0.297455 2.45454,-0.465091 2.75272,-1.673454 0.29819,-1.190182 -0.42909,-2.398546 -1.59999,-2.733455 0.35272,-0.222909 0.56,-0.650545 0.44727,-1.078182 -0.13091,-0.446545 -0.53818,-0.744 -1.00364,-0.725454 0.24,-0.892364 -0.26182,-1.803637 -1.15273,-2.063637 -0.33454,-0.09309 -0.66909,-0.09309 -0.98545,0 0.35273,-0.539272 0.46545,-1.208727 0.29455,-1.841091 0,-0.03709 0.0218,-0.07418 0.0218,-0.09273 0.0546,-0.409091 -0.0582,-0.799636 -0.26181,-1.097091 0.0545,0 0.1309,0 0.18545,0 0.33455,0.910909 1.21091,1.561818 2.23273,1.561818 0.33454,0 0.65091,-0.07418 0.92727,-0.204363 0.0582,0.05564 0.11273,0.09273 0.18909,0.148727 -0.22545,0.09273 -0.41091,0.241455 -0.57818,0.409091 -0.11273,0.03709 -0.22182,0.09273 -0.31636,0.185818 -0.11273,0.148727 -0.1491,0.316 -0.13091,0.483273 -0.0909,0.241818 -0.14909,0.520727 -0.12728,0.799636 0.0364,0.688 0.42546,1.282909 0.98546,1.599273 0.16727,0.464727 0.48,0.892364 0.94545,1.171273 0.65091,0.409091 1.43273,0.464727 2.10182,0.223272 -0.11273,0.111273 -0.18545,0.26 -0.22182,0.427637 -0.13091,0.520363 0.20364,1.022545 0.70546,1.152727 0.52,0.130182 1.02181,-0.204727 1.15272,-0.706545 0,0 0,-0.01855 0,-0.03709 0.35273,0.03709 0.74546,-0.03746 1.06182,-0.260364 0.37091,-0.260364 0.59273,-0.632364 0.65091,-1.041455 0.20364,-0.148727 0.37091,-0.371636 0.46182,-0.613454 0,-0.03709 0.0182,-0.09309 0.04,-0.130182 0.14545,-0.204727 0.22182,-0.427636 0.24,-0.688 0.13091,0.557818 0.52,1.022546 1.08,1.264364 -0.04,0.632363 0.33454,1.208727 0.92727,1.413091 0.18546,0.539272 0.70909,0.929818 1.32,0.929818 0.78182,0 1.41455,-0.613818 1.43273,-1.394546 0,-0.613818 -0.38909,-1.152727 -0.94909,-1.338909 -0.0727,-0.185818 -0.18546,-0.371636 -0.31637,-0.501818 0.04,-0.07455 0.0764,-0.130182 0.0946,-0.223273 0.0727,-0.241818 0.11273,-0.464727 0.0909,-0.706545 0.39273,0.297455 0.91273,0.446182 1.43273,0.353091 0.8,-0.148727 1.35636,-0.817818 1.43272,-1.598909 0.29819,0.148727 0.63273,0.223273 0.98546,0.185818 0.0727,0 0.13091,-0.01855 0.20363,-0.03709 -0.0727,0.427636 0.16728,0.873818 0.59637,1.022546 0.46545,0.167636 0.98545,-0.09273 1.13454,-0.557819 0.16728,-0.464727 -0.0945,-0.985454 -0.56,-1.134181 -0.0364,0 -0.0545,0 -0.0909,-0.01855 0.18546,-0.260364 0.29819,-0.557818 0.31637,-0.873818 0.31636,-0.148727 0.61091,-0.353455 0.85454,-0.650909 0,-0.01855 0.0364,-0.05564 0.0364,-0.07418 0.44727,0.409091 1.11636,0.520364 1.69091,0.222909 0.16727,-0.09273 0.31636,-0.222909 0.42909,-0.353091 0.22182,0.07418 0.48363,0.09273 0.72363,0.05564 z m -23.59636,9.408364 c 0,0 0.0364,-0.05564 0.0545,-0.07418 0,0.03709 0,0.05564 0.0182,0.09309 -0.0182,0 -0.0546,0 -0.0727,0 z M 405.16,51.82109 c 0,0 0,-0.01854 -0.0182,-0.03709 0.0364,0 0.0546,0.01855 0.0909,0.03709 -0.0182,0 -0.0545,0 -0.0727,0 z m 31.72,8.943637 c -0.31637,-0.520728 -1.00364,-0.688 -1.52364,-0.372 -0.52,0.316 -0.68727,1.004 -0.37091,1.524727 0.31636,0.520727 1.00364,0.688 1.52364,0.372 0.52,-0.316364 0.68727,-1.004 0.37091,-1.524727 z M 412.57818,49.310909 c 0.65091,-0.07455 1.11636,-0.650909 1.04,-1.301455 -0.0546,-0.427636 -0.31273,-0.762545 -0.68728,-0.929818 -0.24,-0.03709 -0.48363,-0.05564 -0.72363,-0.09309 -0.59637,0.130182 -1.00364,0.669455 -0.94909,1.282909 0.0764,0.650909 0.65091,1.115636 1.30182,1.06 z m 11.56727,8.943636 c -0.44727,0.669454 -0.31636,1.543273 0.29455,2.045454 0.39272,0.427637 1.02545,0.576364 1.56363,0.316 0.28,-0.130181 0.48364,-0.353454 0.61455,-0.594909 0,0 0.0182,-0.01891 0.0364,-0.03745 0.48364,-0.688 0.29818,-1.654909 -0.38909,-2.119637 -0.69091,-0.483272 -1.65818,-0.297454 -2.12,0.390546 z m -49.18182,2.194182 c 0,0 0,0 0,-0.01891 -0.85454,0.799636 -1.67272,1.617818 -2.47272,2.47309 0.20363,0.03709 0.42545,0.03709 0.63272,0 1.18909,-0.167272 2.00728,-1.282909 1.84,-2.45418 z m 3.84728,3.365454 c 0.63272,-0.557818 0.81818,-1.432 0.57818,-2.175636 0.81818,-0.222909 1.46909,-0.873818 1.67272,-1.729091 0.0546,0.111636 0.13091,0.222909 0.22182,0.334545 0.70909,0.836728 1.95273,0.929819 2.78909,0.223273 0.84,-0.706545 0.93091,-1.952363 0.22546,-2.789091 -0.29818,-0.353454 -0.70909,-0.557818 -1.11637,-0.650909 -0.29818,-0.409091 -0.74545,-0.688 -1.26545,-0.725091 -0.77818,-0.05564 -1.46909,0.390546 -1.74545,1.078546 -0.29819,-0.204728 -0.63273,-0.372 -1.00364,-0.427637 0,0 -0.0218,0 -0.04,0 -0.94546,0.706546 -1.85818,1.450182 -2.74909,2.231273 0,0.148727 -0.0218,0.316 0,0.464727 -0.28,0.260364 -0.35637,0.688 -0.14909,1.022546 0,0 0,0 0,0.01855 -0.04,0.03745 -0.0945,0.056 -0.13091,0.09309 -0.83637,0.762182 -0.91273,2.045455 -0.14909,2.882182 0.76363,0.836727 2.04363,0.910909 2.88,0.148727 z M 398.56,71.809454 c -0.68728,-0.223273 -1.41455,0.148727 -1.63637,0.836727 -0.22545,0.688 0.14909,1.413091 0.83637,1.636364 0.68727,0.222909 1.41091,-0.148728 1.63636,-0.836728 0.22182,-0.688 -0.14909,-1.41309 -0.83636,-1.636363 z m 0.70545,-2.882182 c 0.68727,-0.688 0.68727,-1.803636 0,-2.491636 -0.68727,-0.687637 -1.80364,-0.687637 -2.49091,0 -0.68727,0.688 -0.68727,1.803636 0,2.491636 0.68727,0.688 1.80364,0.688 2.49091,0 z m 26.90545,-7.623273 c -0.22181,0.09273 -0.33454,0.353091 -0.24363,0.576364 0.0945,0.222909 0.35636,0.334545 0.57818,0.241818 0.22182,-0.09309 0.33455,-0.353454 0.24,-0.576727 -0.0909,-0.222909 -0.35273,-0.334546 -0.57455,-0.241455 z m -42.05818,0.427637 c -0.61454,-0.706546 -1.67636,-0.781091 -2.36363,-0.167273 -0.46546,0.408727 -0.65091,1.004 -0.53818,1.580364 -0.22182,-0.111637 -0.48364,-0.130182 -0.72364,-0.03709 -0.46546,0.185818 -0.69091,0.725091 -0.50182,1.189818 0.18546,0.464727 0.72364,0.688 1.18909,0.502182 0.10909,-0.03746 0.20364,-0.111637 0.29818,-0.186182 0.10909,0.241818 0.33455,0.446545 0.62909,0.520727 0.50182,0.111637 0.98546,-0.167273 1.13455,-0.669454 -0.10909,0.241818 -0.12727,0.502181 -0.0727,0.762545 0.16728,0.613455 0.8,0.985455 1.43273,0.836727 0.61091,-0.167272 0.98545,-0.799636 0.83636,-1.431636 -0.14909,-0.539273 -0.63272,-0.892727 -1.17091,-0.874182 0.40728,-0.613454 0.3891,-1.450182 -0.11272,-2.026545 z m 4.46182,-8.609091 c 0.31637,-0.05564 0.52,-0.334546 0.48364,-0.650909 -0.0582,-0.316 -0.33455,-0.520364 -0.65091,-0.483273 -0.31636,0.05564 -0.52,0.334546 -0.48364,0.650909 0.0546,0.316 0.33455,0.520364 0.65091,0.483273 z m 10.26182,2.119636 c -0.20364,0.297455 -0.14545,0.706546 0.14909,0.911273 0.29818,0.204364 0.70909,0.148727 0.91273,-0.148727 0.20363,-0.297455 0.14909,-0.706546 -0.14909,-0.911273 -0.29818,-0.204364 -0.70546,-0.148727 -0.91273,0.148727 z m 1.22909,15.005455 c -0.52,0.260363 -0.74545,0.892363 -0.48364,1.431636 0.26182,0.520727 0.89091,0.743636 1.43273,0.483273 0.52,-0.26 0.74182,-0.892364 0.48364,-1.431637 -0.26182,-0.520727 -0.89455,-0.743636 -1.43273,-0.483272 z m -3.27273,-14.001091 c -0.94909,0.390182 -1.39636,1.487273 -1.00363,2.435636 0.38909,0.948364 1.48727,1.394546 2.43636,1.004 0.94546,-0.390545 1.39273,-1.487636 1.00364,-2.435636 -0.39273,-0.948364 -1.48728,-1.394546 -2.43637,-1.004 z m 1.93455,5.596727 c 0.40727,0.483273 1.11636,0.557818 1.59636,0.148727 0.48364,-0.409091 0.56,-1.115636 0.14909,-1.599272 -0.40727,-0.483273 -1.11272,-0.557819 -1.59636,-0.148728 -0.14909,0.111637 -0.24364,0.260364 -0.31636,0.409091 0,-0.01854 0,-0.03709 0,-0.07418 -0.18546,-0.520727 -0.76364,-0.818181 -1.28364,-0.632363 -0.53818,0.185818 -0.81818,0.762182 -0.63273,1.282909 0.0946,0.278909 0.29818,0.483636 0.55637,0.594909 -0.0546,0.056 -0.10909,0.130182 -0.12728,0.204727 -0.14909,0.372 0.0182,0.799637 0.38909,0.948364 0.37091,0.148727 0.8,-0.01855 0.9491,-0.390546 0.1309,-0.316 0.0182,-0.669454 -0.24364,-0.873818 0.14909,-0.09309 0.26182,-0.223272 0.33454,-0.372 0.04,0.167273 0.11273,0.334546 0.22546,0.483273 z m -11.53091,-0.09309 c 0.14909,-0.204727 0.11273,-0.483636 -0.0909,-0.650909 -0.20364,-0.148727 -0.48364,-0.111636 -0.65091,0.09309 -0.14909,0.204364 -0.11273,0.483273 0.0945,0.650909 0.20363,0.148727 0.48,0.111273 0.64727,-0.09309 z M 393.76,60.448727 c -0.16728,0.762181 0.29818,1.543272 1.08,1.710545 0.76363,0.167273 1.54181,-0.297454 1.70909,-1.078545 0.16727,-0.762182 -0.29455,-1.543273 -1.07637,-1.710546 -0.76363,-0.167273 -1.54545,0.297455 -1.71272,1.078546 z m -0.89091,0.557818 c -0.72364,-0.483637 -1.69091,-0.297818 -2.17455,0.427636 -0.48363,0.725091 -0.29818,1.692 0.42546,2.175273 0.41091,0.278909 0.89454,0.316 1.32,0.186182 0.0218,0.204363 0.0945,0.408727 0.20727,0.594909 0.40727,0.613454 1.22545,0.762182 1.84,0.353091 0.61454,-0.409091 0.76364,-1.226909 0.35273,-1.840728 -0.29819,-0.427636 -0.8,-0.632 -1.28364,-0.557818 0,-0.520727 -0.22182,-1.022545 -0.68727,-1.32 z m 5.02182,-11.453818 c 0,0 0.0545,0.09273 0.0909,0.130182 0.56,0.632 1.52364,0.687636 2.13819,0.129818 0.63272,-0.557818 0.68727,-1.524364 0.13091,-2.138182 -0.0545,-0.05564 -0.13091,-0.09273 -0.18546,-0.130182 -1.43273,0.260364 -2.84364,0.594909 -4.24,0.985455 0,0.260363 0.0764,0.520727 0.24364,0.762545 0.42545,0.576364 1.24363,0.688 1.82182,0.278909 z m 21.28727,-1.004364 c 0,0 0.0945,-0.111273 0.14909,-0.167273 -1.13455,-0.334545 -2.30546,-0.632 -3.49455,-0.855272 0.0727,0.223272 0.18546,0.427636 0.31637,0.613454 0.72363,0.948364 2.06181,1.134546 3.01091,0.409091 z M 406.44363,47.34 c 0.40728,0.09273 0.8,-0.167273 0.89091,-0.557819 -0.48363,0 -0.96727,0 -1.45091,0.03709 0.0764,0.241818 0.28,0.464728 0.56,0.520728 z m -11.86545,17.794181 c -1.05818,-0.409091 -2.24727,0.07455 -2.73091,1.078546 -0.16727,-0.260364 -0.37091,-0.502182 -0.65091,-0.669455 -0.53818,-0.353091 -1.18909,-0.390545 -1.76727,-0.185818 0.57818,-0.799636 0.57818,-1.915273 -0.0727,-2.714909 -0.0764,-0.07418 -0.14909,-0.148727 -0.22545,-0.222909 0.0364,0 0.0764,0 0.1309,0 0.50182,-0.130182 0.8,-0.632364 0.6691,-1.134182 -0.13091,-0.502182 -0.63273,-0.799636 -1.13455,-0.669455 -0.50182,0.130182 -0.8,0.632 -0.66909,1.134182 0,0.05564 0.0364,0.111637 0.0545,0.167273 -0.66909,-0.167273 -1.39272,-0.05564 -1.9709,0.409091 -0.96364,0.781091 -1.11273,2.194182 -0.33455,3.142545 0.63273,0.780728 1.65818,1.004 2.53091,0.669091 0,0 -0.0182,0.03745 -0.0364,0.056 -0.59637,0.948364 -0.31637,2.212727 0.62909,2.807636 0.94909,0.59491 2.21454,0.316 2.81091,-0.632363 0.0182,-0.03709 0.0364,-0.07418 0.0545,-0.130182 0.24,0.446545 0.61455,0.799636 1.11636,0.985455 1.13455,0.427636 2.39637,-0.130182 2.82546,-1.264364 0.42909,-1.134182 -0.13091,-2.398545 -1.26546,-2.826182 z m -2.58182,-15.358545 c -0.66909,0.260363 -1.33818,0.520727 -1.98909,0.799636 0.20364,0.07418 0.40727,0.130182 0.62909,0.130182 0.61455,0 1.13455,-0.390545 1.36,-0.929818 z m 24.13454,1.078545 c -0.0582,0.632 0.40728,1.189818 1.05819,1.245818 0.65091,0.05564 1.18909,-0.40909 1.24727,-1.06 0.0545,-0.632 -0.41091,-1.189818 -1.06182,-1.245818 -0.62909,-0.05564 -1.18909,0.409091 -1.24364,1.06 z m -12.49454,9.464364 c 0.25818,-0.204727 0.29455,-0.557818 0.10909,-0.818182 -0.20364,-0.260364 -0.55636,-0.297455 -0.81818,-0.111636 -0.25818,0.204363 -0.29455,0.557818 -0.10909,0.818181 0.20363,0.260364 0.55636,0.297455 0.81818,0.111637 z m -38.99273,16.027636 c -0.0727,0.446546 -0.0182,0.911273 0.14909,1.320364 -0.81818,0.260363 -1.32036,1.078545 -1.13454,1.933818 0.18545,0.892363 1.08,1.468727 1.97091,1.282909 0.83636,-0.185818 1.39636,-0.966909 1.30182,-1.803636 0.72363,0 1.43272,-0.353455 1.87636,-0.985455 0.74545,-1.06 0.48364,-2.491636 -0.57455,-3.235273 -0.57818,-0.409091 -1.28363,-0.502181 -1.93454,-0.334909 0.11273,-0.594909 -0.0182,-1.245818 -0.42546,-1.766182 -0.13091,-0.167636 -0.28,-0.316363 -0.44727,-0.446545 -0.74545,1.301818 -1.45091,2.621818 -2.08327,3.979273 0.41054,0.130182 0.85418,0.148727 1.26509,0.05564 z m -1.04109,15.860727 c 0.29927,0.05564 0.59382,-0.148727 0.652,-0.446182 0.0546,-0.297454 -0.14909,-0.595272 -0.44727,-0.650909 -0.29782,-0.05564 -0.59527,0.148728 -0.65091,0.446182 -0.056,0.297455 0.14873,0.594909 0.44618,0.650909 z m -0.81818,-10.877454 c -0.39055,0 -0.70655,0.297454 -0.70655,0.688 0,0.390545 0.29746,0.706545 0.688,0.706545 0.39055,0 0.70655,-0.297454 0.70655,-0.688 0,-0.390545 -0.29745,-0.706545 -0.688,-0.706545 z m -1.71055,2.937818 c 0.37164,-0.167273 0.53928,-0.613455 0.37164,-1.004 -0.0742,-0.148727 -0.16727,-0.260364 -0.29745,-0.334909 0.056,-0.167273 0.0745,-0.334546 0.0374,-0.520364 0,-0.07455 -0.056,-0.148727 -0.0745,-0.223273 -0.22328,0.688 -0.4091,1.394546 -0.59491,2.101091 0.16727,0.056 0.37163,0.056 0.55781,-0.01854 z m 1.4131,-3.068 c 0.5949,0.01855 1.07854,-0.446182 1.11563,-1.022546 0.0186,-0.594909 -0.44618,-1.078545 -1.02254,-1.115636 -0.13019,0 -0.26037,0.01855 -0.372,0.05564 -0.20473,0.520728 -0.39055,1.02291 -0.57637,1.543273 0.18582,0.297455 0.48328,0.520727 0.87382,0.539273 z m 4.46218,-11.268 c -0.16728,0.260364 -0.35273,0.539273 -0.52,0.799636 0.14909,-0.111636 0.29818,-0.241818 0.38909,-0.409091 0.0764,-0.130181 0.0945,-0.260363 0.13091,-0.390545 z m 2.10182,1.190182 c 0,0 0.0909,0.01855 0.1309,0.03709 0,0 -0.0182,0 -0.04,0.01855 -0.79636,0.725455 -0.85454,1.952364 -0.12727,2.752 0.72364,0.799637 1.95273,0.855273 2.74909,0.148727 0.8,-0.72509 0.85818,-1.952363 0.14909,-2.752 -0.25818,-0.297454 -0.59272,-0.483272 -0.94545,-0.576363 0.18545,-0.185818 0.33454,-0.390182 0.44364,-0.650546 0.29818,-0.781091 0.0182,-1.636363 -0.61091,-2.12 0.53818,-0.222909 0.85454,-0.780727 0.76,-1.375636 -0.10909,-0.669454 -0.72364,-1.115636 -1.39273,-1.041454 -0.37455,0.446181 -0.74546,0.911272 -1.09818,1.376 0,0.01855 0,0.05564 0,0.07455 0.0364,0.241455 0.14909,0.464727 0.31636,0.632 -0.57818,0.111636 -1.09818,0.520727 -1.33818,1.115636 -0.37091,0.929818 0.0909,1.989455 1.02182,2.342909 z m 3.64363,25.324727 c -0.40727,0.297454 -0.48363,0.873818 -0.18545,1.282909 0.29818,0.409091 0.87272,0.483636 1.28363,0.186182 0.40728,-0.297455 0.48364,-0.874182 0.18546,-1.282909 -0.29818,-0.409091 -0.87273,-0.483637 -1.28364,-0.186182 z m 19.52364,-24.004727 c -0.63273,0.539273 -0.70546,1.487636 -0.18546,2.12 0.53819,0.632 1.48728,0.706545 2.12,0.185818 0.63273,-0.539273 0.70546,-1.487636 0.18546,-2.119636 -0.53818,-0.632364 -1.48727,-0.706546 -2.12,-0.186182 z m -30.884,22.089818 c -0.26037,-0.07455 -0.55782,0.07418 -0.63237,0.334545 -0.0742,0.260364 0.0745,0.557818 0.33491,0.632 0.26,0.07455 0.55782,-0.07418 0.632,-0.334545 0.0745,-0.260364 -0.0742,-0.557818 -0.33454,-0.632 z m 10.17127,26.719268 c 0,0 0,-0.13018 0,-0.18618 -0.0364,-0.18582 -0.0945,-0.37163 -0.16727,-0.53891 0.50182,-0.13018 0.94909,-0.48363 1.18909,-1.00436 0.41091,-0.91091 0,-1.98945 -0.93091,-2.39855 -0.76,-0.33454 -1.61455,-0.11163 -2.12,0.50219 -0.0727,-0.0746 -0.16727,-0.14873 -0.25818,-0.20473 0,0 0,0 0.0182,0 0.53818,-0.26036 0.78182,-0.89236 0.52,-1.45018 -0.0182,-0.0556 -0.0545,-0.11164 -0.0909,-0.14873 0.52,-0.94836 0.27636,-2.11964 -0.54182,-2.77055 0.31637,-0.372 0.31637,-0.92981 -0.0182,-1.30145 -0.37091,-0.40909 -0.98545,-0.42764 -1.39273,-0.0746 -0.26181,0.24182 -0.37454,0.57637 -0.29818,0.91128 -0.65091,0.0927 -1.24727,0.48327 -1.58182,1.09709 -0.59272,1.05963 -0.20363,2.39854 0.85819,2.99345 0.35272,0.20473 0.76,0.27891 1.1309,0.26037 0.0218,0.0371 0.0582,0.0931 0.0764,0.13018 -0.50182,0.0185 -0.96727,0.22291 -1.32,0.53927 1.74545,2.23127 3.77454,4.23927 6.04363,5.96836 0.0909,-0.2789 0.12728,-0.57636 0.0727,-0.89236 -0.13091,-0.66945 -0.57454,-1.18982 -1.17091,-1.43164 z m 8.16364,-38.451995 c 0.40727,-0.762546 0.10909,-1.710909 -0.65091,-2.101091 -0.76364,-0.409091 -1.71273,-0.111637 -2.10182,0.650545 -0.18545,0.372 -0.22545,0.762546 -0.11273,1.134182 -0.0909,-0.241455 -0.22182,-0.464727 -0.44727,-0.650545 -0.62909,-0.520728 -1.57818,-0.446546 -2.09818,0.185818 -0.48364,0.576363 -0.44727,1.394545 0.0364,1.952363 -0.57818,0.09309 -1.06182,0.557819 -1.13454,1.171273 -0.0182,0.223273 0,0.427636 0.0909,0.632364 -0.0545,0.07418 -0.0909,0.130182 -0.12728,0.204363 -0.50182,0.911273 -0.22545,2.026909 0.61091,2.603273 -0.12727,0.576364 0.0218,1.227273 0.48364,1.673455 0.0945,0.09309 0.20727,0.167272 0.31636,0.241818 -0.52,-0.03746 -1.04,0.185818 -1.35636,0.632 -0.0364,0.056 -0.0546,0.09309 -0.0727,0.148727 -0.13091,0 -0.26182,0.03709 -0.39273,0.07455 -0.18545,0.05564 -0.37091,0.130182 -0.52,0.241819 0.0727,-0.706909 -0.28,-1.432 -0.94909,-1.766546 -0.46545,-0.241818 -1.00363,-0.260363 -1.46909,-0.09309 -1.00363,-0.222909 -2.06182,0.297455 -2.49091,1.282909 -0.31636,0.744 -0.18545,1.543273 0.24364,2.157091 -0.04,0.07418 -0.0582,0.148728 -0.0764,0.241818 -0.44728,-0.316363 -1.02182,-0.372 -1.52364,-0.14909 -0.0946,-0.09273 -0.16727,-0.185819 -0.28,-0.26 -1.04,-0.781091 -2.50946,-0.576728 -3.30909,0.446181 -0.70655,0.929455 -0.61382,2.231273 0.18582,3.049455 -0.20437,0.446182 -0.24182,0.929454 -0.13019,1.394545 -0.40909,0.09273 -0.79927,0.297455 -1.11563,0.613455 -0.61346,0.632363 -0.76218,1.561823 -0.44618,2.342913 -0.14873,0.14873 -0.24182,0.316 -0.33455,0.48327 -0.31636,0.13018 -0.59527,0.35346 -0.81818,0.61382 0.20436,1.20836 0.48327,2.41709 0.79964,3.56982 0.14872,0.056 0.29745,0.11164 0.46472,0.14873 -0.0371,0.16727 -0.056,0.33491 -0.056,0.52072 -0.0742,0 -0.12982,0.0556 -0.18582,0.0742 0.46473,1.50618 1.004,2.99381 1.63637,4.38836 0.66945,-0.27891 1.18982,-0.85527 1.37454,-1.56182 0.18909,0.0927 0.39273,0.16727 0.57819,0.20436 0.0727,0.26037 0.20363,0.52073 0.3709,0.744 0.37091,0.46473 0.89455,0.74364 1.45091,0.81782 0.0727,0.0746 0.14909,0.13018 0.24,0.18618 0.67273,0.42764 1.56364,0.20437 1.97091,-0.46509 0.22546,-0.35309 0.26182,-0.78072 0.14909,-1.15272 0.26182,-0.70655 0.16728,-1.52473 -0.33454,-2.15673 -0.37091,-0.46509 -0.89091,-0.744 -1.42909,-0.81818 -0.04,-0.0931 -0.0582,-0.16728 -0.11273,-0.26037 -0.38909,-0.74363 -1.17091,-1.17127 -1.95273,-1.15272 -0.0945,-0.16728 -0.22182,-0.31637 -0.35272,-0.44619 -0.0364,-0.0375 -0.0945,-0.056 -0.13091,-0.0931 0,-0.0185 0.0182,-0.056 0.0364,-0.0745 0.44727,0.20473 0.96727,0.26036 1.46909,0.11163 0.16727,0.0745 0.37455,0.0745 0.52,-0.0185 0.11273,0.50218 0.42909,0.96691 0.93091,1.24582 0.91273,0.50182 2.06545,0.16727 2.56727,-0.74364 0.50182,-0.91127 0.16728,-2.064 -0.74545,-2.56618 -0.0182,0 -0.0546,-0.0186 -0.0727,-0.0371 0.0909,-0.20473 0.13091,-0.44618 0.0909,-0.66946 0.0764,0 0.16727,0 0.26182,0 0.85454,-0.11163 1.46909,-0.91091 1.35636,-1.785091 -0.0545,-0.353091 -0.20363,-0.650546 -0.44727,-0.892364 0.42909,-0.01855 0.8,-0.353455 0.81818,-0.799636 0.04,-0.483273 -0.31273,-0.892364 -0.79636,-0.929455 -0.48364,-0.03745 -0.89455,0.316 -0.93091,0.799273 0,0.186182 0.0182,0.353454 0.11273,0.502182 -0.16728,-0.03709 -0.35637,-0.05564 -0.54182,-0.01855 -0.14909,0.01855 -0.27637,0.07418 -0.40728,0.130182 -0.0364,-0.148727 -0.11272,-0.278909 -0.22545,-0.409091 -0.35273,-0.372 -0.94545,-0.390545 -1.32,-0.01854 -0.0364,0.03709 -0.0546,0.05564 -0.0727,0.09273 -0.13091,-0.03709 -0.28,-0.03709 -0.42909,0 0.14909,-0.278909 0.24364,-0.557818 0.26182,-0.855273 0.46545,-0.07418 0.87273,-0.371636 1.05818,-0.818182 0.14909,-0.353091 0.13091,-0.725091 0,-1.041091 0,0 0,0 0.0218,-0.01855 0.0546,0.204364 0.18545,0.390545 0.37091,0.520727 0.27636,0.185818 0.63273,0.185818 0.90909,0.05564 0.56,0.148727 1.17091,0.07418 1.71273,-0.260364 0.55636,-0.334545 0.90909,-0.892364 1.02182,-1.487636 0.48363,0.576727 1.26545,0.836727 2.02545,0.632363 0.85818,-0.241818 1.43273,-1.022545 1.43273,-1.859272 0.0545,-0.03746 0.11272,-0.07455 0.14909,-0.111637 0.13091,0.222909 0.33454,0.409091 0.59636,0.483273 0.55637,0.167273 1.13091,-0.148727 1.30182,-0.688 0.16727,-0.557818 -0.14909,-1.134182 -0.69091,-1.301455 -0.24,-0.07455 -0.46545,-0.05564 -0.68727,0.03709 -0.0727,-0.353091 -0.28,-0.688 -0.61455,-0.910909 0,0 -0.0182,0 -0.0364,-0.01855 0.33454,0.03709 0.68727,0 0.98545,-0.167637 0,0.33491 0.22546,0.632364 0.56,0.688 0.37091,0.056 0.70546,-0.204363 0.76,-0.557818 0.0582,-0.371636 -0.20363,-0.706545 -0.55636,-0.762182 0,0 -0.0182,0 -0.0364,0 0.42545,-0.669454 0.35272,-1.580363 -0.22546,-2.175636 0.42909,-0.948 0.0582,-2.082545 -0.87273,-2.584363 0,0 0,0 -0.0182,0 -0.0182,-0.260364 -0.13091,-0.483637 -0.28,-0.688 0.37091,-0.03709 0.74546,-0.223273 1.00364,-0.520728 0.31636,-0.390545 0.41091,-0.892363 0.29818,-1.338545 0.13091,0.353091 0.37091,0.650545 0.72364,0.836727 0.76363,0.409091 1.71272,0.111273 2.10182,-0.650909 z m -14.05818,17.552365 c 0,0 -0.18546,-0.0371 -0.28,-0.0371 -0.1091,-0.13018 -0.22182,-0.22328 -0.35273,-0.316003 0,-0.167636 -0.0182,-0.334909 -0.0727,-0.502182 0.37091,-0.07418 0.70546,-0.260363 1.00364,-0.520727 0,0.130182 0,0.278909 0.0727,0.409091 0.0364,0.07455 0.0946,0.130182 0.1491,0.186182 -0.25819,0.185818 -0.44728,0.464729 -0.52,0.799269 z M 360.46,89.194545 c -0.24146,-0.241455 -0.53891,-0.390182 -0.85528,-0.483273 0,0.05564 -0.0185,0.09309 -0.0185,0.148727 -0.18582,1.282909 -0.316,2.547273 -0.39055,3.793091 0.46509,-0.03709 0.91128,-0.223273 1.28328,-0.576364 0.79927,-0.799636 0.79927,-2.082545 0,-2.863636 z m -0.33455,7.456363 c -0.11164,-0.632364 -0.52073,-1.134182 -1.06,-1.413091 0,1.152727 0.056,2.305455 0.16764,3.439637 0.66909,-0.409091 1.04109,-1.208364 0.89236,-2.026546 z"
     fill="#0e5ca8"
     id="path38"
     style="stroke-width:1" />
  <path
     d="m 462.70909,62.363636 c -12.49455,0.632363 -25.75273,2.324363 -39.32728,5.187636 -35.16,7.419273 -65.13381,21.029818 -83.93236,36.499998 l 6.136,9.68727 c 17.90582,-10.4869 41.03636,-19.356359 66.99273,-24.822905 17.55272,-3.699999 34.56727,-5.466545 50.11272,-5.48509 V 62.363636 Z"
     fill="#ffffff"
     id="path39"
     style="stroke-width:1" />
  <mask
     id="mask2_117_437"
     maskUnits="userSpaceOnUse"
     x="129"
     y="0"
     width="91"
     height="49">
    <path
       d="m 161.105,33.5791 c 0.522,0 1.841,-0.45 3.958,-1.3499 3.129,-1.3244 5.691,-2.9811 7.685,-4.9702 2.874,-2.8378 4.612,-6.2944 5.205,-10.3646 C 178.695,11.8322 177.432,7.74666 174.17,4.648 170.907,1.54933 166.27,0 160.261,0 c -6.483,0 -11.827,1.75386 -16.03,5.25137 -4.203,3.50261 -6.765,8.40113 -7.685,14.69563 h 16.398 l 0.174,-1.2067 c 0.21,-1.4215 0.736,-2.5669 1.585,-3.4413 0.849,-0.8744 1.877,-1.3141 3.089,-1.3141 1.212,0 2.035,0.3784 2.623,1.1351 0.588,0.7568 0.787,1.7539 0.608,2.9811 -0.281,1.9431 -3.001,5.1338 -8.145,9.5823 l -23.291,19.9522 h 44.373 l 2.056,-14.0565 z m 43.182,-15.7643 c -1.324,0 -2.991,0.2249 -4.996,0.6749 -0.583,0.0972 -1.37,0.3017 -2.362,0.6034 l 1.355,-4.8986 h 19.809 L 220,1.13004 h -31.38 l -8.391,28.75216 c 1.692,-0.5829 3.078,-0.9971 4.157,-1.2426 3.191,-0.7823 6.039,-1.1709 8.549,-1.1709 2.792,0 4.96,0.4039 6.499,1.2067 1.54,0.8079 2.209,1.8919 2.01,3.2674 -0.358,2.4595 -3.022,3.6918 -7.992,3.6918 -3.17,0 -6.387,-0.6749 -9.644,-2.0248 -1.074,-0.4193 -2.398,-1.0943 -3.963,-2.0249 l -4.029,13.4889 c 1.872,0.8079 3.462,1.3959 4.781,1.7743 3.953,1.1352 8.033,1.7028 12.246,1.7028 7.052,0 12.881,-1.4931 17.478,-4.4742 4.602,-2.9811 7.271,-7.0052 8.012,-12.0674 0.624,-4.2594 -0.368,-7.6904 -2.965,-10.2931 -2.603,-2.6027 -6.295,-3.9065 -11.076,-3.9065 z"
       fill="#ffffff"
       id="path40" />
  </mask>
  <g
     mask="url(#mask2_117_437)"
     id="g40"
     transform="scale(3.6363636)"
     style="stroke-width:0.275">
    <rect
       x="124.668"
       y="-2.49018"
       width="97.684601"
       height="55.346401"
       fill="url(#pattern1_117_437)"
       id="rect40"
       style="stroke-width:0.275" />
  </g>
  <defs
     id="defs54">
    <pattern
       id="pattern0_117_437"
       patternContentUnits="objectBoundingBox"
       width="1"
       height="1">
      <use
         xlink:href="#image0_117_437"
         transform="scale(0.000875657 0.00234742)"
         id="use40" />
    </pattern>
    <pattern
       id="pattern1_117_437"
       patternContentUnits="objectBoundingBox"
       width="1"
       height="1">
      <use
         xlink:href="#image1_117_437"
         transform="scale(0.00125786 0.00222222)"
         id="use41" />
    </pattern>
    <radialGradient
       id="paint0_radial_117_437"
       cx="0"
       cy="0"
       r="1"
       gradientUnits="userSpaceOnUse"
       gradientTransform="matrix(176.95745,0,0,176.95745,534.22181,34.212654)">
      <stop
         offset="0.5"
         stop-color="#0D4F9E"
         id="stop41" />
      <stop
         offset="1"
         stop-color="#1B3F7B"
         id="stop42" />
    </radialGradient>
    <radialGradient
       id="paint1_radial_117_437"
       cx="0"
       cy="0"
       r="1"
       gradientUnits="userSpaceOnUse"
       gradientTransform="matrix(151.46545,0,0,151.46545,699.98545,34.844872)">
      <stop
         offset="0.5"
         stop-color="#0D4F9E"
         id="stop43" />
      <stop
         offset="1"
         stop-color="#1B3F7B"
         id="stop44" />
    </radialGradient>
    <radialGradient
       id="paint2_radial_117_437"
       cx="0"
       cy="0"
       r="1"
       gradientUnits="userSpaceOnUse"
       gradientTransform="matrix(158.88436,0,0,158.88436,42.356727,34.751891)">
      <stop
         offset="0.44"
         stop-color="#008D45"
         id="stop45" />
      <stop
         offset="1"
         stop-color="#006D35"
         id="stop46" />
    </radialGradient>
    <radialGradient
       id="paint3_radial_117_437"
       cx="0"
       cy="0"
       r="1"
       gradientUnits="userSpaceOnUse"
       gradientTransform="matrix(151.24218,0,0,151.24218,355.86763,34.4172)">
      <stop
         offset="0.44"
         stop-color="#008D45"
         id="stop47" />
      <stop
         offset="1"
         stop-color="#006D35"
         id="stop48" />
    </radialGradient>
    <radialGradient
       id="paint4_radial_117_437"
       cx="0"
       cy="0"
       r="1"
       gradientUnits="userSpaceOnUse"
       gradientTransform="matrix(154.77527,0,0,154.77527,194.90073,34.919236)">
      <stop
         offset="0.44"
         stop-color="#008D45"
         id="stop49" />
      <stop
         offset="1"
         stop-color="#006D35"
         id="stop50" />
    </radialGradient>
    <linearGradient
       id="paint5_linear_117_437"
       x1="110.453"
       y1="5.9467702"
       x2="110.453"
       y2="42.921101"
       gradientUnits="userSpaceOnUse"
       gradientTransform="scale(3.6363636)">
      <stop
         offset="0"
         stop-color="#FFDD00"
         id="stop51" />
      <stop
         offset="1"
         stop-color="#FCC113"
         id="stop52" />
    </linearGradient>
    <linearGradient
       id="paint6_linear_117_437"
       x1="110.453"
       y1="12.8651"
       x2="110.453"
       y2="36.0079"
       gradientUnits="userSpaceOnUse"
       gradientTransform="scale(3.6363636)">
      <stop
         offset="0"
         stop-color="#0D4F9E"
         id="stop53" />
      <stop
         offset="1"
         stop-color="#1B3F7B"
         id="stop54" />
    </linearGradient>
  </defs>
</svg>
