<?xml version="1.0" encoding="UTF-8" standalone="no"?>
<!-- Created with Inkscape (http://www.inkscape.org/) -->

<svg
   version="1.1"
   id="svg182"
   width="157.13887"
   height="44.170841"
   viewBox="0 0 157.13887 44.170841"
   sodipodi:docname="PSB Wordmark.svg"
   inkscape:version="1.3.2 (091e20e, 2023-11-25, custom)"
   xmlns:inkscape="http://www.inkscape.org/namespaces/inkscape"
   xmlns:sodipodi="http://sodipodi.sourceforge.net/DTD/sodipodi-0.dtd"
   xmlns="http://www.w3.org/2000/svg"
   xmlns:svg="http://www.w3.org/2000/svg">
  <defs
     id="defs186" />
  <sodipodi:namedview
     id="namedview184"
     pagecolor="#ffffff"
     bordercolor="#000000"
     borderopacity="0.25"
     inkscape:showpageshadow="2"
     inkscape:pageopacity="0.0"
     inkscape:pagecheckerboard="0"
     inkscape:deskcolor="#d1d1d1"
     showgrid="false"
     inkscape:zoom="2.0000001"
     inkscape:cx="57.999998"
     inkscape:cy="10.25"
     inkscape:window-width="1366"
     inkscape:window-height="745"
     inkscape:window-x="-8"
     inkscape:window-y="-8"
     inkscape:window-maximized="1"
     inkscape:current-layer="g188" />
  <g
     inkscape:groupmode="layer"
     inkscape:label="Image"
     id="g188"
     style="display:inline"
     transform="translate(-83.430562,-54.388051)">
    <g
       id="g10"
       transform="matrix(0.19371773,0,0,0.19489716,65.105002,-9.777431)"
       style="display:inline">
      <path
         id="rect1"
         style="display:inline;fill:#e00000;stroke:none;stroke-width:3.21998"
         d="m 196.77351,331.82081 c -31.07755,-0.43935 -59.77052,1.2133 -59.77052,1.2133 l -42.403698,219.10007 59.714148,-0.0128 12.71922,-67.71254 c 0,0 18.94959,1.91715 41.82842,-4.32102 28.17931,-7.68342 64.42658,-31.76772 64.3691,-69.97704 -0.0347,-23.0702 12.83312,-35.30793 -10.10978,-59.18121 -5.83315,-6.06969 -21.2141,-15.64099 -34.96553,-17.09562 -6.03013,-0.63787 -11.87984,-1.73745 -31.38136,-2.01314 z m -0.0256,48.53984 c 5.19828,0.0337 12.13103,1.8682 15.58226,5.85022 8.84694,10.20756 3.53377,22.26061 0.83133,28.14816 -11.36506,24.75989 -36.01542,19.7836 -36.01542,19.7836 l 10.09247,-53.36903 c 0,0 3.61798,-0.45109 9.50936,-0.41295 z"
         sodipodi:nodetypes="sccccssssssssccs" />
      <path
         id="rect2"
         style="display:inline;fill:#e00000;stroke-width:3.21998"
         d="m 254.22484,496.43796 c 0,0 64.45953,22.27432 66.8621,-11.06299 0.82162,-11.40055 -16.64076,-19.31836 -31.23046,-28.63976 -9.02209,-5.76424 -14.76438,-13.37063 -17.63078,-16.41225 -17.84702,-18.938 -6.79773,-43.32584 -5.37397,-50.78581 C 282.14336,309.41468 398.59185,332.232 398.59185,332.232 l -10.52767,52.51574 c -9.9387,-3.32287 -51.82371,-14.87794 -59.01113,7.51583 -6.29295,19.60689 28.13457,24.78536 46.53618,48.95457 11.47416,15.07051 13.42432,39.17612 10.25323,49.98831 -5.86476,19.99677 -21.52617,37.16461 -35.96692,46.98781 -42.30928,28.78051 -106.36569,13.74344 -106.36569,13.74344 z"
         sodipodi:nodetypes="cssssccsssscc" />
      <path
         id="rect3"
         style="display:inline;fill:#e00000;stroke-width:3.21998"
         d="m 478.42297,331.48699 c -22.15539,0 -33.94702,0.28775 -67.37439,2.01575 l -41.15833,217.64815 c 0,0 75.37448,2.7832 98.36947,-0.92801 44.83108,-7.23538 67.34609,-29.45318 75.51342,-51.30557 18.32822,-49.03871 -17.07524,-63.49023 -17.07524,-63.49023 0,0 39.39453,-15.81221 37.36094,-59.8402 -1.7463,-37.80821 -42.36632,-44.09989 -85.63587,-44.09989 z m -3.87091,48.76554 c 9.40202,-0.13677 20.29531,0.29245 23.05883,6.96883 3.76445,9.09451 0.66667,15.12619 -1.86263,18.43358 -12.04508,15.75052 -41.10877,12.49101 -41.10877,12.49101 l 6.8002,-37.49039 c 0,0 5.79967,-0.29668 13.11237,-0.40303 z m -14.06699,81.96328 c 9.40202,-0.13675 19.42907,1.22254 22.58891,7.72073 4.42235,9.09451 1.03307,16.32007 -1.20065,19.83359 -7.74626,12.18223 -23.13736,13.85972 -33.64518,13.4794 -3.61946,-0.131 -7.73057,0.0286 -10.09925,-0.60268 l 7.45809,-39.65204 c 0,0 7.58539,-0.67262 14.89808,-0.779 z"
         sodipodi:nodetypes="sccsscsssssccssscsccs" />
      <path
         id="rect4"
         style="display:inline;fill:#e00000;stroke-width:3.21998"
         d="m 734.60115,333.58063 -63.0563,-0.0302 -98.27049,125.34205 -0.0405,40.78545 h 82.60369 l -9.76161,51.49251 h 46.99788 l 10.16556,-51.49251 h 31.04488 V 454.6905 l -22.66591,0.0851 z m -55.87528,47.79958 -13.69056,74.66971 -43.98205,-0.0664 z"
         sodipodi:nodetypes="cccccccccccccccc" />
      <path
         id="path4"
         style="display:inline;fill:#e00000;fill-opacity:1;stroke-width:3.89516"
         d="m 839.7094,330.61621 c -40.66706,-0.68197 -77.69701,24.42659 -97.50482,76.2786 -13.8271,36.19597 -19.93716,81.47484 -7.34969,112.26651 8.02053,19.61994 25.88942,33.49984 48.43187,35.04762 44.8155,3.07706 86.14883,-16.84314 108.78633,-76.10258 12.36314,-32.36366 18.8824,-77.68054 8.62792,-108.77457 -6.59269,-19.9906 -20.66433,-32.62089 -42.76405,-37.06221 -5.88333,-1.18236 -12.41798,-1.55593 -18.22756,-1.65337 z m -6.43569,40.85105 c 1.18865,10e-4 1.52764,0.11466 2.74425,0.2041 28.02094,2.06119 20.47633,55.6863 8.21543,94.70965 -9.09224,28.9383 -27.11779,51.81448 -50.09665,45.65731 -22.25308,-5.96269 -16.22247,-57.30388 -4.1572,-93.89866 10.21264,-30.97564 25.4644,-46.68883 43.29417,-46.6724 z"
         sodipodi:nodetypes="ssssssssscssss" />
    </g>
  </g>
</svg>
