<?xml version="1.0" encoding="UTF-8"?>
<!-- Created with Inkscape (http://www.inkscape.org/) -->
<svg width="1440" height="1440" version="1.1" viewBox="0 0 381 381" xmlns="http://www.w3.org/2000/svg">
 <path d="m186.64 18.38c-0.12687 9.6e-4 -0.25959 0.009638-0.39791 0.026872-2.2485 0.27988-3.6937 1.7485-4.0881 3.9057-0.26375 1.4349 0.01416 2.9702 0.0584 4.4597 0.36669 12.567 0.82196 25.132 1.0588 37.701 0.08805 4.6546-0.36918 9.3175-0.50643 13.98-0.07855 2.6748 1.5015 4.4048 4.2313 4.8364 2.8414 0.44938 3.576-0.053334 4.4772-3.359 2.3486-8.6138 3.5512-17.392 3.7166-28.341-0.24929-2.64-0.34944-7.3399-1.2036-11.899-1.1464-6.1164-2.7912-12.147-4.4126-18.163-0.38214-1.415-1.0306-3.1615-2.9337-3.1471zm85.741 24.409c-0.8938 0.68544-1.5893 1.1832-2.2474 1.7281-13.465 11.171-21.915 25.75-28.292 41.724-1.0104 2.5305-2.0032 5.0857-2.7316 7.7055-0.92149 3.3044 0.47956 4.6842 3.6835 3.5109 1.5536-0.56844 3.0974-1.7324 4.1305-3.0355 2.0716-2.6115 3.8475-5.4678 5.6446-8.2868 6.4819-10.165 12.939-20.345 19.368-30.544 2.559-4.0597 2.361-8.2556 0.44442-12.802zm-163.06 3.0313c-0.64678-0.032831-1.2396 0.33714-1.8919 1.0227-2.2721 2.3908-2.4752 5.6433-0.478 8.4553 0.91529 1.289 1.9269 2.5195 2.7326 3.8747 5.3442 8.99 10.7 17.974 15.935 27.027 2.3089 3.9948 5.3986 6.36 10.612 6.057-0.17156-1.4341-0.22799-2.5676-0.45165-3.6685-3.4102-16.842-12.078-30.566-24.797-41.918-0.62182-0.5549-1.1578-0.82402-1.6609-0.84956zm73.462 36.903c-2.4152 0.29021-4.4533 1.1946-6.5526 1.9193-3.2172 1.1092-6.4299 2.2908-9.7302 3.0887-5.5504 1.3415-11.236 2.1539-16.745 3.636-14.12 3.7984-27.2 9.6942-37.755 20.173-2.4792 2.4606-4.5914 5.2894-6.873 7.9489 0.16578 0.15709 0.33156 0.31502 0.49816 0.47335 9.5052-7.0826 19.673-12.833 31.05-15.976 0.17281 0.44689 0.11648 0.30086 0.28888 0.74776-11.507 6.5352-20.554 15.533-27.081 27.04-5.3938 9.5051-8.727 19.746-11.046 30.386-3.7004 16.975-3.3355 33.626 2.5172 50.189 1.3742 3.8894 3.0941 7.6956 5.1124 11.389 0.85287 1.5606 11.964 0.38147 9.5348-5.6911-1.8579-4.894-5.837-16.463-6.8564-21.962-1.0232-5.519-1.3743-11.159-1.1229-16.766 1.6247-36.226 19.663-60.495 49.774-76.333 9.778-5.1433 20.137-5.4778 30.593-4.9966 25.815 1.189 46.445 13.219 63.287 32.043 16.7 18.666 21.894 40.752 17.188 65.145-2.3271 12.064-7.0056 23.334-14.186 33.231-5.6588 5.6402-1.8856 6.1627 2.7326 5.8064 5.4136-0.41755 7.8613-2.0449 9.3364-3.8706 2.3908-2.9604 11.824-21.299 13.818-31.769 3.8104-20.004 0.2749-39.196-8.6424-56.97-11.284-22.491-30.249-36.862-53.693-45.431-11.334-4.1428-23.16-6.0087-35.119-7.1531-1.0798-0.10377-2.1562-0.24918-3.6783-0.42736 1.3192-2.3101 2.3335-4.0901 3.3497-5.8694zm-131.2 19.028c-0.22433-0.01225-0.44163-0.00682-0.6351 0.06408-1.2303 0.45268-2.9804 0.68016-3.5083 1.588-0.92067 1.5796 0.33176 2.9498 1.725 3.9217 0.36091 0.25177 0.70724 0.52658 1.0785 0.76223 11.206 7.1185 22.482 14.129 33.577 21.417 3.0559 2.0075 6.0236 2.299 9.2325 1.3002 1.2985-0.40473 3.2303-1.4077 3.346-2.3296 0.1509-1.2125-0.87478-3.0797-1.9678-3.8561-7.7386-5.4959-15.49-10.995-23.508-16.067-5.6493-3.5731-11.732-6.4532-18.664-6.7582-0.21973 0-0.45108-0.03012-0.67541-0.04237zm268.96 2.3451c-0.33728 8.3e-4 -0.67593 0.02583-1.0118 0.07699-0.76398 0.11617-1.515 0.43874-2.2272 0.76533-13.394 6.1338-26.035 13.577-38.094 22.022-2.7318 1.9133-2.7939 5.7275 0.08423 7.5432 1.3424 0.84708 3.0704 1.0826 4.3801 1.5146 1.8554-0.37207 3.4094-0.43067 4.748-0.99787 4.3631-1.8513 8.865-3.525 12.918-5.9314 7.329-4.3516 14.41-9.1267 21.517-13.844 2.7335-1.8153 4.0663-5.9404 3.0303-8.3535-0.69706-1.626-2.9839-2.801-5.3449-2.7952zm-132.63 5.503c-1.4573 0.0339-2.9549 0.40039-4.317 0.9064-2.017 0.75944-2.7827 2.1909-2.5694 4.532 0.41051 4.5206 0.87643 9.1322 0.46922 13.615-1.3295 14.279-2.9369 28.535-4.686 42.765-0.59449 4.777-0.49361 9.1684 2.2014 13.344 1.2964 2.0162 2.6988 3.1188 5.2958 2.989 4.4371-0.23688 13.37-0.18407 13.37-0.2465 1.9236 0 3.8498-0.0125 5.7717 0.00982 2.0166 0.02109 4.0245 0.07442 6.0415 0.11782 5.751 0.13974 6.7467-0.70001 7.6698-6.5366 0.10005-0.60523 0.09984-1.2311 0.20774-1.8355 0.38695-2.0931-0.4008-2.8161-2.5456-2.6639-7.8672 0.54032-15.719 0.89565-23.587 1.4025-4.3913 0.27988-4.3913 0.34478-4.132-3.9171 0.06738-1.2183 0.14035-2.4386 0.22634-3.6561 1.5544-18.847 3.1162-37.672 4.6276-56.515 0.29269-3.4855-0.52566-4.3729-4.0442-4.3108zm24.923 12.732c-1.2789 0.00535-2.6167 0.68097-3.7672 2.0014-3.6231 4.1585-3.5355 13.61 0.15089 17.661 2.287 2.5119 5.6206 2.449 7.2404-0.51728 1.3899-2.5483 1.9327-5.0027 1.9368-8.1277 0.00413-3.0534-0.47946-5.9305-1.7978-8.4176-0.94-1.7517-2.3137-2.6064-3.7631-2.6004zm-51.935 0.02946c-1.3969 0.00243-2.839 0.80026-4.0034 2.327-3.2287 4.2238-3.1304 12.918 0.20206 17.047 2.1369 2.6611 5.428 2.8649 7.2404-0.03721 1.566-2.4991 2.1724-5.8449 2.2278-8.9757 0.05788-3.2788-0.47945-5.4538-1.9363-7.9153-0.98227-1.6551-2.3337-2.4483-3.7305-2.4458zm-116.23 54.215c-3.8254-0.00575-7.6535 0.03401-11.48 0.0646-0.73463 0.00496-1.5845 0.30892-2.1782 0.74672-4.841 3.5731-7.1983 11.652-5.1284 17.404 0.24722 0.01488 0.53526 0.11193 0.76223 0.03462 9.5295-3.2643 19.472-3.7403 29.388-4.1227 10.193-0.39316 20.402-0.42168 30.605-0.60565 2.7054-0.04878 4.2321-1.5003 3.5202-3.853-0.42003-1.3895-1.461-3.0136-2.6851-3.6535-2.6888-1.4068-5.5877-2.6627-8.5473-3.2654-11.327-2.3059-22.781-2.7319-34.257-2.7492zm309.37 0.89504c-0.28148 1e-4 -0.59976 0.00894-0.95808 0.02222-19.891 0.7367-39.783 1.4593-59.675 2.1704-3.2362 0.11575-4.6483 1.4093-3.9331 4.5331 0.36174 1.5838 1.6631 3.4982 3.067 4.1853 3.0373 1.4866 6.3465 2.8593 9.6666 3.2479 10.555 1.2361 41.339 2.121 46.092 2.2707 2.0013 0.06242 3.18-0.61775 3.7641-2.4562 1.1687-3.6736 2.4667-7.3134 3.4473-11.037 0.65799-2.4996 0.4991-2.9375-1.4712-2.9368zm-118.24 2.6742c-0.67725 0.05111-1.4279 0.56653-1.9404 1.6624-0.46095 0.98516-0.97162 2.0268-1.4785 3.052-4.8882 9.8508-12.256 16.798-23.149 19.365-9.6461 2.2853-19.402 2.4187-29.205 0.85266-12.539-1.9955-21.54-8.1335-25.401-20.811-0.65898-2.1634-3.9096-1.1214-3.2763 1.111 1.8231 7.5423 5.9763 13.57 12.557 17.737 8.5324 5.4268 18.112 6.6253 27.963 6.505 1.6656 0 3.3225 0.06459 4.9832-0.00982 9.6688-0.43202 18.956-2.1148 26.908-8.2321 6.2152-4.7695 10.485-10.983 13.369-18.158 0.72295-1.9547-0.2014-3.1589-1.3302-3.0737zm-172.12 48.061c-10.121-0.1204-20.223 1.3079-30.343 2.8195-4.5066 0.67509-5.4733 2.7931-5.4575 6.7846 0.11741 28.894-0.53712 105.14-0.73846 114.37-0.0864 3.8803 1.1831 4.1181 5.81 4.8684 4.6 0.74579 9.4549 0.38579 13.687-0.10749 6.1408-0.71561 7.6445-0.88905 7.5597-5.6503-0.17694-10.608 0.1438-21.23 0.05736-31.84-0.021919-2.676 2.016-4.9278 4.6871-5.0989 3.5756-0.22945 7.1732-0.24062 10.71-0.81442 15.537-2.521 28.278-8.8581 34.222-23.901 1.3796-3.4987 2.291-7.0552 2.8768-10.653 2.891 5.5199 7.6195 9.9994 13.909 13.826 10.293 6.2611 18.856 11.318 28.295 16.883 4.1564 2.4503 5.5596 5.2861 5.3749 9.9002-0.5267 13.188 2.1085 11.632-12.305 11.97-11.635 0.26912-11.54 1.5829-13.102-9.7255-0.18644-1.3547-1.1517-4.6174-4.9832-4.9155-6.7423-0.5238-12.199-1.0209-19.687-0.99529-2.848 9e-3 -5.0119 3.3465-4.6369 6.1696 0.47956 3.6116 0.88397 6.6939 1.4206 9.7539 2.8769 16.418 13.418 27.416 29.565 29.913 6.2024 0.96035 12.812 1.2216 18.979 0.24805 23.293-3.674 35.887-13.079 35.971-34.809 5.3078 13.187 15.596 22.407 30.524 25.643 7.4484 1.6074 15.481 1.4187 23.19 1.0061 27.101-1.4478 47.989-20.257 54.524-45.384-0.64162 13.106-1.2939 26.21-1.926 39.315-0.0546 1.1332-0.07385 2.2676-0.07545 3.423-6e-3 3.7996 3.1457 6.9172 6.9453 6.9164 16.931-5e-3 33.383-0.02355 49.835 0.02945 3.1585 0.0124 3.4933-1.7214 3.3817-4.1238-0.39233-8.3269-0.80377-16.653-1.0485-24.978-0.0904-2.9522-1.3091-4.0669-4.317-3.9842-7.2566 0.19721-14.533-0.0334-21.776 0.34158-4.6343 0.23565-6.3643 1.1637-5.7061-3.39 2.5557-17.711 5.1126-37.824 7.5215-55.559 1.344-9.9578 2.7117-19.91 4.1656-30.57-10.616-0.77845-20.006-1.4159-29.39-2.1952-2.8571-0.23854-3.99 0.9737-4.0855 3.5703-0.057 1.5962-0.19224 3.1891-0.26872 4.7832-0.63996 12.995-1.2709 25.992-1.9105 38.989-0.23358-1.5672-0.50063-3.1388-0.84129-4.7201-4.0154-18.63-18.85-28.529-40.439-28.756-3.7823 0.40762-7.6467 0.472-11.333 1.3038-6.694 1.5127-13.449 3.0391-19.887 5.3439-25.866 9.2575-41.745 24.084-41.254 50.724-3.2932-7.1433-8.858-13.032-17.904-17.055-8.8714-3.9427-15.577-8.0642-23.985-12.964-2.3651-1.3775-6.3815-4.8693-7.63-6.4994-3.6971-4.8274-3.5175-13.098 3.4034-15.674 10.145-3.7757 12.416-0.33123 15.56 9.6134 1.072 3.3908 2.761 4.7429 4.131 4.8483 6.3467 0.48824 12.742 0.63107 19.108 0.42685 1.7186-0.0555 3.3332-1.5208 3.6685-3.2076 2.5189-12.67-3.9821-24.806-16.157-29.971-13.919-5.9085-28.376-6.4522-42.366-1.0361-5.1379 1.9943-10.678 6.3994-13.067 11.13-0.57215 1.1348-1.0635 2.3851-1.5141 3.682-3.9448-8.8693-11.732-15.098-22.704-17.807-6.094-1.5041-12.173-2.1338-18.246-2.2061zm4.8891 28.466c0.8724 0.00237 1.831 0.02306 2.9626 0.07441 3.9555 0.17982 7.4109 2.6878 7.3716 5.9335-0.0806 6.5538 0.25746 9.4457 0.35915 16.002 0.045 3.1816-1.8436 6.5535-5.0343 7.1918-4.4946 0.89875-7.8749 0.53899-11.686 0.53899-15.469-6e-3 -12.93-0.10922-12.945-15.462-0.01781-12.913 1.6185-14.126 11.112-14.126 3.402 0 5.2428-0.15904 7.86-0.15192zm179.29 21.021c3.6016-0.0644 4.5847 2.6965 4.5847 7.2812 0 11.428 0.0802 20.973 0.13488 32.4 0.0178 3.0204-0.9958 4.7277-4.6876 4.6524v-0.00103c-7.0822-0.14594-14.168-0.14388-21.247-0.00259-3.6388 0.0682-4.7594-1.4751-4.687-4.5971 0.1352-5.7138 0.03721-11.429 0.03721-17.147 0-5.7138-0.04083-7.7034-0.04083-13.417 0-4.0456 2.0707-7.6985 8.7803-8.3587 6.8771-0.67634 10.043-0.6814 17.125-0.8108z" fill="#68008e" fill-rule="evenodd"/>
</svg>
