<?xml version="1.0" encoding="UTF-8"?>
<svg width="234.33078" height="150.82613" version="1.1" viewBox="0 0 234.33078 150.82612" xml:space="preserve" xmlns="http://www.w3.org/2000/svg" xmlns:cc="http://creativecommons.org/ns#" xmlns:dc="http://purl.org/dc/elements/1.1/" xmlns:rdf="http://www.w3.org/1999/02/22-rdf-syntax-ns#"><metadata><rdf:RDF><cc:Work rdf:about=""><dc:format>image/svg+xml</dc:format><dc:type rdf:resource="http://purl.org/dc/dcmitype/StillImage"/></cc:Work></rdf:RDF></metadata><g transform="matrix(1.3333333,0,0,-1.3333333,-11.338546,203.91733)"><g transform="scale(.1)" fill-rule="evenodd"><path d="m481.305 1200.88 330.777 36.5 152.836 292 152.842-292 328.5-36.5-223.56-257.775 45.62-314.808-303.402 141.433-301.117-141.433 36.5 314.808-218.996 257.775" fill="#ed1c24"/><path d="m716.301 784.008v388.472h129.734c93.258 0 130.25-63.71 130.25-128.47 0-71.549-46.89-123.252-119.308-123.252h-27.618v-136.75zm113.058 226.062h11.465c17.715 0 35.528 3.94 36.328 36.55 0.801 32.65-18.613 36.56-36.328 36.56h-11.465v-73.11" fill="#ffffff"/><path d="m997.461 1174.79-0.367-107.52 74.456-0.28v-282.982h113.06v282.982h74.2l-0.12 108.03-261.229-0.23" fill="#ffffff"/><g fill="#50595c"><path d="m85.0391 581.648h43.5199c31.308 0 46.875-14.148 46.875-41.859 0-26.137-15.918-41.859-44.223-41.859-4.07 0-8.668 0.39-13.801 0.98v-57.387h-32.3709zm32.3709-58.367h3.895c14.504 0 21.05 4.324 21.05 16.508s-6.546 16.508-21.05 16.508h-3.895v-33.016"/><path d="m195.758 552.16h32.816l21.645-110.637h-25.832l-3.774 22.348h-23.179l-4.192-22.348h-21.086zm21.086-68.738-7.399 44.535-7.961-44.535h15.36"/><path d="m253.633 552.16h36.863c21.789 0 34.215-11.637 34.215-30.566 0-13.035-5.586-22.188-16.34-26.383l16.762-53.688h-25.418l-12.289 48.415h-8.238v-48.415h-25.555zm25.691-44.687h4.192c10.894 0 15.918 2.949 15.918 12.105 0 9.152-5.024 12.098-15.918 12.098h-4.192v-24.203"/><path d="m347.246 531.059h-21.363v21.101h68.285v-21.101h-21.367v-89.536h-25.555v89.536"/><path d="m401.133 552.16h25.836v-110.637h-25.836v110.637"/><path d="m469.684 552.16c27.652 0 42.453-19.242 42.453-55.394 0-36.157-14.801-55.243-42.453-55.243h-29.883v110.637zm-4.329-90.461h2.653c13.265 0 17.035 10.551 17.035 35.067 0 24.515-3.77 35.222-17.035 35.222h-2.653v-70.289"/><path d="m518.59 496.918c0 38.328 12.848 57.57 38.683 57.57 25.832 0 38.821-19.242 38.821-57.57 0-38.324-12.989-57.41-38.821-57.41-25.835 0-38.683 19.086-38.683 57.41zm50.41 0c0 24.828-1.254 36.777-11.586 36.777-10.336 0-11.734-11.949-11.734-36.777 0-24.824 1.398-36.617 11.734-36.617 10.332 0 11.586 11.793 11.586 36.617"/><path d="m634.645 555.02h27.007c30.606 0 45.008-22.161 45.008-56.215 0-33.082-11.773-59.805-41.961-59.805h-30.054zm24.929-95.489h2.77c17.449 0 17.449 25.094 17.449 40.414 0 13.36-1.66 34.543-18.141 34.543h-2.078v-74.957"/><path d="m748.359 555.727c28.496 0 37.239-29.735 37.239-58.52 0-28.789-8.743-58.523-37.239-58.523-28.504 0-37.242 29.734-37.242 58.523 0 28.785 8.738 58.52 37.242 58.52zm0-96.164c11.157 0 11.157 15.5 11.157 37.644 0 22.141 0 37.641-11.157 37.641-11.16 0-11.16-15.5-11.16-37.641 0-22.144 0-37.644 11.16-37.644"/><path d="m805.891 476.645c3.496-9.493 7.257-16.137 16.535-16.137 5.512 0 9.949 4.113 9.949 9.492 0 22.934-42.484 10.281-42.484 53.777 0 16.922 14.386 31.95 30.922 31.95 16.128 0 28.23-10.754 32.398-24.836l-19.223-9.485c-2.554 6.641-6.183 12.492-13.175 12.492-4.168 0-8.336-3.007-8.336-9.488 0-15.976 43.289-12.336 43.289-47.609 0-23.094-16.133-38.117-34.953-38.117-16.266 0-29.309 10.121-34.958 28.468l20.036 9.493"/><path d="m877.113 581.648h84.34v-27.281h-27.051v-113.469h-30.242v113.469h-27.047v27.281"/><path d="m965.961 553.512h36.029c18.15 0 32.13-9.805 32.13-31.949 0-11.864-6.58-21.825-16-25.938l16-54.727h-23.93l-11.963 48.711h-8.067v-48.711h-24.199zm29.086-45.871h4.707c9.136 0 15.056 3.324 15.056 12.339 0 11.708-7.66 12.657-15.732 12.657h-4.031v-24.996"/><path d="m1060.64 553.512h31.72l20.44-112.614h-24.47l-3.76 22.778h-22.18l-4.17-22.778h-20.03zm5.11-69.91h15.46l-6.99 45.867h-0.27l-8.2-45.867"/><path d="m1117.75 553.512h40.34c17.47 0 28.09-11.387 28.09-26.887 0-13.918-8.06-24.043-18.01-26.574v-0.313c12.5-3.64 19.76-12.972 19.76-27.84 0-18.98-12.37-31-31.32-31h-38.86zm24.2-91.739h8.88c5.24 0 12.1 2.692 12.1 14.239 0 8.383-4.31 13.918-12.1 13.918h-8.88zm0 47.137h7.94c8.73 0 12.09 5.535 12.09 12.176 0 10.758-6.05 12.496-11.56 12.496h-8.47v-24.672"/><path d="m1209.97 553.512h31.73l20.43-112.614h-24.47l-3.76 22.778h-22.18l-4.17-22.778h-20.03zm5.11-69.91h15.46l-6.99 45.867h-0.27l-8.2-45.867"/><path d="m1267.09 553.512h24.19v-92.688h32.81v-19.926h-57v112.614"/><path d="m1331.74 553.512h24.2v-43.653h18.96v43.653h24.2v-112.614h-24.2v46.184h-18.96v-46.184h-24.2v112.614"/><path d="m1426.49 553.512h31.72l20.44-112.614h-24.47l-3.76 22.778h-22.19l-4.16-22.778h-20.03zm5.1-69.91h15.46l-6.98 45.867h-0.27l-8.21-45.867"/><path d="m1483.6 553.512h26.22c29.71 0 43.69-21.512 43.69-54.567 0-32.109-11.43-58.047-40.73-58.047h-29.18zm24.2-92.688h2.69c16.94 0 16.94 24.36 16.94 39.227 0 12.972-1.61 33.531-17.61 33.531h-2.02v-72.758"/><path d="m1593.16 555.727c28.5 0 37.24-29.735 37.24-58.52 0-28.789-8.74-58.523-37.24-58.523s-37.24 29.734-37.24 58.523c0 28.785 8.74 58.52 37.24 58.52zm0-96.164c11.16 0 11.16 15.5 11.16 37.644 0 22.141 0 37.641-11.16 37.641s-11.16-15.5-11.16-37.641c0-22.144 0-37.644 11.16-37.644"/><path d="m1637.92 553.512h36.03c18.15 0 32.14-9.805 32.14-31.949 0-11.864-6.59-21.825-16-25.938l16-54.727h-23.93l-11.97 48.711h-8.07v-48.711h-24.2zm24.2-45.871h4.71c9.14 0 15.06 3.324 15.06 12.339 0 11.708-7.67 12.657-15.73 12.657h-4.04v-24.996"/><path d="m1712.66 553.512h60.22v-21.824h-36.02v-22.778h24.19v-21.828h-24.19v-23.406h36.02v-22.778h-60.22v112.614"/><path d="m1792.64 476.645c3.5-9.493 7.27-16.137 16.54-16.137 5.51 0 9.95 4.113 9.95 9.492 0 22.934-42.48 10.281-42.48 53.777 0 16.922 14.38 31.95 30.92 31.95 16.13 0 28.23-10.754 32.39-24.836l-19.22-9.485c-2.55 6.641-6.18 12.492-13.17 12.492-4.17 0-8.34-3.007-8.34-9.488 0-15.976 43.29-12.336 43.29-47.609 0-23.094-16.13-38.117-34.95-38.117-16.27 0-29.31 10.121-34.96 28.468l20.03 9.493"/></g><path d="m377.09 404.008h1173.37v-5.824h-1173.37v5.824" fill="#ed1c24"/></g></g></svg>
