<?xml version="1.0" encoding="UTF-8" standalone="no"?>
<!-- Created with Inkscape (http://www.inkscape.org/) -->

<svg
   xmlns:dc="http://purl.org/dc/elements/1.1/"
   xmlns:cc="http://creativecommons.org/ns#"
   xmlns:rdf="http://www.w3.org/1999/02/22-rdf-syntax-ns#"
   xmlns:svg="http://www.w3.org/2000/svg"
   xmlns="http://www.w3.org/2000/svg"
   version="1.1"
   width="150"
   height="138"
   id="svg2985">
  <metadata
     id="metadata2991">
    <rdf:RDF>
      <cc:Work
         rdf:about="">
        <dc:format>image/svg+xml</dc:format>
        <dc:type
           rdf:resource="http://purl.org/dc/dcmitype/StillImage" />
        <dc:title></dc:title>
      </cc:Work>
    </rdf:RDF>
  </metadata>
  <defs
     id="defs2989" />
  <path
     d="M 49.406712,132.03245 C 42.898862,130.64185 38.586541,128.5116 29.031618,121.9673 15.469919,112.67872 10.673042,106.52082 7.495236,94.320401 2.9517282,76.876697 8.271727,58.051144 22.205034,42.267741 27.632726,36.119348 27.941291,35.522427 26.052958,34.823887 22.032632,33.336672 24.231753,30.326864 33.843842,24.160967 57.526634,8.9690886 69.927149,5.2246831 92.169506,6.5492017 110.42857,7.6365176 118.08974,10.844338 128.63338,21.817035 c 6.5482,6.814662 13.16155,19.451766 14.01536,26.781213 0.7213,6.191924 -1.77216,19.362631 -5.08305,26.849124 -6.30611,14.259244 -23.11318,33.813658 -36.87326,42.900698 -16.465573,10.87372 -37.799401,16.56615 -51.285718,13.68438 z M 79.5,112.15978 C 91.416477,107.83258 102.75393,97.949921 113.52543,82.500404 122.07558,70.23697 124.33781,64.480962 124.33368,55 124.32968,45.803916 122.2212,41.180222 114.1939,32.764432 106.3352,24.525407 96.720494,19.537205 84.898512,17.565701 80.004218,16.7495 67.680337,18.605466 62.356304,20.960539 58.43889,22.693397 58,23.232236 58,26.308911 c 0,4.323724 -2.621981,7.67834 -9.842889,12.593194 -17.313326,11.784179 -26.433556,30.619386 -23.234117,47.983369 1.406002,7.630648 2.968488,10.881767 7.799934,16.229596 4.065666,4.50021 10.307963,8.45305 16.563111,10.48835 6.36712,2.07173 22.679522,1.29231 30.213961,-1.44364 z m -19.034718,-5.1113 C 56.788987,105.55833 55.765683,103.12035 54.462372,92.746772 52.785214,79.397603 51.286611,70.762593 48.518856,58.5 c -2.4247,-10.74268 -2.192219,-13.071443 1.72207,-17.25 2.60686,-2.782858 8.571702,-3.032061 11.711871,-0.489306 1.620602,1.312284 2.421755,3.540715 3.14575,8.75 1.138966,8.195081 3.215898,18.137084 3.940242,18.861429 0.538392,0.538391 4.398226,-6.27675 11.678844,-20.620826 C 85.657153,38.019589 87.773846,36 93.033945,36 c 3.638543,0 7.977745,2.885252 7.954185,5.288955 C 100.9223,48.00577 94.351754,61.828898 83.016046,79.098651 78.607221,85.815419 75,91.74722 75,92.280432 c 0,0.533212 -1.198272,3.639581 -2.662826,6.903043 -1.757901,3.917125 -3.610124,6.423435 -5.45034,7.375045 -3.129886,1.61853 -3.556909,1.65111 -6.421552,0.48996 z"
     id="path2995"
     style="fill:#006600;fill-opacity:1" />
</svg>
