<?xml version="1.0" standalone="no"?>
<!DOCTYPE svg PUBLIC "-//W3C//DTD SVG 20010904//EN"
 "http://www.w3.org/TR/2001/REC-SVG-20010904/DTD/svg10.dtd">
<svg version="1.0" xmlns="http://www.w3.org/2000/svg"
 width="1191.000000pt" height="359.000000pt" viewBox="0 0 1191.000000 359.000000"
 preserveAspectRatio="xMidYMid meet">

<g transform="translate(0.000000,359.000000) scale(0.100000,-0.100000)"
fill="#000000" stroke="none">
<path d="M10290 2689 c-177 -22 -324 -120 -389 -258 -38 -83 -42 -215 -9 -298
30 -74 65 -118 134 -168 l54 -39 -53 -21 c-257 -105 -370 -349 -286 -620 81
-262 380 -421 721 -385 285 31 474 175 543 414 13 44 16 85 13 165 -3 94 -7
114 -35 173 -52 110 -153 205 -269 252 l-54 22 54 38 c88 61 137 138 156 248
28 160 -54 320 -210 410 -96 56 -245 83 -370 67z m195 -253 c171 -79 164 -308
-10 -382 -56 -23 -159 -22 -215 3 -125 55 -166 213 -83 322 60 78 206 105 308
57z m66 -668 c122 -56 189 -150 197 -274 6 -101 -17 -170 -80 -240 -88 -96
-226 -139 -370 -115 -95 16 -147 40 -207 96 -70 66 -96 128 -96 235 0 96 19
149 75 213 74 85 167 118 320 114 89 -2 114 -7 161 -29z"/>
<path d="M4480 2071 l0 -611 125 0 125 0 0 155 0 155 79 0 79 0 101 -155 101
-155 141 0 c119 0 140 2 136 14 -3 8 -56 90 -117 181 -61 91 -113 172 -116
178 -2 7 16 23 42 36 62 33 129 110 154 178 26 70 36 190 21 268 -24 132 -112
249 -224 300 -108 50 -158 57 -409 62 l-238 5 0 -611z m484 367 c54 -17 111
-74 125 -123 17 -63 13 -164 -8 -211 -21 -45 -67 -85 -121 -103 -19 -7 -79
-15 -132 -18 l-98 -6 0 243 0 243 98 -6 c53 -3 115 -12 136 -19z"/>
<path d="M5580 2070 l0 -610 413 2 412 3 3 108 3 107 -291 0 -290 0 0 90 0 90
245 0 245 0 0 105 0 105 -245 0 -245 0 0 195 0 195 275 0 275 0 0 110 0 110
-400 0 -400 0 0 -610z"/>
<path d="M6640 2069 l0 -611 248 5 c277 5 314 11 448 77 63 31 96 56 151 114
121 126 169 263 160 451 -11 230 -122 403 -322 500 -125 61 -212 75 -476 75
l-209 0 0 -611z m474 376 c169 -36 263 -152 274 -336 9 -161 -35 -277 -132
-350 -66 -50 -131 -69 -258 -76 l-108 -6 0 392 0 391 78 0 c42 0 108 -7 146
-15z"/>
<path d="M7860 2070 l0 -610 415 0 415 0 0 110 0 110 -290 0 -290 0 0 90 0 90
245 0 245 0 0 105 0 105 -245 0 -245 0 0 195 0 195 280 0 280 0 0 110 0 110
-405 0 -405 0 0 -610z"/>
<path d="M8910 2555 l0 -115 150 0 150 0 0 -760 0 -760 135 0 135 0 0 875 0
875 -285 0 -285 0 0 -115z"/>
<path d="M1483 2349 c-331 -43 -540 -216 -589 -489 -49 -267 50 -534 238 -647
64 -39 197 -63 351 -63 l99 0 -60 66 c-68 74 -129 183 -164 294 -20 66 -23 95
-23 240 0 143 3 176 23 245 39 133 92 235 185 353 5 6 8 11 6 11 -2 -1 -32 -5
-66 -10z"/>
<path d="M4532 1223 c-28 -23 -35 -62 -19 -93 7 -14 42 -41 77 -60 57 -31 65
-39 68 -67 6 -60 -71 -84 -125 -39 -37 31 -64 20 -31 -11 74 -69 188 -40 188
47 0 43 -21 66 -96 103 -54 27 -69 47 -58 79 10 33 52 41 90 19 41 -24 59 -8
23 20 -31 24 -91 24 -117 2z"/>
<path d="M4761 1112 c5 -150 15 -175 80 -192 50 -14 100 0 129 37 18 23 20 41
20 154 0 108 -2 129 -15 129 -13 0 -15 -21 -15 -129 0 -128 0 -130 -26 -150
-30 -24 -80 -27 -106 -7 -29 22 -38 63 -38 177 0 93 -2 109 -16 109 -14 0 -16
-16 -13 -128z"/>
<path d="M5102 1223 c-28 -23 -35 -62 -19 -93 7 -14 42 -41 77 -60 57 -31 65
-39 68 -67 6 -60 -71 -84 -125 -39 -37 31 -64 20 -31 -11 71 -66 188 -40 188
42 0 44 -23 71 -89 105 -32 16 -61 37 -65 46 -17 45 32 84 79 62 14 -6 25 -15
25 -19 0 -5 7 -6 15 -3 23 9 18 22 -15 39 -39 20 -83 19 -108 -2z"/>
<path d="M5300 1225 c0 -11 12 -15 50 -15 l50 0 0 -145 c0 -122 2 -145 15
-145 13 0 15 23 15 145 l0 145 50 0 c38 0 50 4 50 15 0 12 -19 15 -115 15 -96
0 -115 -3 -115 -15z"/>
<path d="M5600 1080 l0 -160 95 0 c117 0 127 18 13 22 l-83 3 -3 43 -3 42 75
0 c97 0 100 18 4 22 l-73 3 -3 78 -3 77 86 0 c69 0 85 3 85 15 0 12 -17 15
-95 15 l-95 0 0 -160z"/>
<path d="M5870 1080 c0 -136 2 -160 15 -160 13 0 15 21 15 125 l0 126 101
-121 c55 -66 105 -122 110 -126 5 -3 9 61 9 155 0 135 -2 161 -15 161 -12 0
-15 -23 -17 -124 l-3 -125 -105 125 c-57 68 -106 124 -107 124 -2 0 -3 -72 -3
-160z"/>
<path d="M6180 1225 c0 -11 12 -15 50 -15 l50 0 0 -145 c0 -122 2 -145 15
-145 13 0 15 23 15 145 l0 145 50 0 c38 0 50 4 50 15 0 12 -19 15 -115 15 -96
0 -115 -3 -115 -15z"/>
<path d="M6483 1086 c-35 -84 -63 -155 -63 -159 0 -19 29 -4 34 18 6 24 9 25
91 25 81 0 86 -1 97 -25 12 -28 44 -36 34 -9 -26 67 -120 290 -125 296 -3 4
-34 -62 -68 -146z m103 1 l31 -82 -65 -3 c-35 -2 -66 -1 -68 1 -2 2 10 42 28
90 18 47 35 83 37 81 3 -2 19 -41 37 -87z"/>
<path d="M6750 1080 l0 -160 85 0 c78 0 88 2 110 25 32 31 34 91 5 123 -12 12
-25 22 -31 22 -6 0 -1 12 10 26 24 30 26 43 10 77 -16 34 -49 47 -124 47 l-65
0 0 -160z m155 110 c23 -26 13 -68 -21 -80 -14 -6 -43 -10 -65 -10 l-39 0 0
55 0 55 53 0 c41 0 58 -5 72 -20z m15 -130 c20 -20 26 -65 12 -86 -14 -22 -51
-34 -101 -34 l-51 0 0 70 0 70 60 0 c47 0 64 -4 80 -20z"/>
<path d="M7040 1080 c0 -136 2 -160 15 -160 13 0 15 24 15 160 0 136 -2 160
-15 160 -13 0 -15 -24 -15 -160z"/>
<path d="M7170 1080 l0 -160 90 0 c53 0 90 4 90 10 0 6 -32 10 -75 10 l-75 0
0 150 c0 127 -2 150 -15 150 -13 0 -15 -24 -15 -160z"/>
<path d="M7420 1080 c0 -136 2 -160 15 -160 13 0 15 24 15 160 0 136 -2 160
-15 160 -13 0 -15 -24 -15 -160z"/>
<path d="M7550 1081 l0 -161 62 0 c110 0 172 47 184 142 4 33 0 53 -18 88 -30
58 -72 82 -159 88 l-69 5 0 -162z m145 115 c46 -20 69 -58 69 -116 0 -81 -44
-126 -133 -137 l-51 -6 0 137 0 136 40 0 c22 0 56 -6 75 -14z"/>
<path d="M8160 1081 l0 -161 68 0 c117 0 182 54 182 152 0 107 -52 156 -175
165 l-75 6 0 -162z m186 86 c29 -31 34 -44 34 -84 0 -52 -25 -104 -59 -123
-12 -6 -45 -12 -73 -13 l-53 -2 -3 134 -3 133 62 -4 c56 -4 65 -8 95 -41z"/>
<path d="M8490 1080 l0 -160 100 0 c60 0 100 4 100 10 0 6 -35 10 -85 10 l-85
0 0 45 0 45 70 0 c40 0 70 4 70 10 0 6 -30 10 -70 10 l-70 0 0 80 0 80 80 0
c64 0 80 3 80 15 0 12 -17 15 -95 15 l-95 0 0 -160z"/>
<path d="M7897 1093 c-75 -185 -72 -173 -54 -173 8 0 18 11 21 25 6 24 9 25
95 25 86 0 89 -1 95 -25 4 -14 14 -25 22 -25 19 0 22 -9 -54 173 -31 75 -59
137 -62 137 -4 0 -32 -62 -63 -137z m98 2 c15 -38 29 -76 32 -82 4 -10 -13
-13 -67 -13 -54 0 -71 3 -67 13 50 135 63 165 68 159 3 -4 18 -38 34 -77z"/>
</g>
</svg>
