<svg xmlns:inkscape="http://www.inkscape.org/namespaces/inkscape" xmlns:sodipodi="http://sodipodi.sourceforge.net/DTD/sodipodi-0.dtd" xmlns="http://www.w3.org/2000/svg" xmlns:svg="http://www.w3.org/2000/svg" width="538.5445306382403" height="185.6856662929766" viewBox="0 0 254.00001 87.597938" version="1.1" id="svg1" inkscape:version="1.4.2 (f4327f4, 2025-05-13)" sodipodi:docname="Republicanos (Brazil) logo.svg">
  <sodipodi:namedview id="namedview1" pagecolor="#ffffff" bordercolor="#000000" borderopacity="0.25" inkscape:showpageshadow="2" inkscape:pageopacity="0.0" inkscape:pagecheckerboard="0" inkscape:deskcolor="#d1d1d1" inkscape:document-units="mm" inkscape:zoom="0.71891835" inkscape:cx="495.18836" inkscape:cy="-71.635395" inkscape:window-width="1920" inkscape:window-height="1009" inkscape:window-x="-8" inkscape:window-y="-8" inkscape:window-maximized="1" inkscape:current-layer="layer1"/>
  <defs id="defs1"/>
  <g inkscape:label="Layer 1" inkscape:groupmode="layer" id="layer1" transform="translate(-109.5375,-226.48334)">
    <path d="m 310.85168,251.36048 c 0,0 -5.08581,2.26831 -7.49179,-3.4634 0,0 3.77611,-3.39509 7.49179,3.4634" fill="#009d3d" id="path5" style="stroke-width:0.0525554"/>
    <path d="m 311.26004,270.54429 c 0,0 -0.78362,5.51307 -6.91737,4.50295 0,0 -0.86716,-5.00327 6.91737,-4.50295" fill="#009d3d" id="path6" style="stroke-width:0.0525554"/>
    <path d="m 314.73816,266.14121 c 0,0 -3.33044,4.46301 -8.22862,0.63644 0,0 1.63658,-4.80673 8.22862,-0.63644" fill="#009d3d" id="path7" style="stroke-width:0.0525554"/>
    <path d="m 302.85798,276.92033 c 0,0 -1.71855,5.29706 -7.58796,3.24846 0,0 0.006,-5.07793 7.58796,-3.24846" fill="#009d3d" id="path8" style="stroke-width:0.0525554"/>
    <path d="m 297.37224,264.32751 c 0,0 -1.53988,4.79358 -6.85271,2.9573 0,0 -0.01,-4.59125 6.85271,-2.9573" fill="#009d3d" id="path9" style="stroke-width:0.0525554"/>
    <path d="m 296.24546,254.09811 c 0,0 -3.33464,4.03678 -7.75773,0.21599 0,0 1.76062,-4.4383 7.75773,-0.21599" fill="#009d3d" id="path10" style="stroke-width:0.0525554"/>
    <path d="m 301.49522,248.29388 c 0,0 -4.53922,2.89371 -7.65734,-2.24307 0,0 3.12654,-3.78451 7.65734,2.24307" fill="#009d3d" id="path11" style="stroke-width:0.0525554"/>
    <path d="m 291.23481,259.79984 c 0,0 3.26318,-5.08 8.85193,-1.31387 0,0 -1.40534,5.32334 -8.85193,1.31387" fill="#009d3d" id="path12" style="stroke-width:0.0525554"/>
    <path d="m 299.14336,262.84492 c 0,0 3.27579,-4.50349 8.22073,-0.73684 0,0 -1.57823,4.82618 -8.22073,0.73684" fill="#009d3d" id="path13" style="stroke-width:0.0525554"/>
    <path d="m 313.244,251.05987 c 0,0 3.13178,-1.92511 5.20299,1.61714 0,0 -2.17684,2.54895 -5.20299,-1.61714" fill="#009d3d" id="path14" style="stroke-width:0.0525554"/>
    <path d="m 315.84656,237.76702 c 0,0 -5.52412,-0.70424 -4.60229,-6.85166 0,0 4.99014,-0.93916 4.60229,6.85166" fill="#009d3d" id="path15" style="stroke-width:0.0525554"/>
    <path d="m 314.20524,255.16446 c 0,0 -3.01194,3.80501 -7.18433,0.35001 0,0 1.54566,-4.14662 7.18433,-0.35001" fill="#009d3d" id="path16" style="stroke-width:0.0525554"/>
    <path d="m 323.86704,247.64219 c 0,0 -6.13796,-1.76848 -4.01366,-8.57548 0,0 5.82209,-0.18771 4.01366,8.57548" fill="#fdc300" id="path17" style="stroke-width:0.0525554"/>
    <path d="m 309.09422,279.76095 c 0,0 -1.46209,6.34082 -8.50243,4.55341 0,0 -0.51083,-5.91197 8.50243,-4.55341" fill="#009d3d" id="path18" style="stroke-width:0.0525554"/>
    <path d="m 304.52925,269.23093 c 0,0 -0.98856,7.08869 -8.87451,5.81002 0,0 -1.13101,-6.42596 8.87451,-5.81002" fill="#009d3d" id="path19" style="stroke-width:0.0525554"/>
    <path d="m 327.83867,233.60881 c 0,0 -3.87545,-2.87057 -0.57654,-7.12547 0,0 4.16817,1.40324 0.57654,7.12547" fill="#fdc300" id="path20" style="stroke-width:0.0525554"/>
    <path d="m 314.86272,259.57491 c 0,0 -2.14218,3.79609 -6.32611,1.31232 0,0 0.79305,-3.89489 6.32611,-1.31232" fill="#009d3d" id="path21" style="stroke-width:0.0525554"/>
    <path d="m 304.0573,253.38809 c 0,0 -3.24582,2.90946 -6.41335,-0.78413 0,0 1.99974,-3.43555 6.41335,0.78413" fill="#009d3d" id="path22" style="stroke-width:0.0525554"/>
    <path d="m 351.83603,244.02269 c 0,0 -0.94337,3.54488 -4.87662,2.40495 0,0 -0.17599,-3.34044 4.87662,-2.40495" fill="#005da9" id="path23" style="stroke-width:0.0525554"/>
    <path d="m 357.85521,264.30018 c 0,0 -1.83261,3.1775 -5.33387,1.05479 0,0 0.69795,-3.27158 5.33387,-1.05479" fill="#005da9" id="path24" style="stroke-width:0.0525554"/>
    <path d="m 340.96019,249.67977 c 0,0 -0.4278,4.87085 -5.85311,4.27433 0,0 -0.99592,-4.34633 5.85311,-4.27433" fill="#fdc300" id="path25" style="stroke-width:0.0525554"/>
    <path d="m 343.87282,259.81929 c 0,0 -2.29825,3.38669 -6.02182,0.73841 0,0 1.04377,-3.58324 6.02182,-0.73841" fill="#fdc300" id="path26" style="stroke-width:0.0525554"/>
    <path d="m 329.84103,233.45116 c 0,0 2.33084,2.15582 -0.13249,4.70423 0,0 -2.62725,-1.21612 0.13249,-4.70423" fill="#fdc300" id="path27" style="stroke-width:0.0525554"/>
    <path d="m 326.43595,238.35825 c 0,0 2.77967,1.53464 0.99909,4.59914 0,0 -2.84167,-0.55131 -0.99909,-4.59914" fill="#fdc300" id="path28" style="stroke-width:0.0525554"/>
    <path d="m 326.86377,245.74861 c 0,0 3.0377,2.01866 0.71002,5.35909 0,0 -3.20168,-0.89922 -0.71002,-5.35909" fill="#fdc300" id="path29" style="stroke-width:0.0525554"/>
    <path d="m 353.11365,238.26261 c 0,0 -0.23441,3.66102 -4.31429,3.30942 0,0 -0.82354,-3.24214 4.31429,-3.30942" fill="#005da9" id="path30" style="stroke-width:0.0525554"/>
    <path d="m 337.2319,257.90733 c 0,0 -0.67008,3.2679 -4.30113,2.4391 0,0 -0.33478,-3.02352 4.30113,-2.4391" fill="#fdc300" id="path31" style="stroke-width:0.0525554"/>
    <path d="m 307.15544,258.05607 c 0,0 -2.41492,2.45538 -5.09578,-0.3001 0,0 1.4064,-2.80804 5.09578,0.3001" fill="#009d3d" id="path32" style="stroke-width:0.0525554"/>
    <path d="m 323.88176,252.92191 c 0,0 -4.07305,0.71791 -4.77413,-3.84496 0,0 3.332,-1.76638 4.77413,3.84496" fill="#fdc300" id="path33" style="stroke-width:0.0525554"/>
    <path d="m 317.73278,244.64811 c 0,0 -3.93012,0.11461 -3.96164,-4.27381 0,0 3.37773,-1.20248 3.96164,4.27381" fill="#009d3d" id="path34" style="stroke-width:0.0525554"/>
    <path d="m 333.92512,230.08918 c 0,0 2.36866,2.80121 -0.81514,5.37538 0,0 -2.84115,-1.76535 0.81514,-5.37538" fill="#fdc300" id="path35" style="stroke-width:0.0525554"/>
    <path d="m 289.54568,271.66846 c 0,0 1.40375,-3.38931 5.15148,-1.73907 0,0 -0.26697,3.33413 -5.15148,1.73907" fill="#009d3d" id="path36" style="stroke-width:0.0525554"/>
    <path d="m 359.82972,245.87001 c 0,0 -2.34767,5.50046 -8.42832,2.74498 0,0 0.49349,-5.43108 8.42832,-2.74498" fill="#005da9" id="path37" style="stroke-width:0.0525554"/>
    <path d="m 357.50309,252.32698 c 0,0 -2.94101,4.46039 -7.84654,1.06846 0,0 1.29969,-4.69532 7.84654,-1.06846" fill="#005da9" id="path38" style="stroke-width:0.0525554"/>
    <path d="m 351.52857,274.32356 c 0,0 -4.89975,3.15911 -8.30481,-2.38654 0,0 3.3646,-4.11562 8.30481,2.38654" fill="#005da9" id="path39" style="stroke-width:0.0525554"/>
    <path d="m 352.802,257.71076 c 0,0 -2.54579,2.70873 -5.50573,-0.19917 0,0 1.44845,-3.06398 5.50573,0.19917" fill="#005da9" id="path40" style="stroke-width:0.0525554"/>
    <path d="m 337.5362,267.37415 c 0,0 -1.11364,3.54645 -5.04375,2.21679 0,0 -0.0294,-3.38931 5.04375,-2.21679" fill="#fdc300" id="path41" style="stroke-width:0.0525554"/>
    <path d="m 339.19065,263.83033 c 0,0 -2.04284,2.74759 -5.06004,0.40048 0,0 1.00223,-2.95783 5.06004,-0.40048" fill="#fdc300" id="path42" style="stroke-width:0.0525554"/>
    <path d="m 359.84074,277.98563 c 0,0 -4.1319,2.3014 -6.59885,-2.36604 0,0 2.93891,-3.15649 6.59885,2.36604" fill="#005da9" id="path43" style="stroke-width:0.0525554"/>
    <path d="m 336.03522,275.23015 c 0,0 -2.57522,3.96741 -6.93943,0.99591 0,0 1.12101,-4.16502 6.93943,-0.99591" fill="#fdc300" id="path44" style="stroke-width:0.0525554"/>
    <path d="m 361.2503,258.60158 c 0,0 -2.10013,4.23756 -6.77808,1.78952 0,0 0.63275,-4.26592 6.77808,-1.78952" fill="#005da9" id="path45" style="stroke-width:0.0525554"/>
    <path d="m 307.34991,277.79538 c 0,0 1.79739,-4.37526 6.63566,-2.262 0,0 -0.33164,4.30009 -6.63566,2.262" fill="#009d3d" id="path46" style="stroke-width:0.0525554"/>
    <path d="m 312.36633,272.25656 c 0,0 0.81933,-2.72607 3.8418,-1.74433 0,0 0.054,2.5952 -3.8418,1.74433" fill="#009d3d" id="path47" style="stroke-width:0.0525554"/>
    <path d="m 297.67023,267.74624 c 0,0 1.1557,-3.14596 4.63803,-1.77848 0,0 -0.12038,3.05401 -4.63803,1.77848" fill="#009d3d" id="path48" style="stroke-width:0.0525554"/>
    <path d="m 314.7455,263.71997 c 0,0 1.81424,-2.94574 5.05743,-0.84877 0,0 -0.74734,3.06503 -5.05743,0.84877" fill="#009d3d" id="path49" style="stroke-width:0.0525554"/>
    <path d="m 314.76495,257.85477 c 0,0 2.25411,-2.68558 5.19617,-0.10349 0,0 -1.20247,2.96254 -5.19617,0.10349" fill="#009d3d" id="path50" style="stroke-width:0.0525554"/>
    <path d="m 320.25439,237.20939 c 0,0 -4.08725,-1.29075 -2.54632,-5.81999 0,0 3.90856,-0.0274 2.54632,5.81999" fill="#fdc300" id="path51" style="stroke-width:0.0525554"/>
    <path d="m 324.64696,237.16263 c 0,0 -3.85809,-1.86677 -1.68019,-6.1264 0,0 3.87123,0.53659 1.68019,6.1264" fill="#fdc300" id="path52" style="stroke-width:0.0525554"/>
    <path d="m 311.70413,240.09154 c 0,0 -4.2817,-0.19029 -3.96426,-4.96386 0,0 3.76822,-1.0364 3.96426,4.96386" fill="#009d3d" id="path53" style="stroke-width:0.0525554"/>
    <path d="m 316.04783,248.24026 c 0,0 -6.11167,2.16687 -8.37997,-4.70685 0,0 4.69478,-3.59533 8.37997,4.70685" fill="#009d3d" id="path54" style="stroke-width:0.0525554"/>
    <path d="m 307.15282,240.9876 c 0,0 -3.16489,0.99646 -4.19918,-2.55945 0,0 2.46643,-1.75271 4.19918,2.55945" fill="#009d3d" id="path55" style="stroke-width:0.0525554"/>
    <path d="m 305.44162,245.57256 c 0,0 -3.16542,0.99645 -4.19972,-2.55945 0,0 2.46643,-1.7522 4.19972,2.55945" fill="#009d3d" id="path56" style="stroke-width:0.0525554"/>
    <path d="m 343.16226,282.58844 c 0,0 -2.4596,1.87466 -4.49139,-0.91605 0,0 1.60767,-2.31717 4.49139,0.91605" fill="#005da9" id="path57" style="stroke-width:0.0525554"/>
    <path d="m 360.43778,270.43971 c 0,0 -4.96019,5.36697 -10.82747,-0.30062 0,0 2.79751,-6.04807 10.82747,0.30062" fill="#005da9" id="path58" style="stroke-width:0.0525554"/>
    <path d="m 354.47903,281.45745 c 0,0 -5.69701,4.57705 -10.66507,-1.89305 0,0 3.6589,-5.56984 10.66507,1.89305" fill="#005da9" id="path59" style="stroke-width:0.0525554"/>
    <path d="m 333.65655,248.96606 c 0,0 1.11839,4.21338 -3.61055,5.35752 0,0 -2.15269,-3.3415 3.61055,-5.35752" fill="#fdc300" id="path60" style="stroke-width:0.0525554"/>
    <path d="m 338.22521,241.46639 c 0,0 1.11837,4.21337 -3.61057,5.35751 0,0 -2.15267,-3.34148 3.61057,-5.35751" fill="#fdc300" id="path61" style="stroke-width:0.0525554"/>
    <path d="m 331.6379,239.86607 c 0,0 3.06293,3.47445 -0.88977,6.807 0,0 -3.6321,-2.15479 0.88977,-6.807" fill="#fdc300" id="path62" style="stroke-width:0.0525554"/>
    <path d="m 340.91604,231.53814 c 0,0 1.64132,6.18315 -5.29968,7.86334 0,0 -3.15911,-4.90447 5.29968,-7.86334" fill="#fdc300" id="path63" style="stroke-width:0.0525554"/>
    <path d="m 330.49271,260.23029 2.36816,-3.21799 -3.94588,-0.47352 -1.53934,-3.60215 -2.31086,3.14072 -3.88385,-0.46618 1.55352,3.63317 -2.36919,3.21902 3.94639,0.47301 1.53935,3.60215 2.31088,-3.14072 3.88331,0.46564" fill="#fdc300" id="path64" style="stroke-width:0.0525554"/>
    <path d="m 335.07398,281.48951 c -2.72922,-4.43621 -5.60241,-2.07806 -5.60241,-2.07806 1.04952,2.84694 2.94887,3.48392 4.37523,3.51177 0.41415,-0.46618 0.82356,-0.9439 1.22718,-1.43371" fill="#fdc300" id="path65" style="stroke-width:0.0525554"/>
    <path d="m 336.48825,278.27101 c 0.22966,0.19446 0.45459,0.3579 0.67533,0.49875 0.46302,-0.64854 0.91446,-1.31651 1.3533,-2.00289 -1.5157,0.17877 -2.02863,1.50414 -2.02863,1.50414" fill="#fdc300" id="path66" style="stroke-width:0.0525554"/>
    <path d="m 335.11917,272.1136 c 1.63868,2.15005 3.40034,2.52634 4.78256,2.34451 0.41308,-0.7363 0.81198,-1.4931 1.193,-2.26934 -3.92064,-3.17856 -5.97556,-0.0751 -5.97556,-0.0751" fill="#fdc300" id="path67" style="stroke-width:0.0525554"/>
    <path d="m 339.53121,268.276 c 1.12521,0.57496 2.108,0.79358 2.95887,0.7878 0.4604,-1.14412 0.88347,-2.32715 1.26606,-3.55064 -3.79607,-0.31323 -4.22493,2.76284 -4.22493,2.76284" fill="#fdc300" id="path68" style="stroke-width:0.0525554"/>
    <path d="m 343.7966,263.24487 c 0.17599,0.11561 0.35004,0.22231 0.52136,0.32111 0.1744,-0.65537 0.33688,-1.32229 0.48719,-1.99973 -0.78202,0.78359 -1.00855,1.67862 -1.00855,1.67862" fill="#fdc300" id="path69" style="stroke-width:0.0525554"/>
    <path d="m 338.47748,255.91286 c 3.28208,2.26934 5.76639,1.35908 7.21795,0.28641 0.0779,-0.69004 0.14302,-1.39009 0.19506,-2.1017 -6.14531,-2.75916 -7.41293,1.81529 -7.41293,1.81529" fill="#fdc300" id="path70" style="stroke-width:0.0525554"/>
    <path d="m 346.02392,248.46784 c -2.29247,0.4052 -2.48221,2.47483 -2.48221,2.47483 0.94759,0.42939 1.76954,0.58232 2.47853,0.55972 0.0268,-0.99225 0.0288,-2.00393 0.004,-3.03455" fill="#fdc300" id="path71" style="stroke-width:0.0525554"/>
    <path d="m 345.50309,241.69081 c -7.81396,0.53133 -6.49061,5.73537 -6.49061,5.73537 4.00998,0.34056 5.8878,-1.53829 6.76284,-3.24371 -0.0747,-0.8183 -0.16506,-1.64972 -0.27223,-2.49166" fill="#fdc300" id="path72" style="stroke-width:0.0525554"/>
    <path d="m 344.45041,235.51029 c -4.27014,1.53409 -2.90684,4.67322 -2.90684,4.67322 1.69437,-0.12871 2.80277,-0.69792 3.52803,-1.41426 -0.17976,-1.06897 -0.3868,-2.15531 -0.62119,-3.25896" fill="#fdc300" id="path73" style="stroke-width:0.0525554"/>
    <path d="m 333.8468,282.9227 c 1.05533,0.0205 1.85207,-0.29169 1.85207,-0.29169 -0.20656,-0.42465 -0.41521,-0.80094 -0.62489,-1.1415 -0.40362,0.48981 -0.81303,0.96753 -1.22718,1.43319" fill="#005da9" id="path74" style="stroke-width:0.0525554"/>
    <path d="m 338.51688,276.76687 c -0.43884,0.68638 -0.89028,1.35435 -1.3533,2.00289 2.93942,1.87728 5.04061,-0.71528 5.04061,-0.71528 -1.62134,-1.11732 -2.81856,-1.39009 -3.68731,-1.28761" fill="#005da9" id="path75" style="stroke-width:0.0525554"/>
    <path d="m 341.09473,272.18877 c -0.38156,0.77676 -0.77992,1.5325 -1.193,2.26881 1.4726,-0.19387 2.51529,-1.02274 2.51529,-1.02274 -0.46248,-0.49559 -0.90289,-0.90605 -1.32229,-1.24607" fill="#005da9" id="path76" style="stroke-width:0.0525554"/>
    <path d="m 343.75562,265.51263 c -0.38207,1.22402 -0.80514,2.40809 -1.26606,3.55117 2.9657,-0.0179 4.30377,-2.77966 4.30377,-2.77966 -1.19932,-0.47036 -2.19893,-0.70213 -3.03771,-0.77151" fill="#005da9" id="path77" style="stroke-width:0.0525554"/>
    <path d="m 344.80515,261.56625 c -0.15037,0.67744 -0.31271,1.34384 -0.48719,1.99973 5.25554,3.02772 8.23072,-1.72645 8.23072,-1.72645 -4.36842,-2.28512 -6.62515,-1.39376 -7.74353,-0.27328" fill="#005da9" id="path78" style="stroke-width:0.0525554"/>
    <path d="m 345.89041,254.09811 c -0.052,0.71055 -0.11719,1.41112 -0.19446,2.10116 0.94651,-0.69951 1.45526,-1.46734 1.45526,-1.46734 -0.44198,-0.24491 -0.86138,-0.45461 -1.26082,-0.63382" fill="#005da9" id="path79" style="stroke-width:0.0525554"/>
    <path d="m 346.02392,248.46784 c 0.0252,1.03062 0.023,2.0423 -0.004,3.03455 2.60623,-0.084 3.6647,-2.56051 3.6647,-2.56051 -1.60032,-0.54132 -2.78387,-0.62907 -3.66102,-0.47404" fill="#005da9" id="path80" style="stroke-width:0.0525554"/>
    <path d="m 345.50309,241.69081 c 0.10727,0.84194 0.19765,1.67336 0.27223,2.49166 0.67796,-1.32021 0.7547,-2.53633 0.7547,-2.53633 -0.36106,0.006 -0.69898,0.023 -1.02693,0.0447" fill="#005da9" id="path81" style="stroke-width:0.0525554"/>
    <path d="m 345.0716,238.76925 c 1.56091,-1.54198 1.34333,-3.76717 1.34333,-3.76717 -0.76206,0.13507 -1.40848,0.30796 -1.96452,0.50821 0.23387,1.10365 0.44147,2.18999 0.62119,3.25896" fill="#005da9" id="path82" style="stroke-width:0.0525554"/>
    <path d="m 331.81605,267.24119 c -0.0572,-0.006 -0.0904,-0.0246 -0.0751,-0.0604 0.19764,-0.4299 -0.31271,-0.42831 -0.31271,-0.42831 0,-0.46092 -0.3763,-0.35582 -0.53028,-0.29432 -0.0139,0.0139 -0.0226,0.023 -0.0358,0.0367 -0.0139,0.0119 -0.031,0.0159 -0.0326,-0.008 0.10826,-0.55079 0.4257,-1.4169 0.29537,-1.44686 -0.3947,-0.16705 -0.62121,0.80936 -0.81724,1.13888 -0.0751,0.12613 -0.15494,0.21285 -0.23755,0.27592 -0.35266,0.59072 -0.75523,1.25134 -1.03429,1.70699 -0.0399,0.09 -0.0604,0.18652 -0.1166,0.27014 -1.06109,1.5693 -2.28774,3.02615 -2.93102,4.86296 -0.1162,0.33268 -0.3868,0.96229 -0.68217,1.43161 -0.0415,-0.0562 -0.0715,-0.0961 -0.0715,-0.0961 l -0.5182,0.26647 c -0.2591,-0.87875 -0.15811,-2.35923 -0.15811,-2.35923 -0.0699,-2.95519 -0.58283,-3.61844 -0.58283,-3.61844 -0.96388,-2.47485 -3.22429,-2.1411 -3.22429,-2.1411 -2.6919,-0.11461 -2.92418,3.53592 -2.92418,3.53592 0.0199,0.82827 -0.39417,2.71186 -0.39417,2.71186 -0.40206,1.86993 -1.28656,2.1716 -1.28656,2.1716 l 0.0578,0.29168 -0.57916,0.30693 c 0.0683,0.20233 0.36841,0.48824 0.36841,0.48824 l 0.20497,0.22442 c -0.23334,0.27433 -0.38891,0.51345 -0.49454,0.71947 -0.54027,0.34372 -1.1063,1.09842 -1.5136,2.66193 l 0.39995,0.29589 c -0.53818,0.87085 -0.86297,2.04757 -0.8288,2.22678 -1.0038,1.51097 -1.70334,3.24531 -2.53844,4.84824 -0.33478,0.83931 0.56341,0.72317 0.79254,1.01117 0.47195,0.59388 0.92182,-0.14401 1.12363,-0.87715 0.17441,-0.63329 0.27382,-0.63224 0.3474,-1.29286 0.0199,-0.174 0.23598,-0.31217 0.3311,-0.40468 0.59599,-0.58389 1.64708,-3.2884 2.40126,-4.30481 l 0.24543,0.18175 c -0.14083,0.76522 -0.50453,2.15374 -0.50453,2.15374 -0.23598,1.37747 -0.89711,3.06555 -0.89344,3.21848 0.004,0.15295 -0.66745,2.2231 -0.72317,2.30089 -0.0552,0.0779 -0.78886,3.08972 -0.78886,3.08972 -0.21389,1.41269 0.1313,2.69558 0.1313,2.69558 0,0 0.37103,0.34529 1.16988,0.17341 0.79885,-0.17182 1.50625,-0.16984 1.50625,-0.16984 0.53133,-0.0119 0.79043,0.34583 0.90762,0.60125 2.93207,-1.52097 6.41178,-3.62475 9.92144,-6.42649 -0.12673,-0.32374 -0.2097,-0.53185 -0.2097,-0.53185 -0.0274,-0.0667 -0.0536,-0.13567 -0.0799,-0.20392 -0.4567,-3.3993 -1.34331,-6.09013 -1.47155,-7.11496 -0.1015,-0.81147 -0.20813,-1.38222 -0.18552,-1.90883 0.6107,-0.51293 1.53934,-1.34384 1.65655,-1.75325 0.0588,-0.20602 -0.11779,-0.62435 -0.36737,-1.08315 1.21247,-2.24255 2.72132,-5.67864 3.64368,-7.36723 0.18493,-0.33846 0.43568,-0.68112 0.74208,-0.90292 0.19764,-0.14302 0.41675,-0.25489 0.6375,-0.36525 0.4772,-0.39312 0.36211,-0.63593 0.25961,-0.73946" fill="#fdc300" id="path83" style="stroke-width:0.0525554"/>
    <path d="m 327.19066,289.212 c -3.50966,2.80175 -6.98937,4.90553 -9.92144,6.4265 0.0604,0.1309 0.0836,0.23544 0.0862,0.24805 0.0558,0.40416 0.34056,1.15149 0.52873,1.61504 -0.0179,0.1166 -0.0316,0.20233 -0.0316,0.20233 l 0.16388,0.11938 c 0.0216,0.051 0.0348,0.0804 0.0348,0.0804 0.20286,0.49246 0.21653,2.68402 0.21653,2.68402 -0.14302,0.42412 0.13924,1.57718 0.13924,1.57718 -0.12295,0.18135 0.0348,0.38155 0.0348,0.38155 0.16864,0.12356 0.0715,0.31691 0.0715,0.31691 -0.27539,0.22336 -0.0278,0.44673 -0.0278,0.44673 0.10508,0.13765 0.0469,0.3684 0.0469,0.3684 -0.68849,1.04902 -0.55131,2.4018 -0.55131,2.4018 -0.1166,2.61568 2.41282,1.77794 2.41282,1.77794 0.93654,-0.26434 0.24754,-2.46538 0.24754,-2.46538 0.13189,-0.34739 -0.19029,-1.02797 -0.19029,-1.02797 0.0683,-0.33321 0.29904,-3.91224 0.3106,-3.96374 0.0119,-0.0514 -0.33688,-2.91052 -0.35212,-3.01248 -0.004,-0.0268 -0.0252,-0.18553 -0.053,-0.39785 0.0751,-0.2491 0.13288,-0.41991 0.13288,-0.41991 0.19347,0.0721 0.89187,-0.0211 0.89187,-0.0211 -0.0926,0.39731 0.658,1.94718 0.658,1.94718 0.20287,0.49192 0.21653,2.684 0.21653,2.684 -0.14242,0.42412 0.13984,1.5772 0.13984,1.5772 -0.12355,0.18135 0.0342,0.38156 0.0342,0.38156 0.16864,0.12295 0.0715,0.3169 0.0715,0.3169 -0.27539,0.22283 -0.0278,0.44671 -0.0278,0.44671 0.10507,0.13765 0.0473,0.36843 0.0473,0.36843 -0.689,1.04847 -0.55183,2.0013 -0.55183,2.0013 -0.1162,2.61569 2.41282,1.77797 2.41282,1.77797 0.93706,-0.26437 0.24754,-2.46592 0.24754,-2.46592 0.1319,-0.34685 -0.19029,-1.02746 -0.19029,-1.02746 0.0689,-0.33319 0.29904,-3.51228 0.31061,-3.56325 0.0119,-0.0514 -0.33689,-2.91106 -0.35161,-3.0125 -0.0159,-0.1015 -0.26434,-2.0076 -0.26434,-2.0076 l 0.37681,-0.22547 c 0.31376,-0.21127 0.004,-0.36946 0.0139,-0.45935 0.01,-0.0894 0.42729,-0.25226 0.5797,-0.28116 0.15195,-0.0294 1.17777,-0.32112 1.18039,-0.19387 0.004,0.12772 0.288,0.31217 0.45408,0.33373 0.16606,0.0217 0.5203,-0.1019 0.74839,-0.15812 0.22808,-0.0562 0.2386,-0.14619 0.56864,-0.20443 0.33005,-0.0594 0.68692,-0.0546 0.68692,-0.0546 0.52028,-0.0888 -0.24965,-1.91879 -0.24965,-1.91879 -0.21705,-0.79726 -0.94127,-2.67665 -1.30285,-3.60006" fill="#005da9" id="path84" style="stroke-width:0.0525554"/>
    <path d="m 109.5375,307.29005 v -23.76874 h 11.00138 c 2.51279,0 4.51604,0.64536 5.97615,1.96924 1.46004,1.29077 2.20733,2.98831 2.20733,5.05952 0,3.15805 -1.83372,5.63658 -4.92341,6.58731 l 7.33418,10.15267 h -5.67091 l -6.92666,-9.60925 h -4.1083 v 9.60925 z m 4.88976,-13.71803 h 5.84002 c 2.20733,0 3.53167,-1.01854 3.53167,-2.88583 0,-1.80003 -1.32434,-2.88634 -3.53167,-2.88634 h -5.84002" fill="#005da9" id="path85" style="stroke-width:0.0525554"/>
    <path d="m 133.03596,305.28663 c -1.7994,-1.62922 -2.71666,-3.80239 -2.71666,-6.48483 0,-2.51319 0.81524,-4.61805 2.44494,-6.31612 1.63026,-1.7317 3.76928,-2.58046 6.38391,-2.58046 2.47853,0 4.41415,0.88293 5.87413,2.61463 1.45999,1.7317 2.2068,3.83707 2.2068,6.34976 v 1.25607 h -12.15555 c 0.50926,2.30929 2.68243,3.53173 5.67022,3.53173 1.90145,0 3.70094,-0.50926 5.43318,-1.49415 v 3.83655 c -1.52832,1.15465 -3.66732,1.7317 -6.45172,1.7317 -2.64826,0 -4.88976,-0.8146 -6.68925,-2.44488 m 9.47365,-8.21653 c -0.1019,-1.86783 -1.42636,-3.39561 -3.56538,-3.39561 -2.17316,0 -3.63315,1.39168 -3.8707,3.39561" fill="#005da9" id="path86" style="stroke-width:0.0525554"/>
    <path d="m 165.09059,292.48568 c 1.52832,1.69756 2.27513,3.80293 2.27513,6.34977 0,2.51267 -0.74681,4.61804 -2.27513,6.34974 -1.49415,1.69756 -3.3956,2.54632 -5.70438,2.54632 -2.41071,0 -4.24437,-0.84876 -5.56877,-2.51267 v 8.86244 h -4.78779 v -23.7346 h 4.78779 v 2.07121 c 1.25661,-1.66391 3.12389,-2.51267 5.56877,-2.51267 2.30878,0 4.21023,0.84876 5.70438,2.58046 m -11.27315,4.14295 v 4.41415 c 0.78098,1.45998 2.34292,2.51267 4.21023,2.51267 1.32491,0 2.44488,-0.44147 3.29416,-1.35856 0.84879,-0.91656 1.29025,-2.03704 1.29025,-3.36144 0,-1.35805 -0.44146,-2.47905 -1.29025,-3.39561 -0.84928,-0.91658 -1.96925,-1.35805 -3.29416,-1.35805 -1.86731,0 -3.42925,1.08634 -4.21023,2.54684" fill="#005da9" id="path87" style="stroke-width:0.0525554"/>
    <path d="m 180.57554,290.34668 h 4.78782 v 16.94388 h -4.78782 v -2.03757 c -1.52778,1.66392 -3.39561,2.47852 -5.67073,2.47852 -3.93852,0 -6.17948,-2.64828 -6.17948,-6.99461 v -10.39022 h 4.7878 v 9.40586 c 0,2.6141 1.46001,3.59899 3.22534,3.59899 1.49415,0 3.02195,-0.95072 3.83707,-2.20733" fill="#005da9" id="path88" style="stroke-width:0.0525554"/>
    <path d="m 192.97024,305.21884 v 2.07121 h -4.78782 v -23.76874 h 4.78782 v 8.89606 c 1.32386,-1.6639 3.15752,-2.51215 5.56877,-2.51215 2.30877,0 4.21023,0.84825 5.70438,2.58046 1.52778,1.69756 2.27512,3.80293 2.27512,6.3156 0,2.54684 -0.74734,4.65169 -2.27512,6.38339 -1.49415,1.69808 -3.39561,2.54684 -5.70438,2.54684 -2.44488,0 -4.3127,-0.84876 -5.56877,-2.51267 m 7.50387,-3.02247 c 0.84929,-0.91656 1.29024,-2.03706 1.29024,-3.39509 0,-1.3244 -0.44095,-2.44488 -1.29024,-3.36144 -0.84878,-0.91658 -1.96926,-1.35856 -3.29418,-1.35856 -1.86677,0 -3.42925,1.05268 -4.20969,2.51319 v 4.41414 c 0.78044,1.45999 2.34292,2.54632 4.20969,2.54632 1.32492,0 2.4454,-0.44146 3.29418,-1.35856" fill="#005da9" id="path89" style="stroke-width:0.0525554"/>
    <path d="m 208.18294,303.04565 v -19.52434 h 4.78781 v 18.26776 c 0,1.12048 0.50926,1.69805 1.52778,1.69805 0.47564,0 0.88294,-0.1015 1.22244,-0.30534 v 3.93903 c -0.8146,0.40732 -1.83366,0.6107 -3.02193,0.6107 -2.61463,0 -4.5161,-1.29023 -4.5161,-4.68586" fill="#005da9" id="path90" style="stroke-width:0.0525554"/>
    <path d="m 219.72833,282.9784 c 1.5956,0 2.85218,1.25607 2.85218,2.88583 0,1.59611 -1.25658,2.85218 -2.85218,2.85218 -1.59662,0 -2.85217,-1.25607 -2.85217,-2.85218 0,-1.62976 1.25555,-2.88583 2.85217,-2.88583 m -2.37708,7.36828 h 4.78728 v 16.94388 h -4.78728 z m 0,16.94337" fill="#005da9" id="path91" style="stroke-width:0.0525554"/>
    <path d="m 226.79128,305.28663 c -1.79952,-1.66339 -2.71661,-3.83655 -2.71661,-6.51898 0,-2.68244 0.91709,-4.82144 2.71661,-6.41755 1.83366,-1.62974 4.00682,-2.44488 6.55312,-2.44488 1.86783,0 3.53173,0.37367 5.02588,1.12048 v 4.07462 c -1.4605,-0.67953 -2.92049,-1.01853 -4.3127,-1.01853 -1.49415,0 -2.75022,0.44147 -3.76874,1.3244 -0.98489,0.84877 -1.49415,2.00342 -1.49415,3.39561 0,1.39167 0.50926,2.54632 1.52832,3.42925 1.01852,0.88293 2.27459,1.3244 3.73457,1.3244 1.73172,0 3.26002,-0.37367 4.5839,-1.15464 v 4.07463 c -1.59559,0.84877 -3.36146,1.25607 -5.36487,1.25607 -2.51267,0 -4.68584,-0.8146 -6.48533,-2.44488" fill="#005da9" id="path92" style="stroke-width:0.0525554"/>
    <path d="m 257.96298,303.38518 v 3.49757 c -0.61173,0.47509 -1.46104,0.71264 -2.58152,0.71264 -1.93456,0 -3.19117,-0.71264 -3.83655,-2.17317 -1.49415,1.52832 -3.42926,2.30929 -5.83997,2.30929 -3.6668,0 -6.2478,-2.24096 -6.2478,-5.67021 0,-1.80003 0.64538,-3.19169 1.96926,-4.14295 1.32387,-0.95073 2.88635,-1.42582 4.72001,-1.42582 1.90145,0 3.53119,0.3395 4.88924,1.05268 v -0.50979 c 0,-2.139 -1.49364,-3.19169 -4.48141,-3.19169 -1.80003,0 -3.53173,0.47561 -5.12784,1.42636 v -4.00685 c 1.73222,-0.91709 3.80345,-1.35802 6.28195,-1.35802 2.41072,0 4.37998,0.57705 5.84051,1.76533 1.49361,1.18881 2.24096,2.81855 2.24096,4.88977 v 5.73853 c 0,0.84876 0.4073,1.29023 1.18827,1.29023 0.40784,0 0.74681,-0.0677 0.98489,-0.2039 m -6.92733,-2.7844 c -0.98489,-0.64485 -2.13902,-0.98436 -3.53122,-0.98436 -2.03704,0 -3.32727,0.81514 -3.32727,2.20679 0,1.49416 1.25607,2.20734 3.02193,2.20734 1.66339,0 2.95414,-0.57758 3.83656,-1.7317" fill="#005da9" id="path93" style="stroke-width:0.0525554"/>
    <path d="m 264.21079,307.29005 h -4.78729 v -16.9439 h 4.78729 v 2.03757 c 1.52778,-1.6639 3.3956,-2.4785 5.67021,-2.4785 3.93903,0 6.17999,2.64826 6.17999,6.99461 v 10.39022 h -4.78728 v -9.40587 c 0,-2.61409 -1.45999,-3.59898 -3.22534,-3.59898 -1.49415,0 -3.02298,0.95072 -3.83758,2.20733" fill="#005da9" id="path94" style="stroke-width:0.0525554"/>
    <path d="m 280.0694,292.48568 c 1.76587,-1.7317 4.00683,-2.58046 6.75707,-2.58046 2.75022,0 4.99118,0.84876 6.75704,2.58046 1.76587,1.7317 2.64828,3.83709 2.64828,6.31612 0,2.54632 -0.88241,4.65169 -2.64828,6.38339 -1.76586,1.69756 -4.00682,2.54632 -6.75704,2.54632 -2.75024,0 -4.9912,-0.84876 -6.75707,-2.54632 -1.76586,-1.7317 -2.64828,-3.83707 -2.64828,-6.38339 0,-2.51319 0.88242,-4.61856 2.64828,-6.31612 m 6.75707,11.06977 c 1.35803,0 2.47851,-0.44147 3.36144,-1.35856 0.88293,-0.91656 1.3244,-2.03704 1.3244,-3.39509 0,-1.35855 -0.44147,-2.47903 -1.3244,-3.36196 -0.88293,-0.91658 -2.00341,-1.35805 -3.36144,-1.35805 -1.35805,0 -2.47853,0.44147 -3.36146,1.35805 -0.88293,0.88293 -1.3244,2.00341 -1.3244,3.36196 0,1.35805 0.44147,2.47853 1.3244,3.39509 0.88293,0.91709 2.00341,1.35856 3.36146,1.35856" fill="#005da9" id="path95" style="stroke-width:0.0525554"/>
    <path d="m 297.01382,306.13592 v -4.24437 c 1.49415,0.98489 4.17658,1.9351 6.92733,1.9351 1.93511,0 2.91946,-0.47512 2.91946,-1.42584 0,-0.44199 -0.20338,-0.78098 -0.84825,-1.05269 -0.30586,-0.13567 -0.61174,-0.23755 -0.88345,-0.30534 l -1.25609,-0.30588 c -0.57651,-0.16983 -1.05268,-0.27118 -1.35802,-0.37314 -3.90435,-1.05322 -5.50098,-2.27512 -5.50098,-5.26344 0,-3.22637 2.81855,-5.1951 7.47076,-5.1951 2.54684,0 4.68584,0.50926 6.34974,1.56143 v 4.07567 c -2.03755,-1.18881 -4.07513,-1.76587 -6.14636,-1.76587 -1.80001,0 -2.71659,0.44147 -2.71659,1.35803 0,0.57707 0.44147,0.81514 0.95073,1.12048 0.37421,0.13567 1.05268,0.30588 1.46,0.44095 l 1.80001,0.37419 c 3.6668,0.84877 5.53411,2.4102 5.53411,5.36487 0,1.59506 -0.67849,2.85166 -2.07122,3.83707 -1.39166,0.98438 -3.22532,1.45947 -5.50046,1.45947 -3.02194,0 -5.39902,-0.54342 -7.13072,-1.59559" fill="#005da9" id="path96" style="stroke-width:0.0525554"/>
    <path d="m 336.19288,307.28164 v -16.38837 l -4.59544,2.12112 v -5.55932 l 5.27026,-2.66719 h 5.01273 v 22.49376" fill="#005da9" id="path97" style="stroke-width:0.0525554"/>
    <path d="m 353.6082,307.73151 c -2.08855,0 -3.88807,-0.57864 -5.43057,-1.70331 -1.54249,-1.12469 -2.66719,-2.5705 -3.40611,-4.30589 -0.73894,-1.76744 -1.09263,-3.66311 -1.09263,-5.68756 0,-4.08093 1.41375,-7.71198 4.49874,-9.99394 1.5425,-1.12469 3.34202,-1.70279 5.43057,-1.70279 2.08908,0 3.88857,0.5781 5.43107,1.70279 1.54252,1.12469 2.66719,2.57102 3.4056,4.33845 0.73946,1.73539 1.09263,3.63107 1.09263,5.65549 0,4.08094 -1.41374,7.71252 -4.49823,9.99345 -1.5425,1.12467 -3.34199,1.70331 -5.43107,1.70331 m 3.05294,-7.19799 c 0.73894,-1.25293 1.09263,-2.76337 1.09263,-4.49877 0,-1.73537 -0.35369,-3.24529 -1.09263,-4.49874 -0.70687,-1.25345 -1.73538,-1.89621 -3.05294,-1.89621 -1.31757,0 -2.31351,0.64276 -3.05243,1.89621 -0.73946,1.25345 -1.09263,2.76337 -1.09263,4.49874 0,1.7354 0.35317,3.24584 1.09263,4.49877 0.73892,1.25344 1.73486,1.89567 3.05243,1.89567 1.31756,0 2.34607,-0.64223 3.05294,-1.89567" fill="#005da9" id="path98" style="stroke-width:0.0525554"/>
  </g>
</svg>