<?xml version="1.0" encoding="UTF-8" standalone="no"?>
<!-- Created with Inkscape (http://www.inkscape.org/) -->

<svg
   version="1.1"
   id="svg120"
   xml:space="preserve"
   width="145.558"
   height="77.857002"
   viewBox="0 0 145.558 77.857003"
   sodipodi:docname="logo-uniao-brasil.svg"
   inkscape:version="1.1.1 (3bf5ae0d25, 2021-09-20)"
   xmlns:inkscape="http://www.inkscape.org/namespaces/inkscape"
   xmlns:sodipodi="http://sodipodi.sourceforge.net/DTD/sodipodi-0.dtd"
   xmlns="http://www.w3.org/2000/svg"
   xmlns:svg="http://www.w3.org/2000/svg"><defs
     id="defs124"><clipPath
       clipPathUnits="userSpaceOnUse"
       id="clipPath142"><path
         d="M 0,0 H 419.528 V 595.276 H 0 Z"
         id="path140" /></clipPath><clipPath
       clipPathUnits="userSpaceOnUse"
       id="clipPath168"><path
         d="M 0,0 H 419.528 V 595.276 H 0 Z"
         id="path166" /></clipPath><clipPath
       clipPathUnits="userSpaceOnUse"
       id="clipPath192"><path
         d="M 0,0 H 419.528 V 595.276 H 0 Z"
         id="path190" /></clipPath></defs><sodipodi:namedview
     id="namedview122"
     pagecolor="#ffffff"
     bordercolor="#666666"
     borderopacity="1.0"
     inkscape:pageshadow="2"
     inkscape:pageopacity="0.0"
     inkscape:pagecheckerboard="0"
     showgrid="false"
     width="145.558px"
     inkscape:zoom="3.1320223"
     inkscape:cx="146.86996"
     inkscape:cy="24.904038"
     inkscape:window-width="1366"
     inkscape:window-height="682"
     inkscape:window-x="0"
     inkscape:window-y="0"
     inkscape:window-maximized="1"
     inkscape:current-layer="g126"
     inkscape:showpageshadow="false" /><g
     id="g126"
     inkscape:groupmode="layer"
     inkscape:label="logo-uniao-brasil"
     transform="matrix(1.3333333,0,0,-1.3333333,0,793.70133)"><g
       id="g543"
       transform="matrix(0.35380983,0,0,0.35380983,-13.753416,453.62456)"><g
         id="g136"
         transform="matrix(2.4578705,0,0,2.4578705,-216.64122,-413.612)"><g
           id="g138"
           clip-path="url(#clipPath142)"><g
             id="g144"
             transform="translate(122.0108,279.7358)"><path
               d="m 0,0 v 0.001 c 2.145,1.301 3.553,3.561 3.553,6.072 0,4.152 -3.637,7.193 -8.621,7.193 h -12.695 v -28.107 h 12.954 c 5.188,0 9.119,3.449 9.119,8.004 C 4.31,-3.77 2.647,-1.255 0,0 m -10.02,7.237 h 3.604 c 1.619,0 2.62,-0.988 2.62,-2.447 0,-1.459 -0.999,-2.447 -2.62,-2.447 h -3.604 z m 3.899,-15.721 h -3.899 v 5.112 h 3.899 c 1.675,0 2.772,-1.051 2.772,-2.544 0,-1.516 -1.097,-2.568 -2.772,-2.568"
               style="fill:#254aa5;fill-opacity:1;fill-rule:nonzero;stroke:none"
               id="path146" /></g><g
             id="g148"
             transform="translate(159.9712,293.0025)"><path
               d="m 0,0 -9.914,-25.24 -4.015,7.355 c 2.775,1.662 4.462,4.489 4.462,7.938 0,5.875 -4.394,9.947 -10.453,9.947 h -12.183 v -28.107 h 7.743 v 8.599 h 2.807 l 4.562,-8.599 h 5.95 2.692 5.606 l 1.557,4.565 h 9.962 l 1.549,-4.565 h 8.527 L 7.57,0 Z m -20.823,-12.985 h -3.537 v 6.104 h 3.537 c 2.165,0 3.413,-1.286 3.413,-3.043 0,-1.757 -1.248,-3.061 -3.413,-3.061 m 21.523,-4.498 3.078,8.71 3.11,-8.71 z"
               style="fill:#254aa5;fill-opacity:1;fill-rule:nonzero;stroke:none"
               id="path150" /></g><g
             id="g152"
             transform="translate(190.4201,282.4002)"><path
               d="m 0,0 c -2.644,0.666 -4.765,1.194 -4.765,2.79 0,1.312 1.328,1.91 2.708,1.91 1.602,0 2.928,-0.834 2.928,-2.612 h 7.766 c 0,5.719 -3.864,9.178 -10.603,9.178 -6.626,0 -10.694,-3.171 -10.694,-8.706 0,-6.399 5.186,-7.644 9.249,-8.653 2.673,-0.649 4.862,-1.16 4.862,-2.923 0,-1.535 -1.549,-2.399 -3.169,-2.399 -1.767,0 -3.316,0.978 -3.316,2.986 h -7.988 c 0,-6.127 4.445,-9.764 11.325,-9.764 6.528,0 11.244,3.187 11.244,9.325 C 9.547,-2.449 4.139,-1.067 0,0"
               style="fill:#254aa5;fill-opacity:1;fill-rule:nonzero;stroke:none"
               id="path154" /></g></g></g><path
         d="m 278.70326,237.46561 h 19.28199 v 69.08337 h -19.28199 z"
         style="fill:#254aa5;fill-opacity:1;fill-rule:nonzero;stroke:none;stroke-width:2.45787"
         id="path156" /><g
         id="g158"
         transform="matrix(2.4578705,0,0,2.4578705,322.23239,254.8956)"><path
           d="M 0,0 V 21.016 H -7.845 V -7.091 H 10.004 V 0 Z"
           style="fill:#254aa5;fill-opacity:1;fill-rule:nonzero;stroke:none"
           id="path160" /></g><g
         id="g162"
         transform="matrix(2.4578705,0,0,2.4578705,-216.64122,-413.612)"><g
           id="g164"
           clip-path="url(#clipPath168)"><g
             id="g170"
             transform="translate(116.5182,294.3256)"><path
               d="M 0,0 C 7.165,0 12.269,4.669 12.269,11.584 V 28.818 H 4.356 V 11.729 C 4.356,8.981 2.586,7.206 0,7.206 c -2.586,0 -4.356,1.775 -4.356,4.523 v 17.089 h -7.915 V 11.584 C -12.271,4.669 -7.167,0 0,0"
               style="fill:#254aa5;fill-opacity:1;fill-rule:nonzero;stroke:none"
               id="path172" /></g></g></g><g
         id="g174"
         transform="matrix(2.4578705,0,0,2.4578705,123.31079,349.03966)"><path
           d="M 0,0 11.166,-15.253 H 17.57 V 12.854 H 10.068 V -1.892 L -0.726,12.854 H -7.504 V -15.253 H 0 Z"
           style="fill:#254aa5;fill-opacity:1;fill-rule:nonzero;stroke:none"
           id="path176" /></g><path
         d="m 190.74836,380.63411 h -19.28691 v -69.08336 h 19.28691 z"
         style="fill:#254aa5;fill-opacity:1;fill-rule:nonzero;stroke:none;stroke-width:2.45787"
         id="path178" /><g
         id="g180"
         transform="matrix(2.4578705,0,0,2.4578705,228.78121,357.30794)"><path
           d="m 0,0 6.817,-18.617 h 8.129 L 3.905,9.49 h -0.43 -6.95 -0.43 l -11.041,-28.107 h 8.129 z"
           style="fill:#254aa5;fill-opacity:1;fill-rule:nonzero;stroke:none"
           id="path182" /></g><path
         d="m 245.49005,400.11028 h -33.41966 v -14.58992 h 33.41966 z"
         style="fill:#254aa5;fill-opacity:1;fill-rule:nonzero;stroke:none;stroke-width:2.45787"
         id="path184" /><g
         id="g186"
         transform="matrix(2.4578705,0,0,2.4578705,-216.64122,-413.612)"><g
           id="g188"
           clip-path="url(#clipPath192)"><g
             id="g194"
             transform="translate(222.3998,309.0899)"><path
               d="m 0,0 c 0,8.154 -6.61,14.764 -14.764,14.764 -8.154,0 -14.764,-6.61 -14.764,-14.764 0,-8.154 6.61,-14.764 14.764,-14.764 C -6.61,-14.764 0,-8.154 0,0"
               style="fill:#33bdf2;fill-opacity:1;fill-rule:nonzero;stroke:none"
               id="path196" /></g><g
             id="g198"
             transform="translate(204.0404,316.9909)"><path
               d="M 0,0 C 0.042,-0.029 0.068,-0.076 0.071,-0.127 L 0.124,-1.09 c 0.008,-0.133 0.16,-0.203 0.266,-0.123 l 0.769,0.582 C 1.2,-0.6 1.252,-0.59 1.302,-0.603 l 0.933,-0.246 c 0.128,-0.034 0.242,0.089 0.198,0.214 L 2.117,0.277 C 2.101,0.325 2.107,0.378 2.135,0.421 L 2.657,1.232 C 2.729,1.343 2.648,1.49 2.515,1.488 L 1.55,1.469 C 1.499,1.467 1.451,1.49 1.419,1.529 L 0.809,2.278 C 0.725,2.38 0.56,2.348 0.522,2.221 L 0.242,1.297 C 0.227,1.249 0.19,1.21 0.143,1.191 l -0.9,-0.349 C -0.881,0.794 -0.9,0.628 -0.792,0.552 Z"
               style="fill:#ffffff;fill-opacity:1;fill-rule:nonzero;stroke:none"
               id="path200" /></g><g
             id="g202"
             transform="translate(207.4075,301.6978)"><path
               d="m 0,0 -1.303,-0.025 c -0.069,-0.002 -0.135,0.028 -0.178,0.082 l -0.823,1.01 C -2.418,1.206 -2.64,1.162 -2.692,0.991 L -3.07,-0.257 C -3.09,-0.322 -3.139,-0.376 -3.203,-0.4 l -1.216,-0.471 c -0.167,-0.065 -0.194,-0.29 -0.047,-0.392 l 1.07,-0.746 c 0.056,-0.039 0.091,-0.102 0.095,-0.171 l 0.072,-1.301 c 0.01,-0.179 0.216,-0.274 0.359,-0.166 l 1.039,0.787 c 0.055,0.041 0.126,0.055 0.192,0.037 l 1.26,-0.333 c 0.173,-0.045 0.327,0.121 0.269,0.29 l -0.427,1.231 c -0.023,0.065 -0.014,0.137 0.023,0.195 l 0.706,1.095 C 0.289,-0.194 0.179,0.003 0,0"
               style="fill:#ffffff;fill-opacity:1;fill-rule:nonzero;stroke:none"
               id="path204" /></g><g
             id="g206"
             transform="translate(217.4062,305.6214)"><path
               d="M 0,0 C 0.05,0.078 -0.007,0.181 -0.1,0.179 L -0.777,0.166 C -0.813,0.165 -0.847,0.181 -0.869,0.209 L -1.297,0.733 C -1.356,0.806 -1.472,0.783 -1.499,0.694 L -1.695,0.046 C -1.706,0.012 -1.731,-0.016 -1.764,-0.029 l -0.632,-0.245 c -0.087,-0.033 -0.101,-0.15 -0.024,-0.203 l 0.555,-0.388 c 0.029,-0.02 0.048,-0.053 0.05,-0.089 l 0.037,-0.676 c 0.006,-0.093 0.112,-0.142 0.186,-0.086 l 0.541,0.409 c 0.028,0.021 0.065,0.028 0.099,0.019 l 0.655,-0.173 c 0.09,-0.023 0.17,0.063 0.14,0.151 l -0.222,0.64 c -0.012,0.033 -0.007,0.071 0.012,0.101 z"
               style="fill:#ffffff;fill-opacity:1;fill-rule:nonzero;stroke:none"
               id="path208" /></g><g
             id="g210"
             transform="translate(224.2189,323.1436)"><path
               d="m 0,0 c -9.96,-7.561 -21.462,-12.416 -33.442,-14.38 -0.06,-0.01 -0.12,-0.02 -0.18,-0.029 -8.176,-1.32 -16.572,-1.294 -24.851,0.139 v -8.465 c 9.184,-1.43 18.478,-1.302 27.511,0.307 0.212,0.038 0.424,0.077 0.636,0.116 12.652,2.355 24.772,7.628 35.33,15.643 C 3.336,-4.446 1.669,-2.223 0,0"
               style="fill:#fbc707;fill-opacity:1;fill-rule:nonzero;stroke:none"
               id="path212" /></g></g></g></g></g></svg>
